<?xml version="1.0" encoding="UTF-8"?>
<svg id="Capa_1" data-name="Capa 1" xmlns="http://www.w3.org/2000/svg" viewBox="0 0 5043.42 1974.86">
  <defs>
    <style>
      .cls-1 {
        fill: #113424;
      }

      .cls-2 {
        fill: #0f0e09;
      }

      .cls-3 {
        fill: #f9f9f9;
      }

      .cls-4 {
        fill: #103424;
      }

      .cls-5 {
        fill: #4a4d26;
      }
    </style>
  </defs>
  <path class="cls-4" d="M4887.93,63.16c42.02,14.27,56.2,33.56,56.2,76.58-.04,353.82-.1,707.65-.15,1061.47,0,60.89-36.45,90.73-94.81,76.6-197.41-47.81-396.02-89.73-596.68-121.59-242.27-38.47-485.96-64.54-730.44-83.69-480.34-37.64-961.39-44.76-1442.85-32.16-478.98,12.53-955.29,53.27-1427.4,137.25-159.06,28.29-316.51,64.31-474.03,100-54,12.24-80.96-3.38-98.37-56.72l1.4-.61,.9,1.23c8.45-8.44,5-19.18,5.01-28.92,.14-348.49,.09-696.99-.12-1045.48,0-9.78,3.27-20.45-4.65-29.11l-.93,1.28-1.45-.61c9.08-29.03,24.19-51.79,57.66-55.46,10.53,8.9,23.1,4.6,34.63,4.6,1562.36,.26,3124.71,.29,4687.07,.15,9.73,0,20.5,3.63,29.01-4.8Zm-1955.64,694.88c.51-1.26,1.03-2.53,1.54-3.79-.95,.97-1.9,1.94-2.85,2.92-17.56-4.57-28.39-19.38-44.24-30.16-6.81,44.99-13.05,88.47-20.19,131.8-1.74,10.55,2.85,14.5,11.05,18.88,63.77,34.04,130.85,44.07,200.79,25.4,51.9-13.86,86.05-48.37,102.71-99.39,5.12-15.67,7.88-32.11,11.72-48.2,13.48-2.95,9.73-13.9,9.74-22.35,.19-159.35,.18-318.69,.13-478.04,0-7.17,1.62-14.98-5.39-20.38,.13-1.9,.26-3.81,.39-5.71,12.81-2.11,10.01-9.72,7.31-18.48-3.11-10.1-8.07-15.1-19.48-14.97-44.21,.51-88.43,.16-132.64,.24-17.16,.03-22.31,9.99-20.08,25.4,.91,6.31,3.62,12.57,3.44,18.8-4.79,172.6,10.69,345.54-8.4,517.9l-.32,.32c-12.37-.55-24.88-1.42-29.89,13.88-9.29,2.8-18.53,2.84-27.72-.45-7.82-15.83-21.85-13.75-35.65-12.35l-1.97-1.27Zm-1736.21,41.14c-14.05-12.79-24.16-4.92-33.6,6.42-1.78,.18-3.56,.37-5.35,.55-31.11-11.47-60.66-7.65-88.91,9.03-9.14,.75-18.29,1.51-27.43,2.26-4.95-7.34-12.77-7.1-19.81-6.09-23.88,3.46-32.45-5.33-30.87-30.1,2.64-41.25-2.67-82.91,5.82-123.94l1.97-.98,2.08,.74c6.53,4.71,12.79,5.85,18.43-1.38,5.33-.4,10.66-.79,15.99-1.19,2.83,2.09,5.47,5.62,8.53,6.06,34.28,4.85,67.84-10.37,102.96-2.38,13.12,2.99,17.6-17.49,6.45-29.97-.31-33.08-2.27-66.25-.39-99.21,1.43-25.08-1.86-37.89-31.52-29.86-14.62,3.96-31.03,1.3-46.63,1.64-16.66-11.24-35.42-5.34-52.96-5.06-22.12,.36-31.53-6.46-30.61-29.75,1.44-36.44,.38-72.97,.39-109.47,1.83-.02,3.66-.04,5.49-.07,24.96,11.95,51.44,2.99,77.1,5.54,7.27,.72,14.92,.64,17.22-8.93,25.87-1.82,51.73-2.76,77.57,.37,5.28,13.64,16.65,9,25.65,7.25,9.47-1.84,7.52-11.21,7.55-18.2,.15-41.03,.05-82.06,.1-123.09,0-8.53,.07-16.95-11.56-17.9-113.62,.41-227.24,1.17-340.85,.92-20.79-.05-35.59-.91-25.47,27.87,4.99,14.21,3.16,31.07,3.18,46.74,.27,186.61,.54,373.22,.27,559.83-.08,53.15,3.8,106.52-8.2,161.19,20.03-2.76,38.02-5.39,56.05-7.69,106.22-13.51,212.37-27.61,319.2-35.67,16.53-10.92,18.99-56.4,4.17-76.98,.04-5.53,.08-11.05,.12-16.58,13.54-20.79,15.69-41.33-1.38-61.44l-.74-.47ZM3291.75,202.08l.52-.25c-10.3,.19-13.18,5.91-9.66,14.61,5.45,13.47,3.18,27.38,3.2,41.08,.17,196.62,.19,393.25,0,589.87-.02,17.37,.73,34.57-3.76,52.11-5.46,21.35,9.9,34.6,32.14,30.71,22.87-4,45.39-2.45,68.46,.39,26.76,3.3,54.41,8.74,80.84-3.45,60.33,3.8,120.72,6.88,180.95,11.86,17.65,1.46,23.93-1.13,23.32-20.6-1.29-41.2,.28-82.49,.67-123.75-2.5-15.43-14.75-10.98-23.94-11.08-55.62-.56-111.33,2.3-166.73-5.56-9.12-1.29-19.52,.48-19.66-13.09-.43-41.98-3.27-84.19,10.73-124.93,11.13-.17,22.26-.35,33.39-.52,3.1,6.13,7.79,10.13,14.86,10.63,32.72,2.35,65.76-3.68,98.37,4.35,6.74,1.66,7.92-5.82,7.98-11.58-.17-28.43-.57-56.86-.47-85.29q.22-59.69-57.55-61.81c-4.54-.17-9.06-1.01-13.6-1.54-1.47-9.99-8.89-10.16-16.54-10.13-15.62,.07-31.4-1.31-46.84,.39-23.55,2.6-33.07-4.53-31.39-29.96,2.24-33.85,.51-67.97,.48-101.98,67.86-.95,135.76-4.7,205.99,3.77V223.47c9.35-2.73,22.46-2.87,19.76-17.27-2.19-11.66-13.61-10.24-22.79-10.43-2.77-.06-5.54-.02-8.31-.02-110.75,0-221.5-.11-332.25,.18-9.55,.02-20.63-4.17-28.18,6.15ZM268.56,539.73c-9.94,1.78-9.71,9.36-9.71,16.9,.03,55.13,.04,110.26,.02,165.39,0,7.57-.15,15.11,9.8,16.83,4.15,34.78,6.59,69.88,12.81,104.29,11.31,62.65,30.69,122.28,82.47,164.62,76.25,62.36,204.02,55.32,286.57-15.34,66.78-57.15,86.53-134.8,94.1-217.75,1.22-13.41-6.88-12.19-15.35-12.86-39.58-3.15-79.29-5.4-118.64-10.39-18.86-2.4-23.5,2.48-23.22,20.93,.53,34.57-4.77,68.47-27.7,96.49-30.32,37.03-80.65,31.85-102.97-10.23-8.3-15.64-13.3-32.4-15.68-49.9-13.49-99.33-10.41-199-5.92-298.69,1.75-38.79,4.24-77.62,19.73-113.99,11.32-26.6,29.86-44.35,60.69-44.49,27.58-.13,49.65,17.22,61.28,47.73,6.98,18.31,11.04,37.43,10.1,56.9-.86,17.84,7.05,19.33,21.68,16.38,38.88-7.84,77.92-14.96,117-21.73,10.21-1.77,16.73-3.41,16.05-16.61-3.19-62.38-18.51-119.88-59.25-169.38-82.48-100.21-302.34-108.13-373.62,66.64-27.35,67.05-33.55,137.56-40.25,208.27Zm1548.43,21.85c0,5.6,0,11.2,0,16.81-7.2,5.2-5.68,12.97-5.69,20.13-.09,82.53-.12,165.06-.07,247.58,0,7.16-1.52,14.9,5.4,20.3-.18,3.77-.37,7.53-.55,11.3-16.14,8.55-16.77,22.69-10.67,36.7,4.63,10.65,9.28,5.47,11.28-2.85,3.73-.11,7.45-.22,11.18-.33,42.28,10.56,85.35,2.56,127.93,5.47,22.71,1.55,27.55-12.81,25.43-29.47-8.45-66.08-1.34-132.33-3.58-198.44-.29-8.54-3.02-19.45,10.9-21.37,11.78-1.63,19.6,3.26,23.76,14.16,6.88,18,11.82,37.04,20.89,53.85,12.31,22.8,9.89,52.24,32.23,70.22,9.91,26.74,20.37,53.29,29.45,80.31,3.31,9.85,6.28,15.37,18.41,15.19,51.36-.76,102.74-.32,155.6-.32-35.6-90.19-69.31-175.59-103.03-260.99-3.65-9.23-9.31-17.36,3.97-25.41,52.59-31.88,72.78-83.14,82.29-140.7,24.6-148.8-58.24-259.2-207.43-269.6-73.5-5.12-147.63-1.23-221.47-1.75-7.8-.05-12.29,1.65-12.12,10.1-5.88,15.74-14.72,31.86,5.75,44.18,.05,5.6,.1,11.19,.15,16.79-9.63,44.3-9.46,88.61-.03,132.92,0,3.77,0,7.54,0,11.31-.73,.51-2.16,1.29-2.08,1.49,.51,1.34,1.35,2.56,2.08,3.82,2.4,9.31,2.37,18.63-.01,27.94-9.39,36.9-9.49,73.8,.03,110.7Zm1934.62,360.13c-8.06,23.14,.85,30.22,24.39,30.96,39.64,1.25,79.16,6.17,118.76,9.2,8.04,.61,17.42,5.87,15.47-12.14-9.08-83.75-2.57-167.91-3.77-251.89-.08-5.8-2.45-12.62,6.4-16.05,18.39-7.15,42.39,2.56,48.2,21.19,26.91,86.34,53.7,172.73,79.96,259.27,2.55,8.41,3.05,15.17,14.28,16.42,55.34,6.13,110.6,13.06,165.8,19.7-38.51-108.44-75.67-214.72-114.3-320.47-7.82-21.41-5.75-33.11,14.83-46.35,30.25-19.45,48.21-50.36,59.52-84.58,13.22-40.02,17.17-81.26,14.87-123.1-6.88-125-80.83-203.92-205.19-217.76-71.79-7.99-144.07-.74-215.96-4.69-25.11-1.38-29.46,6.98-23.25,27.95-7.55,8.8-4.52,19.43-4.53,29.26-.22,212.23-.24,424.46-.15,636.68,0,8.94-2.69,18.64,4.68,26.39Zm1005.52-283.34c0-98.45-1.46-188.91-29.74-276.39-34.4-106.41-113.75-167.39-218.2-167.77-106.38-.38-178.43,55.4-214.11,166.26-4.8,14.9-8.89,30.21-11.44,45.64-22.52,136.03-21.33,272.22-.68,408.28,7.15,47.1,24.24,91.11,51.06,130.61,56.05,82.53,136.61,113.86,232.81,102.53,90.25-10.63,136.5-72.96,163.35-153.48,3.49-10.47,5.98-21.31,8.48-32.09,17.66-76.22,17.42-153.88,18.47-223.61ZM1737.67,914.27c-16.98-42.51-32.69-81.81-48.38-121.12-15.72-39.39-29.78-79.54-47.65-117.92-13.5-28.98-16.43-49.42,15.82-69.33,24.19-14.93,37.99-42.43,47.61-69.88,17.43-49.74,21.94-100.91,13.39-152.89-16.62-101-82.79-165.09-184.87-176.66-84.57-9.58-169.54-1.64-257.55-4.42,10.71,31.01,8.97,60.58,9.01,89.97,.23,194.81,.28,389.62,.39,584.43,.01,18.47,.3,36.94-6.21,54.7-3.48,9.5-3.07,15.55,10.26,14.21,49.9-5.02,99.87-9.34,152.52-14.18-8.24-15.85-7.92-29.74-7.93-43.55-.02-62.78-.32-125.57,.48-188.34,.12-9.74-8.42-26.11,12.63-27.04,17.57-.77,34.29-6.61,42.52,20.09,22.52,73.05,48.98,144.87,73.13,217.43,3.62,10.86,8.16,14.1,19.52,13.34,51.34-3.47,102.75-5.95,155.28-8.85Zm1091.24-17.15c-.18,.77,.35-.15,.16-.89-55.78-225.58-111.44-451.18-161.46-678.12-2.8-12.72-5.85-16.37-18.63-16.08-39.69,.9-79.42,.42-119.13,.36-43.15-.06-42.99-.08-51.66,39.74-46.26,212.56-96.54,424.19-148.7,635.37-4.17,16.87-2.25,20.67,14.66,19.99,30.43-1.23,60.94-.91,91.41-1q41.99-.12,49.44-39.08c1.38-7.25,2.38-14.58,3.91-21.79,12.44-58.71,12.48-59.23,72.02-57.9,28.4,.63,66.11-11.87,82.72,5.66,17.19,18.15,14.43,55.25,20.2,84.1,.9,4.49,1.71,9.38,.87,13.76-2.35,12.2,2.06,16.21,14.36,16.08,49.81-.49,99.62-.2,149.82-.2Z"/>
  <path class="cls-4" d="M2391.65,1903.32c15.07-43.44,29.87-86.98,45.39-130.26,4.74-13.2,4.71-21.96-7.25-33.23-53.15-50.12-52.17-130.27,.44-182,47.89-47.09,129.57-45.96,177.14,2.44,49.31,50.18,47.71,132.41-4.74,180.37-9.97,9.12-12.5,16.27-7.75,28.24,7.43,18.77,13.8,37.95,20.61,56.96-4.69,19.17,5.81,34.92,12.46,51.18,7.77,19.02,4.08,27.49-17.77,27.27-72.84-.74-145.69-.71-218.53-.97Z"/>
  <path class="cls-1" d="M2229.34,1844.8c-65.16-12.72-130.65-23.96-195.42-38.43-190.7-42.61-373.13-109.19-549.53-192.8-15.55-7.37-29.09-17.05-19.87-35.74,9.14-18.53,26.04-17.62,43.03-9.71,104.51,48.67,211.25,91.67,320.94,127.38,126.54,41.19,255.62,71.62,386.96,92.72,7.29,1.17,14.68,1.98,21.81,3.81,14.69,3.77,22.01,13.95,19.58,28.69-2.36,14.35-11.78,22.48-27.49,24.08Z"/>
  <path class="cls-1" d="M2800.19,1842.88c-14.3,.06-24.08-7.05-25.33-22.43-1.34-16.41,7.46-25.72,23.55-28.56,45.41-8.02,90.94-15.48,136.19-24.35,201.88-39.6,395.32-104.63,580.76-193.62,4.98-2.39,9.88-5,14.99-7.1,15.37-6.29,30.08-6.02,37.63,10.84,7.43,16.59-.98,27.62-16.59,35.2-180.7,87.72-368.38,155.17-565.27,196.34-61.39,12.84-122.78,25.48-185.94,33.67Z"/>
  <path class="cls-1" d="M2926.08,1204.82c-5.52-8.5-11.46-17.03,6.35-16.88,36.81,.3,73.72-1.07,110.42,1.13,33.49,2.01,57.13,21.62,64.22,48.02,7.75,28.87-1.13,52.59-29.95,76.46,16.39,8.83,30.72,19,37.01,37.23,15.29,44.37-7.49,87.28-53.96,97.62-42.69,9.5-86.28,4.12-129.38,3.54-21.62-.29-3.84-13.01-2.82-20.25,9.93-2.54,8.47-10.61,8.48-17.81,.12-63.38,.19-126.76,.26-190.15,0-8.26,1.12-17.21-10.61-18.91Zm68.07,171.34c1.06,4.5-11.34,24.81,17.52,23.2,21.66-1.21,39.16-5,39.18-30.57,.03-22.24-15.04-27.72-34.94-29.14-23.28-1.66-25.39,10.93-21.76,36.5Zm-1.29-110.32c1.17,11.79-6.58,28.69,17.78,26.96,17.46-1.24,31.17-4.55,32.03-25.02,.85-20.19-10.89-25.91-29.42-27.02-20.3-1.22-22.98,8.91-20.4,25.08Z"/>
  <path class="cls-1" d="M3580.71,1321.03c-2.04,16.44-2.98,33.11-6.33,49.29-10.71,51.73-47.43,83.24-98.09,85.4-55.19,2.36-93.66-25.1-108.95-78.7-10.88-38.15-10.26-76.91-.31-114.94,13.55-51.77,53.54-80.48,106.33-78.73,53.29,1.77,89.68,32.6,101.16,85.23,3.77,17.27,5.18,34.66,6.2,52.44Zm-151.64-2.51c-.07,18.46-.36,36.98,6.47,54.57,6.23,16.04,17.45,25.79,35.35,25.88,16.94,.08,28.61-9.19,33.35-24.28,11.3-35.95,12.44-72.56,.27-108.64-5.58-16.55-18.04-24.96-36.08-24.24-16.85,.68-27.14,9.88-33.02,24.89-6.54,16.71-6.34,34.28-6.36,51.81Z"/>
  <path class="cls-1" d="M1426.22,1188.71c34.12,0,71.99-2.48,109.41,.62,48.06,3.98,75.93,31.28,87.9,78.87,8.01,31.84,8.9,63.86,1.37,95.85-12.77,54.21-43.86,82.91-99.46,87.87-30.2,2.7-60.83,.45-91.27,.75-10.99,.11-12.34-2.74-11.13-14.61,8.35-82.54,4.4-165.21,3.18-249.34Zm65.42,129.79h-.19c0,15.7-.77,31.44,.27,47.07,.69,10.28-6.12,24.96,6.17,29.89,13.89,5.57,29.22,1.35,41.59-8.48,29.95-23.82,30.05-111.99,.1-135.07-8.25-6.36-18-8.53-28.44-9.37-13.59-1.1-20.68,2.2-19.77,17.81,1.12,19.33,.27,38.76,.27,58.15Z"/>
  <path class="cls-1" d="M2523.33,1189.09c-6.16,61.77-2.48,121.67-2.15,181.42,.09,16.4,11.43,27.09,28.95,27.64,18.97,.59,30.66-10.14,31.21-28.08,1.83-59.78,4.01-119.65-1.53-180.77h71.56c-5.54,56.7-2.42,113.38-2.85,170-.48,63.57-34.06,96.72-98.32,96.32-65.54-.41-96.21-31.75-95.76-97.55,.3-44.32-.17-88.64,.77-132.94,.26-12.28-4.79-23.13-6.12-36.03h74.24Z"/>
  <path class="cls-1" d="M2218.92,1188.07c33.23,0,68.23-.82,103.17,.19,51.62,1.5,84.97,35.35,85.99,85.61,1.08,52.98-29.74,88.02-81.76,92.97q-40.16,3.82-39.96,44.97c0,1.84,.51,3.88-.1,5.5-4.4,11.74,13.06,29.92,.26,33.29-21.53,5.67-45.68,2.67-68.59,1.12-7.58-.52-1.7-8.7-1.24-13.63,7.83-82.55,3.97-165.03,2.22-250.02Zm67.78,89.33q.31,39.64,15.18,39.9c25.06,.44,40.47-14.68,39.63-38.9-.82-23.99-14.83-37.03-39.13-36.08-31.65,1.23-7.34,26.15-15.68,35.08Z"/>
  <path class="cls-1" d="M2868.45,1249.5c-22.75-8.43-44.02-5.36-64.88-7.18-21.23-1.85-28.54,4.54-28.06,26.94,.4,19.12,6.81,24.65,24.01,22.75,4.56-.5,9.6,1.03,13.78-.33,34.91-11.35,33.83,9.24,33.13,34.09-.54,19.02-3.25,27.86-24,19-4.68-2-10.95-.24-16.49-.22-26.47,.1-39.87,21.82-28.99,46.1,3.73,8.33,10.43,6.34,16.37,6.43,25.68,.41,51.56,2.65,75.84-7.49,1.08,1.95,1.86,2.73,1.91,3.56q3.66,59.35-55.7,59.49c-32.32,.04-64.64,.02-96.95-.52-5.93-.1-17.37,3.69-13.67-9.71,10.27-37.23,5.13-75.19,4.74-112.67-.45-44.08,5.87-88.49-3.91-132.31-2.52-11.31,5.95-9.09,11.68-9.13,45.24-.3,90.49,.01,135.73-.7,12.43-.2,16.17,4.5,15.62,16.17-.68,14.55-.16,29.16-.16,45.73Z"/>
  <path class="cls-1" d="M1817.93,1349.16c-15.61-4.03-28.53-3.52-41.07-5.02-24.81-2.97-28.53,8.32-28.04,29.78,.4,17.51,3.77,25.11,22.83,23.77,23.72-1.67,47.92,2.08,70.14-9.04,1.41,2.66,2.88,4.18,2.94,5.76q2.44,58.38-56.96,58.42c-32.28,0-64.58-.67-96.85,.14-14.64,.37-17.77-2.74-11.48-16.82,7.76-17.36,3.71-36.49,3.41-54.72-1.03-60.7,5.39-121.62-4.09-182.04-1.91-12.2,4.21-11.54,11.96-11.54,45.2,.01,90.4,.28,135.59-.25,11.14-.13,14.54,4.11,14.17,14.53-.53,14.6-.13,29.23-.13,46.45-25.42-7.16-49.89-4.52-74.13-6.09-19.61-1.27-17.41,10.82-17.04,22.86,.38,12.18-4.29,27.76,17.43,25.56,4.56-.46,9.21,.1,13.83,.1q38,.03,37.5,38.05c-.07,5.43,0,10.86,0,20.09Z"/>
  <path class="cls-1" d="M3326.95,1387.04q7.03,65.37-53.28,65.28c-31.34,0-62.69,.24-94.03,.66-11.4,.15-16,.73-14.67-16.02,6.18-77.95,6.17-156.2,.21-234.24-.78-10.27-2.2-16.01,10.35-14.58,.91,.1,1.84,0,2.76,0,19.34,.04,43.04-6.64,56.69,2.19,11.54,7.47-1.06,32.47-.41,50.06,1.67,45.12,1.21,90.34,.43,135.5-.25,14.89,3.01,22.01,19.48,20.6,23.58-2.03,47.88,3.28,72.46-9.45Z"/>
  <path class="cls-1" d="M1900.36,1204.85c-3.43-6.95-11.76-15.27,4.55-16.82,2.74-.26,5.52-.05,8.28-.04,18.38,.06,40.95-6.36,53.93,2.04,12.57,8.14-1.78,30.69-1.16,47.41,1.7,45.94,1.1,92,.28,137.99-.26,14.84,2.67,22.42,19.47,20.63,16.39-1.75,34.83,2.86,49.12-3.1,28.25-11.79,24.79,4.46,24.55,21.73-.52,37.58-.26,37.72-37.75,37.94-35.88,.21-71.81-.93-107.63,.54-21.45,.88-21.57-6.63-12.19-21.41,10.05-2.2,8.92-10.17,8.93-17.47,.07-63.46,.11-126.91,.14-190.37,0-8.25,1.18-17.23-10.51-19.06Z"/>
  <path class="cls-1" d="M1192.27,1364.37c-24.88,0-49.77-.22-74.65,.07-19.22,.22-28.82-8.07-29.06-28.03-.25-21.38,10.05-29.77,30.5-29.63,49.76,.35,99.53,.47,149.29,.06,20.68-.17,34.24,6.14,33.89,29.49-.36,23.87-15.42,28.45-35.33,28.06-24.87-.48-49.76-.12-74.65-.12v.09Z"/>
  <path class="cls-1" d="M3793.23,1307.05c25.75,0,51.52,.31,77.26-.1,19.43-.31,29.46,8.82,29.41,28.03-.05,18.57-9,29.32-28.61,29.31-52.43-.02-104.86,0-157.29,.06-18.82,.03-26.31-10.87-26.45-27.98-.13-16.95,6.78-28.71,25.66-28.88,26.67-.24,53.35-.06,80.02-.06v-.38Z"/>
  <path class="cls-3" d="M79.4,1220.9c-13.47-3.47-8.9-14.6-8.91-22.87-.24-352.27-.28-704.54-.11-1056.82,0-8.24-4.61-19.46,9.18-22.54,0,0,1.45,.61,1.45,.61,0,0,.93-1.28,.93-1.28-.68,10.06-1.95,20.13-1.95,30.2-.11,317.26-.16,634.52-.02,951.77,.02,40.51,1.13,81.03,1.74,121.54l-.9-1.23-1.4,.61Z"/>
  <path class="cls-5" d="M2391.65,1903.32c72.84,.26,145.69,.23,218.53,.97,21.84,.22,25.54-8.25,17.77-27.27-6.64-16.27-17.14-32.01-12.46-51.18q42.16,87.39-52.82,87.83c-49.74,.18-99.48,.31-149.2-.48-7.56-.12-21.35,8.03-21.81-9.87Z"/>
  <path class="cls-2" d="M1900.36,1204.85c11.69,1.84,10.51,10.82,10.51,19.06-.03,63.46-.07,126.91-.14,190.37,0,7.3,1.12,15.26-8.93,17.47-.48-75.64-.96-151.27-1.44-226.9Z"/>
  <path class="cls-2" d="M2926.08,1204.82c11.73,1.71,10.62,10.65,10.61,18.91-.07,63.38-.14,126.76-.26,190.15-.01,7.2,1.45,15.26-8.48,17.81-.62-75.62-1.25-151.25-1.87-226.87Z"/>
  <path class="cls-3" d="M4757.12,638.37c-1.05,69.73-.81,147.39-18.47,223.61-2.5,10.77-4.98,21.61-8.48,32.09-26.85,80.51-73.1,142.84-163.35,153.48-96.2,11.33-176.76-20.01-232.81-102.53-26.82-39.5-43.92-83.51-51.06-130.61-20.65-136.06-21.84-272.25,.68-408.28,2.55-15.43,6.65-30.73,11.44-45.64,35.68-110.87,107.73-166.65,214.11-166.26,104.45,.38,183.8,61.36,218.2,167.77,28.28,87.48,29.74,177.94,29.74,276.39Zm-323.41,111.76c-.05,34.43,5.03,67.99,19.14,99.56,12.21,27.32,32.12,44.9,63.92,44.22,31.17-.66,48.07-20.42,59.34-46.39,7.37-16.98,10.79-35.15,12.85-53.54,11.13-99.34,7.86-198.89,3.24-298.37-1.41-30.27-5.44-60.63-15.83-89.55-13.29-36.97-36.57-55.69-67.78-54.75-29.44,.89-52.53,20.84-63.24,56.65-7.94,26.52-13.01,53.7-11.67,81.66-6.37,86.84-6.87,173.67,.03,260.51Z"/>
  <path class="cls-3" d="M3751.61,229.37c-6.21-20.96-1.86-29.33,23.25-27.95,71.89,3.95,144.17-3.3,215.96,4.69,124.36,13.84,198.32,92.76,205.19,217.76,2.3,41.83-1.65,83.07-14.87,123.1-11.3,34.22-29.27,65.12-59.52,84.58-20.59,13.24-22.66,24.94-14.83,46.35,38.63,105.75,75.79,212.03,114.3,320.47-55.21-6.64-110.46-13.57-165.8-19.7-11.23-1.24-11.72-8.01-14.28-16.42-26.27-86.54-53.05-172.93-79.96-259.27-5.81-18.63-29.81-28.34-48.2-21.19-8.84,3.44-6.48,10.25-6.4,16.05,1.2,83.98-5.31,168.14,3.77,251.89,1.95,18.01-7.42,12.75-15.47,12.14-39.6-3.03-79.11-7.95-118.76-9.2-23.55-.74-32.46-7.82-24.39-30.96,4.62-13.33,4.17-27.2,4.17-40.98,.03-202.51,.07-405.02-.22-607.53-.02-14.61-2.57-29.22-3.95-43.83Zm154.49,218.71c0,16.59,0,33.18,0,49.78q-.03,49.21,50.63,47.13c41.02-1.69,65.48-17.88,76.2-52.06,8.73-27.84,9.7-56.21,1.12-84.42-10.79-35.47-35.61-55.03-72.78-57.19-12.87-.75-25.88,.32-38.68-.93-14.07-1.37-17.09,4.87-16.74,17.51,.74,26.71,.23,53.46,.25,80.19Z"/>
  <path class="cls-3" d="M1737.67,914.27c-52.54,2.9-103.94,5.38-155.28,8.85-11.36,.77-15.9-2.47-19.52-13.34-24.16-72.56-50.62-144.38-73.13-217.43-8.23-26.71-24.96-20.86-42.52-20.09-21.05,.92-12.5,17.3-12.63,27.04-.8,62.77-.51,125.56-.48,188.34,0,13.81-.31,27.7,7.93,43.55-52.65,4.84-102.62,9.16-152.52,14.18-13.33,1.34-13.74-4.72-10.26-14.21,6.5-17.76,6.22-36.23,6.21-54.7-.11-194.81-.16-389.62-.39-584.43-.03-29.39,1.7-58.96-9.01-89.97,88,2.77,172.98-5.17,257.55,4.42,102.08,11.57,168.26,75.65,184.87,176.66,8.55,51.98,4.04,103.15-13.39,152.89-9.62,27.46-23.42,54.95-47.61,69.88-32.26,19.91-29.32,40.35-15.82,69.33,17.88,38.38,31.94,78.54,47.65,117.92,15.69,39.31,31.4,78.61,48.38,121.12Zm-267.9-566.58c-9.28,7.94-34.85-14.88-35.21,16.44-.61,53.49-.31,107-.14,160.49,.02,5.74-2.52,12.38,6.82,15.51,26.04,8.73,88.68-7.53,104.71-30.61,25.63-36.89,27.44-77.73,10.96-118.51-15.33-37.95-49.26-43.29-87.14-43.33Z"/>
  <path class="cls-3" d="M1816.99,578.39c0-5.6,0-11.2,0-16.8,0-36.9-.02-73.8-.03-110.7,2.38-9.31,2.41-18.63,.01-27.94,0-1.77,0-3.54,0-5.31,0-3.77,0-7.54,0-11.31,0-44.31,.02-88.61,.03-132.92-.05-5.6-.1-11.19-.15-16.79,1.51-15.17,1.47-30.14-5.75-44.18-.18-8.45,4.32-10.15,12.12-10.1,73.84,.52,147.97-3.37,221.47,1.75,149.19,10.4,232.03,120.8,207.43,269.6-9.52,57.56-29.7,108.82-82.29,140.7-13.28,8.05-7.62,16.18-3.97,25.41,33.72,85.4,67.43,170.8,103.03,260.99-52.87,0-104.24-.44-155.6,.32-12.14,.18-15.1-5.34-18.41-15.19-9.08-27.02-19.54-53.57-29.45-80.31-14.66-43.62-29.95-87.05-43.71-130.95-7.28-23.22-25.03-12.48-38.95-14.4-11.05-1.53-14.07,4.26-13.94,14.67,.91,71.02-3.47,142.17,3.03,213.01,1.34,14.58-1.13,16.75-14.15,17.18-43.3,1.44-86.57,3.98-129.85,6.09-3.73,.11-7.45,.22-11.18,.33-13.91-11.04,5.19-22.67-.61-33.85,.18-3.77,.37-7.53,.55-11.29,3.17-96,2.03-192,.35-288.01Zm257.01-69.88c-.39-.54-.78-1.08-1.16-1.62,.41,.52,.83,1.05,1.24,1.57,1.84-1.86,3.68-3.73,5.52-5.59-.32-.54-.64-1.07-.97-1.61,.35,.52,.7,1.05,1.05,1.57,27.25-36.12,28.94-88.8,4.02-125.19l.32,.44c-2-2.47-4-4.94-6-7.41-1.37-1.26-2.75-2.53-4.12-3.79-2.49-1.84-4.98-3.68-7.47-5.53-6.04-6.61-13.5-9.93-22.49-9.74-20.42-8.52-41.8-3.44-62.75-4.54-12.67-.66-12.34,7.93-12.33,16.52,.08,50.58,.15,101.16,.22,151.74,.01,7.3-1.47,15.88,10.11,15.13,23.57-1.52,47.88,3.81,70.39-7.54,2.16-.79,4.33-1.57,6.49-2.36,3.89-2.45,7.78-4.9,11.67-7.35l-.32,.27c2.19-1.66,4.38-3.32,6.57-4.98Z"/>
  <path class="cls-3" d="M268.56,539.73c6.7-70.71,12.91-141.22,40.25-208.27,71.28-174.76,291.14-166.85,373.62-66.64,40.74,49.5,56.06,107,59.25,169.38,.68,13.21-5.84,14.85-16.05,16.61-39.08,6.77-78.12,13.89-117,21.73-14.63,2.95-22.54,1.46-21.68-16.38,.94-19.47-3.13-38.6-10.1-56.9-11.63-30.51-33.7-47.86-61.28-47.73-30.84,.14-49.37,17.9-60.69,44.49-15.48,36.37-17.98,75.2-19.73,113.99-4.49,99.68-7.57,199.36,5.92,298.69,2.38,17.5,7.38,34.26,15.68,49.9,22.32,42.08,72.65,47.26,102.97,10.23,22.93-28.01,28.22-61.91,27.7-96.49-.28-18.45,4.35-23.33,23.22-20.93,39.35,5,79.06,7.25,118.64,10.39,8.47,.67,16.58-.54,15.35,12.86-7.56,82.96-27.32,160.6-94.1,217.75-82.55,70.66-210.32,77.7-286.57,15.34-51.78-42.35-71.17-101.97-82.47-164.62-6.21-34.41-8.66-69.5-12.81-104.29-.04-66.37-.08-132.75-.11-199.12Z"/>
  <path class="cls-3" d="M996.1,356.41c-1.83,.02-3.66,.04-5.5,.07-7.28-1.17-9.77,2.63-9.79,9.24-.17,42.23-.07,84.47-.75,126.7-.21,13,5.92,15.31,16.97,14.32,25.56-2.3,51.17-4.02,76.76-5.98,15.6-.34,32.01,2.32,46.63-1.64,29.67-8.03,32.95,4.78,31.52,29.86-1.88,32.96,.08,66.13,.39,99.21,.66,15.41-3.88,20.93-21.89,20.37-31.94-.99-64.31-.34-96.05,5.93-5.33,.4-10.66,.79-15.99,1.19-6.33-2.06-12.44-1.12-18.43,1.38l-2.08-.74s-1.97,.98-1.97,.98c-17.14-4.44-15.15,7.66-15.21,17.75-.19,31.3-.26,62.59-.41,93.89q-.28,61.17,60.47,48.49c9.14-.75,18.29-1.51,27.43-2.26,29.89-.52,59.6-2.85,88.91-9.03,1.78-.18,3.56-.37,5.35-.55,11.2-2.14,22.4-4.28,33.6-6.42l.74,.47c.46,20.48,.92,40.96,1.38,61.44-.04,5.53-.08,11.05-.12,16.58-1.39,25.66-2.78,51.32-4.17,76.98-106.83,8.06-212.98,22.16-319.2,35.67-18.03,2.29-36.02,4.93-56.05,7.69,11.99-54.66,8.12-108.04,8.2-161.19,.27-186.61,0-373.22-.27-559.83-.02-15.66,1.81-32.53-3.18-46.74-10.11-28.78,4.68-27.92,25.47-27.87,113.62,.25,227.24-.51,340.85-.92,5.39,44,.23,88.22,2.58,132.22,1.12,20.87-6.32,25.33-24.32,19.73-25.84-3.14-51.71-2.19-77.57-.37-31.53-1.45-63.03-1.86-94.32,3.39Z"/>
  <path class="cls-3" d="M2828.91,897.11c-50.2,0-100.02-.29-149.82,.2-12.31,.12-16.72-3.88-14.36-16.08,.84-4.38,.03-9.27-.87-13.76-5.77-28.85-3.01-65.96-20.2-84.1-16.61-17.54-54.32-5.03-82.72-5.66-59.54-1.33-59.58-.81-72.02,57.9-1.53,7.22-2.53,14.54-3.91,21.79q-7.43,39.06-49.44,39.08c-30.47,.09-60.98-.23-91.41,1-16.92,.69-18.83-3.12-14.66-19.99,52.16-211.18,102.44-422.81,148.7-635.37,8.67-39.83,8.51-39.81,51.66-39.74,39.71,.06,79.43,.54,119.13-.36,12.77-.29,15.82,3.36,18.63,16.08,50.01,226.94,105.68,452.55,161.46,678.12,.18,.75-.34,1.67-.16,.89Zm-255.53-486.88c-6.54,31.75-11.81,56.94-16.9,82.16-5.29,26.23-10.7,52.45-15.48,78.77-4.39,24.19-23.62,56.32-10.63,70.2,14.45,15.44,48.82,3.68,74.49,4.89,.92,.04,1.86-.1,2.77,.01,11.06,1.38,14.91-2.69,12.47-14.11-15.33-71.77-30.28-143.62-46.72-221.93Z"/>
  <path class="cls-3" d="M3502.22,639.49c-11.13,.17-22.26,.35-33.39,.52-11.32-1.65-21.43-4.28-20.85,14.35,1.19,37.81,.72,75.71-.27,113.54-.39,14.82,5.37,18.95,19.22,19.28,67.2,1.62,134.07,11.95,201.51,7.49-.4,41.25-1.96,82.55-.67,123.75,.61,19.46-5.67,22.06-23.32,20.6-60.23-4.98-120.62-8.06-180.95-11.86-39.47-2.94-78.94-6.02-118.43-8.76-16.54-1.15-37.2,4.23-48.7-3.8-15.26-10.65,1.38-30.55,1.11-46.91-3.66-221.93,5.02-443.96-5.2-665.85,0,0-.52,.25-.52,.25,115.88,.08,231.75,.41,347.62-.07,16.2-.07,26.76,2.24,24.14,21.46v132.88c-70.23-8.47-138.13-4.72-205.98-3.77-18.75,11.15-8.32,29.29-8.44,43.46-.27,31.76-14.41,75.18,6.21,92.36,21.35,17.79,63.43,7,96.52,5.86,4.53,.53,9.05,1.37,13.6,1.54q57.88,2.15,57.55,61.81c-.1,28.43,.3,56.86,.47,85.29-40.4-1.29-80.62-9.15-121.22-3.4Z"/>
  <path class="cls-3" d="M2969.9,771.66c9.19,3.3,18.43,3.25,27.72,.45,12.18,.15,22.36-4.02,29.89-13.88,0,0,.32-.32,.32-.32,19.11-16.49,18.57-39.21,18.61-61.27,.24-133.95,.18-267.89,.06-401.84-.02-25.83,1.76-51.95-4.6-77.26-3.49-13.91,2.55-15.41,13.76-15.32,39.72,.34,79.49,1.38,119.14-.33,22.31-.96,30.24,5.38,22.87,27.12-.13,1.9-.26,3.81-.39,5.71-.9,20.26-2.49,40.51-2.6,60.77-.79,153.33-1.28,306.67-1.87,460-3.84,16.09-6.6,32.53-11.72,48.2-16.65,51.02-50.81,85.54-102.71,99.39-69.94,18.67-137.02,8.64-200.79-25.4-8.2-4.38-12.79-8.33-11.05-18.88,7.14-43.33,13.38-86.81,20.19-131.8,15.86,10.78,26.68,25.58,44.24,30.16l1.3,.87s1.97,1.27,1.98,1.27c10.56,7.92,22.37,12.25,35.64,12.35Z"/>
  <path class="cls-1" d="M3292.27,201.83c10.22,221.89,1.54,443.92,5.2,665.85,.27,16.36-16.37,36.26-1.11,46.91,11.5,8.03,32.16,2.65,48.7,3.8,39.49,2.74,78.95,5.82,118.43,8.76-26.43,12.18-54.08,6.74-80.84,3.45-23.07-2.84-45.6-4.39-68.46-.39-22.24,3.89-37.6-9.37-32.14-30.71,4.49-17.54,3.74-34.74,3.76-52.11,.19-196.62,.18-393.25,0-589.87-.01-13.7,2.25-27.61-3.2-41.08-3.52-8.69-.64-14.42,9.66-14.61Z"/>
  <path class="cls-1" d="M3197.68,229.01c7.38-21.74-.56-28.07-22.87-27.12-39.65,1.7-79.42,.67-119.14,.33-11.21-.1-17.25,1.41-13.76,15.32,6.36,25.31,4.57,51.42,4.6,77.26,.12,133.95,.18,267.89-.06,401.84-.04,22.06,.5,44.78-18.61,61.27,19.1-172.36,3.61-345.3,8.4-517.9,.17-6.23-2.53-12.49-3.44-18.8-2.23-15.41,2.92-25.36,20.08-25.4,44.21-.09,88.43,.27,132.64-.24,11.41-.13,16.36,4.87,19.48,14.97,2.7,8.76,5.5,16.37-7.31,18.48Z"/>
  <path class="cls-5" d="M3751.61,229.37c1.37,14.61,3.93,29.22,3.95,43.83,.29,202.51,.25,405.02,.22,607.53,0,13.77,.45,27.65-4.17,40.98-7.37-7.75-4.68-17.45-4.68-26.4-.09-212.23-.06-424.46,.15-636.68,.01-9.83-3.03-20.46,4.53-29.26Z"/>
  <path class="cls-1" d="M1827.87,911.21c43.28-2.12,86.55-4.66,129.85-6.09,13.01-.43,15.49-2.6,14.15-17.18-6.51-70.84-2.13-141.99-3.03-213.01-.13-10.4,2.88-16.2,13.94-14.67,13.93,1.93,31.68-8.81,38.95,14.4,13.76,43.91,29.05,87.33,43.71,130.95-22.34-17.98-19.93-47.42-32.23-70.22-9.08-16.81-14.01-35.84-20.89-53.85-4.17-10.9-11.98-15.78-23.76-14.16-13.92,1.92-11.19,12.83-10.9,21.37,2.24,66.12-4.87,132.36,3.58,198.44,2.13,16.66-2.71,31.02-25.43,29.47-42.58-2.91-85.64,5.09-127.93-5.47Z"/>
  <path class="cls-1" d="M3668.43,794.67c-67.44,4.46-134.31-5.87-201.51-7.49-13.85-.33-19.61-4.47-19.22-19.28,.99-37.83,1.46-75.73,.27-113.54-.58-18.63,9.52-16,20.85-14.35-14,40.75-11.15,82.96-10.73,124.93,.14,13.58,10.54,11.8,19.66,13.09,55.4,7.86,111.11,5,166.73,5.56,9.19,.09,21.45-4.36,23.94,11.08Z"/>
  <path class="cls-2" d="M3192.82,755.5c.59-153.33,1.08-306.67,1.87-460,.1-20.26,1.7-40.52,2.6-60.77,7.02,5.41,5.39,13.21,5.39,20.38,.05,159.35,.06,318.69-.13,478.04-.01,8.45,3.75,19.4-9.74,22.35Z"/>
  <path class="cls-1" d="M1040.78,817.43q-60.76,12.68-60.47-48.49c.14-31.3,.21-62.59,.41-93.89,.06-10.09-1.93-22.19,15.21-17.75-8.5,41.03-3.18,82.69-5.83,123.94-1.59,24.77,6.99,33.56,30.87,30.1,7.04-1.02,14.86-1.25,19.81,6.09Z"/>
  <path class="cls-1" d="M1073.79,500.76c-25.59,1.96-51.2,3.68-76.76,5.98-11.05,.99-17.18-1.33-16.97-14.32,.68-42.23,.58-84.46,.75-126.7,.03-6.61,2.52-10.41,9.79-9.24,0,36.49,1.05,73.03-.39,109.47-.92,23.3,8.49,30.11,30.61,29.75,17.54-.28,36.3-6.18,52.96,5.06Z"/>
  <path class="cls-2" d="M3551.82,494.25c-33.09,1.15-75.17,11.93-96.52-5.86-20.62-17.18-6.48-60.59-6.21-92.36,.12-14.17-10.31-32.3,8.44-43.46,.03,34,1.76,68.12-.48,101.98-1.68,25.43,7.84,32.56,31.39,29.96,15.44-1.7,31.21-.32,46.84-.39,7.65-.04,15.07,.14,16.54,10.13Z"/>
  <path class="cls-2" d="M268.56,539.73c.04,66.37,.08,132.75,.11,199.12-9.95-1.73-9.8-9.27-9.8-16.83,.02-55.13,0-110.26-.02-165.39,0-7.55-.24-15.12,9.71-16.9Z"/>
  <path class="cls-1" d="M3502.22,639.49c40.6-5.75,80.81,2.11,121.22,3.4-.07,5.75-1.25,13.24-7.98,11.58-32.61-8.03-65.65-2-98.37-4.35-7.07-.51-11.76-4.5-14.86-10.63Z"/>
  <path class="cls-2" d="M1816.99,578.39c1.67,96.01,2.82,192.01-.35,288.01-6.92-5.4-5.4-13.14-5.4-20.3-.04-82.53-.02-165.06,.07-247.58,0-7.15-1.52-14.92,5.69-20.13Z"/>
  <path class="cls-1" d="M1034.4,654.49c31.74-6.27,64.11-6.92,96.05-5.93,18.01,.56,22.55-4.96,21.89-20.37,11.16,12.48,6.68,32.96-6.45,29.97-35.12-7.99-68.68,7.24-102.96,2.38-3.07-.43-5.7-3.96-8.53-6.06Z"/>
  <path class="cls-1" d="M1157.13,806.15c-29.32,6.18-59.02,8.51-88.91,9.03,28.25-16.68,57.81-20.49,88.91-9.03Z"/>
  <path class="cls-1" d="M1193.9,954.64c1.39-25.66,2.78-51.32,4.17-76.98,14.82,20.58,12.36,66.06-4.17,76.98Z"/>
  <path class="cls-1" d="M1198.19,861.08c-.46-20.48-.92-40.96-1.38-61.44,17.07,20.11,14.92,40.64,1.38,61.44Z"/>
  <path class="cls-2" d="M1816.96,450.88c.01,36.9,.02,73.8,.03,110.7-9.52-36.9-9.42-73.8-.03-110.7Z"/>
  <path class="cls-1" d="M1816.08,877.69c5.8,11.18-13.3,22.81,.61,33.85-2,8.32-6.64,13.5-11.28,2.85-6.1-14.01-5.47-28.15,10.67-36.7Z"/>
  <path class="cls-1" d="M2969.9,771.66c-13.27-.1-25.08-4.43-35.64-12.35,13.79-1.4,27.82-3.48,35.64,12.35Z"/>
  <path class="cls-1" d="M1196.07,799.18c-11.2,2.14-22.4,4.28-33.6,6.42,9.44-11.34,19.55-19.21,33.6-6.42Z"/>
  <path class="cls-1" d="M3027.51,758.23c-7.53,9.86-17.71,14.03-29.89,13.88,5.01-15.3,17.52-14.44,29.89-13.88Z"/>
  <path class="cls-1" d="M999.97,657.07c5.99-2.5,12.1-3.44,18.43-1.38-5.64,7.23-11.9,6.09-18.43,1.38Z"/>
  <path class="cls-2" d="M1816.98,417.63c0,1.77,0,3.54,0,5.31-.73-1.26-1.57-2.48-2.08-3.82-.08-.2,1.35-.98,2.08-1.49Z"/>
  <path class="cls-1" d="M2932.28,758.04s-1.3-.87-1.3-.87c.95-.97,1.9-1.94,2.85-2.92-.51,1.26-1.03,2.53-1.54,3.79Z"/>
  <path class="cls-4" d="M4433.68,489.62c-1.34-27.97,3.73-55.15,11.67-81.66,10.71-35.81,33.8-55.76,63.24-56.65,31.21-.94,54.5,17.77,67.78,54.75,10.39,28.93,14.42,59.28,15.83,89.55,4.63,99.48,7.89,199.03-3.24,298.37-2.06,18.39-5.48,36.56-12.85,53.54-11.28,25.97-28.18,45.73-59.34,46.39-31.81,.68-51.71-16.9-63.92-44.22-14.11-31.57-19.2-65.14-19.14-99.56,5.87-4.6,5.42-11.17,5.42-17.57,0-75.13,0-150.25,0-225.38,0-6.41,.44-12.97-5.45-17.56Z"/>
  <path class="cls-1" d="M4433.68,489.62c5.89,4.59,5.45,11.15,5.45,17.56,0,75.13,0,150.25,0,225.38,0,6.4,.46,12.97-5.42,17.57-6.9-86.83-6.4-173.67-.03-260.51Z"/>
  <path class="cls-1" d="M3906.09,448.09c-.01-26.73,.5-53.48-.24-80.19-.35-12.63,2.66-18.88,16.74-17.51,12.8,1.25,25.81,.18,38.68,.93,37.16,2.16,61.98,21.71,72.78,57.19,8.58,28.21,7.62,56.58-1.12,84.42-10.72,34.18-35.18,50.37-76.2,52.06q-50.66,2.08-50.63-47.13c0-16.59,0-33.18,0-49.78Z"/>
  <path class="cls-1" d="M1469.77,347.69c37.89,.03,71.81,5.38,87.14,43.33,16.48,40.79,14.67,81.62-10.96,118.51-16.03,23.08-78.67,39.33-104.71,30.61-9.34-3.13-6.81-9.77-6.82-15.51-.17-53.5-.47-107,.14-160.49,.36-31.33,25.93-8.5,35.21-16.44Z"/>
  <path class="cls-4" d="M2056.07,520.56c-2.16,.79-4.33,1.57-6.49,2.36-15.68-13.83-31.19,1.91-47.18,.84-18.72-1.24-25.98-5.75-25.32-25.46,1.32-39.52,1.17-79.14,.05-118.67-.52-18.44,6.3-23.94,24.03-23.58,14.16,.29,29.43,5.26,42.76-4.44,8.99-.19,16.45,3.13,22.49,9.73,2.49,1.84,4.98,3.68,7.47,5.53,1.37,1.26,2.75,2.53,4.12,3.79,2,2.47,4,4.94,6,7.41,0,0-.32-.44-.32-.44,3.78,41.89,10.05,83.87-4.02,125.19-.35-.52-.7-1.05-1.05-1.57,.32,.54,.64,1.07,.96,1.61-3.94-.21-5.8,1.63-5.52,5.59-.41-.52-.83-1.05-1.24-1.57,.39,.54,.78,1.08,1.16,1.62-3.8-.46-5.94,1.26-6.56,4.98,0,0,.32-.27,.32-.27-6.02-.92-10.68,.3-11.67,7.35Z"/>
  <path class="cls-1" d="M2043.93,351.61c-13.33,9.7-28.6,4.73-42.76,4.44-17.73-.36-24.55,5.15-24.03,23.58,1.12,39.53,1.27,79.15-.05,118.67-.66,19.71,6.6,24.22,25.32,25.46,15.99,1.06,31.49-14.67,47.18-.84-22.51,11.36-46.83,6.03-70.39,7.54-11.58,.75-10.1-7.83-10.11-15.13-.07-50.58-.14-101.16-.22-151.74-.01-8.59-.34-17.18,12.33-16.52,20.95,1.1,42.34-3.98,62.75,4.54Z"/>
  <path class="cls-1" d="M2079.68,502.83c14.07-41.32,7.8-83.29,4.02-125.19,24.92,36.38,23.23,89.07-4.02,125.19Z"/>
  <path class="cls-1" d="M2056.07,520.56c.99-7.06,5.65-8.28,11.67-7.35-3.89,2.45-7.78,4.9-11.67,7.35Z"/>
  <path class="cls-1" d="M2074.07,508.46c-.28-3.96,1.58-5.79,5.52-5.59-1.84,1.86-3.68,3.73-5.52,5.59Z"/>
  <path class="cls-1" d="M2067.43,513.48c.62-3.72,2.77-5.44,6.56-4.98-2.19,1.66-4.38,3.32-6.56,4.98Z"/>
  <path class="cls-1" d="M2573.38,410.23c16.44,78.31,31.4,150.16,46.72,221.93,2.44,11.42-1.41,15.49-12.47,14.11-.91-.11-1.85,.03-2.77-.01-25.66-1.21-60.04,10.55-74.49-4.89-12.99-13.88,6.25-46.01,10.63-70.2,4.77-26.33,10.19-52.54,15.48-78.77,5.08-25.22,10.36-50.41,16.9-82.16Z"/>
</svg>