<?xml version="1.0" encoding="utf-8"?>
<!-- Generator: Adobe Illustrator 26.5.0, SVG Export Plug-In . SVG Version: 6.00 Build 0)  -->
<svg version="1.1" id="Capa_1" xmlns="http://www.w3.org/2000/svg" xmlns:xlink="http://www.w3.org/1999/xlink" x="0px" y="0px"
	 viewBox="0 0 5000 3832.36" style="enable-background:new 0 0 5000 3832.36;" xml:space="preserve">
<style type="text/css">
	.st0{fill:#072B19;}
	.st1{fill:#103424;}
	.st2{fill:#113424;}
	.st3{fill:#0F0E09;}
	.st4{fill:#4A4D26;}
	.st5{fill:#F9F9F9;}
	.st6{fill:#0A2D1B;}
	.st7{fill:#0D2F1C;}
	.st8{fill:#FAF3E3;}
	.st9{fill:#0A0C06;}
	.st10{fill:#F9F3E4;}
	.st11{fill:#FCFCFC;}
	.st12{fill:#686636;}
	.st13{fill:#FAB668;}
	.st14{fill:#DB8C46;}
	.st15{fill:#75939B;}
	.st16{fill:#271D0F;}
	.st17{fill:#E49816;}
	.st18{fill:#F6C044;}
	.st19{fill:#F9F6EE;}
	.st20{fill:#FAF8F5;}
	.st21{fill:#5B727C;}
</style>
<g>
	<path class="st9" d="M111.92,3239.57c-19.12-3.65-38.83,16.92-57.59-1.4c31.94-151.74,70.96-301.59,121.99-448.09
		c7.52-21.59,8.1-40.69,1.59-62.13c-25.39-83.65-38.66-169.15-38.53-256.82c0.09-54.76,11.52-105.74,43.06-151.1
		c16-23.01,23.04-48.17,24.66-76.04c2.37-40.55,10.33-79.86,37.9-112.09c5.35-6.26,5.01-13.79,6.8-20.9
		c28.39-3.24,43.93-16.05,46.14-47.57c1.76-25.13,2.93-51.45,15.12-75.22c8.57-16.71,28.27-24.07,34.16-42.64
		c23.02-12.35,45.82-28.42,72.22-28.47c37.76-0.08,51.12-20.56,62.97-52.63c30.4-82.27,92.83-121.23,180.81-117.52
		c18.62,0.78,37.64,2.36,55.55,7.07c15.1,3.98,21.87,0.13,27.89-13.33c31.66-70.84,63.86-141.43,96.23-211.95
		c4.6-10.02,5.43-19,1.56-29.53c-11.59-31.5-6.76-61.36,14.38-87.03c9.89-12.01,10-21.21,3.82-34.79
		c-27.09-59.53-35.81-122.31-23.67-186.45c31.42-165.92,183.26-273.94,356.11-255c166.49,18.25,285.95,160.34,271.87,326.87
		c-11.51,136.18-84.71,228.06-210.62,278.72c-12.67,5.1-21.92,7.76-21.78,25.92c0.47,61.38-34,88.17-94.25,76.26
		c-5.94-1.17-13.58-8.02-17.68-0.39c-7.91,14.73-15.37,30.17-19.71,46.21c-3.27,12.09,10.85,15.75,18.01,22.09
		c22.11,19.58,28.9,42.2,18.29,70.41c-10.52,27.98-26.96,46.67-59.57,45.44c-7.09-0.27-14.95-2.9-21.45,2.76
		c31.37,95.25,22.34,112.02-67.96,126.41c0.23,18.63,6.16,23.57,25.56,16c36.15-14.11,73.84-13.08,109.62,2.03
		c48.84,20.62,84.58,55.66,87.79,110.32c5.06,86.11-4.03,171.62-63.75,239.55c-27.05,30.77-46.58,61.81-53.82,101.41
		c-1.84,10.08-4.78,19.99-7.61,29.86c-16.24,56.62-34.87,112.84-67.89,161.79c-43.18,64-102.59,111.12-171.45,145.47
		c-20.49,10.22-30.53,25.09-36.79,45.93c-19.54,65.09-5.79,128.99,3.61,196.53c30.65-20,60.95-34.01,93.35-43.08
		c9.21-2.58,13.08-9.17,16.6-17.29c12.8-29.57,33.8-54.47,63.19-64.74c47.9-16.73,71.41-53.32,92.21-94.54
		c5.04-9.99,11.29-19.37,17.05-28.98c95.71-159.76,220.71-285.1,397.28-356.63c166.36-67.39,335.1-127.52,505.37-183.74
		c20.6-6.8,36.02-16.9,48.63-34.62c27.73-38.95,58.37-75.95,95.69-105.97c17.67-14.21,16.98-22.12,2.52-37.96
		c-82.72-90.61-136.5-195.3-154.93-317.9c-13.91-92.57-27.52-185.14-36.48-278.31c-5.67-59.02-4.54-118.17,10.98-175.67
		c8.63-31.95,8.44-62.37,0.16-93.86c-18.04-68.59-22.38-138.13-15.15-208.78c2.25-22.03,16.39-50.72,3.52-64.4
		c-12.24-13.02-42.14-8.81-63.97-13.54c-97.93-21.2-188.18-57.41-254.53-136.95c-65.22-78.19-66.75-177.32-4.99-258.2
		c32.42-42.46,73.79-73.98,121.37-97.64c105.34-52.37,217.77-64.72,333.21-56.88c23.06,1.57,36.13-4.55,50.06-23.71
		c141.39-194.49,334.89-283.61,573.29-275.91c185.96,6.01,355.91,65.38,510.12,167.72c151.73,100.69,265.37,232.35,315.33,411.71
		c43.34,155.58,41.58,310.34-10.73,463.71c-6.6,19.36-7.9,36.36,2.26,55.7c15.38,29.27,21.28,61.81,21.37,94.92
		c0.34,124.33-48.87,228.72-131.87,318.17c-16.2,17.46-25.67,32.54-24.48,57.52c1.83,38.34-21.26,72.96-52.11,72.16
		c-42.33-1.1-33.71,22.71-31.17,46.7c0.99,9.31,3.24,18.72,2.57,27.91c-1.41,19.46,6.81,26.56,25.78,24.88
		c62.08-5.5,99.19,25.06,122.9,80.69c30.76,72.18,67.56,141.56,106.71,209.63c7.82,13.6,17.42,22.1,32.9,27.55
		c91.72,32.29,183.56,64.38,274.21,99.51c213.4,82.7,425.67,168.22,633.68,263.92c8.81,4.05,20.36,16.15,24.39-5.06
		c13.87,34.73,42.2,51.74,76.02,62.01c0.71,5.6,1.79,10.76,6.62,14.81c104.64,87.71,168.11,203.75,222.21,325.77
		c54.93,123.87,101.36,250.86,133.3,382.81c-18.49,15.84-37.39,0.44-56.09,0.74c-0.65-8.32,0.18-17.08-2.15-24.91
		c-43.66-146.98-94.24-291.36-163.33-428.66c-71.12-141.34-170.18-253.61-321.48-313.13c-29.72-11.69-58.37-11.21-87.73-5.1
		c-95.15,19.82-167.59,76.75-228.55,148.17c-140.71,164.85-196.83,361.38-208.29,573.66c-1.74,16.68-3.49,33.37-5.23,50.05
		c-15.06-0.01-30.11-0.03-45.17-0.04c-7.52-26.57-12.88-53.55-18.2-80.65c-4.34-22.13-2.79-47.17-19.93-65.81
		c-0.26-3.55-0.52-7.09-0.77-10.64c11.71-21.93-4.5-38.23-11.36-56.42c-11.07-15.59-6.66-34.34-8.69-51.28
		c-4.49-37.43-17.97-74.29-12.08-118.63c12.39,18.81,20.59,32.83,22.06,49.92c-1.91,7.53-0.01,14.43,2.22,21.75
		c21.71,71.08,39.27,143.24,56.75,215.82c-2.84-30.33,12.71-57.69,13.02-87.45c1.7-7.26,3.67-14.47,5.05-21.79
		c31.82-168.67,98.19-320.7,213.38-450.1c33.06-37.13,71.3-67.81,113.01-99.74c-18.57-9.23-33.93-17.71-49.94-24.7
		c-191.9-83.78-387.03-159.07-585.96-224.65c-25.96-8.56-36.99-2.85-50.35,19.68c-72.48,122.16-142.79,245.74-223.21,362.97
		c-34.78,50.7-69.32,102.78-129.86,127.83c-11.35-5.91-24.6-7.91-33.25-19.22c-47.58-62.28-104.67-115.73-159.87-170.91
		c-6.5-6.5-12.1-14.31-21.58-17.19c-44.7-13.57-107.68,16.33-128.31,60.95c-17.33,22.07-35.83,43.74-61.52,55.57
		c-57.39,26.43-115.21,52.07-173.78,75.74c-39.99,16.16-40.72,14.43-39.7,58.69c0.11,4.65,0.69,9.28,1.06,13.92
		c-2.94,11.68-5.17,23.59-8.94,35c-18.62,56.43-39.15,112.28-56.16,169.19c-22.62,75.71-35.74,153.47-43.2,232.15
		c-7.68-0.12-15.36-0.23-23.04-0.35c6.54-79.73,18.25-158.59,39.47-235.88c17.43-63.52,34.55-127.13,51.81-190.7
		c14.11-17.32,19.91-37.87,26.2-61.22c-64.39,23.59-122.48,52.42-180.27,81.95c-7.82,3.99-14.56,8.39-15.06,18.21
		c-14.72,9.73-29.43,19.46-44.15,29.19c-0.67-0.7-1.34-1.39-2.03-2.07c0.13-10.31,7.08-16.92,13.02-24.1
		c34.47-41.65,76.5-73.49,124.59-98.04c95.03-48.51,197.31-80.37,292.51-128.69c30.38-15.42,50.76-34.87,62.01-67.39
		c13.11-37.89,27.46-75.67,48.02-110.47c19.49-33,40.36-37.21,70.39-14.14c74.39,57.14,142.59,120.84,203.26,192.5
		c66.32,78.33,69.84,77.76,131.05-8.32c43.93-61.79,84.07-125.97,123.15-190.83c55.95-92.87,111.4-186.04,166.39-279.48
		c7.52-12.78,20.46-25.39,9.16-43.43c-51.22-81.79-91.73-169.11-132.42-256.39c-8.16-17.5-22.26-30.56-48.57-23.37
		c23.05,19.22,20,39.77,10.73,60.63c-12.98,29.22-30.21,55.98-50.22,80.81c-84.98,105.45-186.01,195.02-289.5,280.87
		c-207.83,172.42-417.79,342.35-640.47,495.78c-79.34,54.66-133.81,129.11-164.8,220.72c-30.1,88.98-42.7,181.36-54.84,273.88
		c-15.72,0.01-31.44,0.01-47.16,0.02c4.27-30.47,7.89-61.06,12.92-91.4c17.14-103.46,37.66-205.96,94.34-296.82
		c5.52-8.84,6.54-17.07,4.26-26.51c10.69-18.83-4.33-32.32-10.51-47.24c-7.09-17.1-16.57-33.19-24.46-49.98
		c-3.78-8.03-4.96-17.94,3.67-22.61c12.23-6.62,13.12,6.85,16.29,12.99c10.32,20.03,12.36,42.74,19.13,63.91
		c3.31,10.35,8.88,28.26,22.7,20.43c10.89-6.17,27.71-19.11,14.78-38.97c-18.84-28.96-40.33-56.28-66.7-78.02
		c-34.33-28.29-71.01-53.76-108.67-77.88c-30.45-19.5-56.01-44.37-50.07-86.42c0.74-5.25-1.23-11-2.5-16.38
		c-3.15-13.37-6.68-19.81-21.51-7.69c-36.72,30-72.06,61.45-105.13,95.29c-20.59,21.07-44.92,38.6-61.48,63.55
		c-32.81-5.13-52.68-39.13-47.39-78.43c7.54-56.06,41.39-99.6,68.82-145.96c30.8-52.05,64.17-102.59,96.71-154.25
		c-11.21-4.95-20.14,0.5-28.18,3.37c-164.43,58.81-331.37,111.02-489.91,185.37c-73.74,34.58-137.99,82.58-193.06,142.03
		c-65.09,70.27-118.44,149.28-163.09,233.95c-14.85,28.15-31.87,51.34-65.06,59.83c-13.05,3.34-25.07,12.58-36.22,20.92
		c-12.52,9.36-26.96,19.02-24.03,38.11c2.86,18.61,19.25,20.74,33.33,25.4c3.11,1.03,7.71,0.95,5.96,9.8
		c-14.52,0.68-30.06,0.7-45.44,2.25c-47.92,4.81-94.54,13.47-131.28,48.7c-7.11,6.82-11.76,13.98-10.03,24.63
		c1.61,9.88,8.37,10.72,16.1,11.99c106.27,17.48,185.59,79.14,255.52,156.14c-21.14-0.01-42.28-0.03-63.42-0.04
		c-51.82-55.37-112.2-96.57-187.29-113.76c-9.33-2.14-15.85-1.96-12.27,9.56c10.5,33.79,5.08,70.18,17.44,103.6
		c-18.82,3.56-37.58,7.49-56.49,10.51c-9.3,1.48-20.78,6.52-24.49-8.75c5.72-0.67,11.43-1.34,17.15-2.01
		c3.59,1.29,6.08,0.59,6.62-3.65c-14.58-109.11-41.16-216.4-49.88-326.41c4.23-31.25,0.7-63.25,9.34-94.1
		c1.35-4.81,3.13-14.38-5.06-11.54c-25.05,8.69-59.87,5.2-73.68,27.19c-28.5,45.38-66.92,76.12-112.48,100.6
		c-16.58,2.48-31.83,12.14-53.5,9.84c8.96-5.93,14.77-9.78,20.58-13.62c4.8-0.51,8.95-2.05,11-6.92c0,0-0.14,0.11-0.14,0.11
		c67.91-42.48,112.56-100.3,119.6-184.2c3.18,2.92,5.64,4.33,6.88,6.46c7.64,13.08-0.44,36.69,15.27,40.49
		c12.9,3.12,29.54-8.28,44.27-13.93c12.85-4.93,27.2-6.53,37.97-16.33c147.95-53.72,240.09-156.78,276.14-310.38
		c7.97-33.97,13.95-68.74,28.89-100.81c10.22-9.28,20.69-18.29,30.6-27.89c22.79-22.08,42.53-46.06,46.25-79.32
		c11.09-37.34,21.53-74.99,22.95-114.1c3.15-87-72.72-139.93-154.05-108.38c-11.89,4.61-19.72,9.98-22.04,24.99
		c-6.44,41.71-28.44,74.5-63.76,98.17c-15.72,10.54-22.51,24.07-13.35,42.89c4.47,9.18,7.51,19.06,11.2,28.62
		c0.22,21.45,13.99,33.64,30.51,43.38c49.38,29.14,109.81,18.08,148.55-26.83c6.95-7.8,13.9-15.61,20.98-23.56
		c7.59,10.17-7.19,19.51,1.41,28.47l0.9,0.23c-6.35-2.83-5.79,2.77-7.22,5.93c-11.31,25.46-27.6,45.75-54.51,56.59
		c-36.93,14.87-74.58,19.08-111.73,4.19c-18.75-7.52-24.99-3.17-31.94,14.48c-15.61,39.65-43.89,69.55-82.31,87.63
		c-15.25,7.18-18.89,16.29-21.27,31.38c-10.41,65.99-46.05,113.45-109.59,136.5c-14.59,5.29-23.12,11.85-29.59,25.62
		c-21.29,45.27-50.08,83.26-102.55,95.36c-49.44-0.44-82.41-30.89-113.57-63.58c-12.41-13.02-22.31-20.81-42.73-13.73
		c-21.76,7.55-45.98,10.27-75.25,3.37c25.24-12.43,48.89-17.42,63.43-38.34c-24.62-25.47-57.81-42.48-84.91-76.04
		c37.61,7.89,62.99,23.92,90.34,35.05c41.18,27.57,75.45,63.43,113.65,94.55c26.8,21.84,47.87,22.22,71.5,5.13
		c44.68-32.32,58.71-88.69,34.73-139.52c-8.76-32.37-27.7-56.98-57.38-72.52c-47.16-24.69-94.91-48.28-141.9-73.29
		c-14.51-7.73-30.22-15.73-38.09-37.07c58.4,17.52,110.4,40.05,162.97,61.46c65.39,26.62,108.68,71.47,126.16,139.84
		c3.9,15.27,10.55,14.4,21.37,9.45c39.91-18.27,61.94-50,68.62-92.6c9.35-59.65-31.34-173.79-106.61-203.94
		c-54.63-21.89-108.42-45.91-162.4-69.39c-8.43-3.67-19.05-5.19-25.23-17.93c57.23,5.39,108.26,23.17,159.96,39.2
		c84.48,26.18,139.18,81.41,165.83,164.6c6.73,20.99,14.95,20.85,30.86,10.13c40.58-27.32,60.53-74.3,46.81-121.77
		c-22.65-78.36-51.26-153.62-132.91-191.12c-81.05-37.23-165.22-66.66-252.74-82.63c-103.44-18.87-166.75,23.98-166.75,124.6
		c0,0.93-0.23,1.87-0.19,2.8c0.73,17.5-6.72,30.99-21.25,40.06c-47.5,29.66-66.02,74.08-66.83,128.1
		c-0.52,34.55-10.27,65.82-31.64,93.85c-24.05,31.56-33.04,68.54-33.53,107.86c-1.83,148.64,31.37,289.02,98.5,421.59
		c2.31,4.57,15.42,11.13,1.35,17.95c-22.87-18.66-44.55-38.56-63.45-66.19c-23.52,62.44-40.24,122.31-55.89,182.48
		C145.66,3084.9,123.9,3161.1,111.92,3239.57z M1758.59,783.98c-1.94-1.79-3.89-3.58-5.84-5.36c-3.41-2.36-6.82-4.72-10.23-7.07
		c-3.64-4.18-6.81-8.9-10.98-12.46c-97.84-83.6-95.18-187.31,8.17-263.06c82.32-60.34,178.53-75.89,276.69-73.2
		c130.37,3.57,250.28,45.55,363.12,111.1c88.75,51.55,162.94,122.02,246.06,180.82c133.76,94.62,281.95,129.38,443.17,114.31
		c22.02-2.06,45.47-1.95,68.57-13.71c-169.6-118.2-339.59-230.21-530.15-306.18c-212.62-84.76-430.31-144.08-662.72-122.43
		c-81.49,7.59-158,31.01-223.91,80.47c-46.46,34.87-84.49,77.21-87.44,140.29c-3.77,80.6,43.05,129.46,105.6,168.46
		c3.6,1.96,7.21,3.91,10.84,5.84c2.14,1.59,4.28,3.19,6.42,4.78c2.14,2.08,4.27,4.16,6.41,6.24c18.11,10.66,36.08,21.68,56.45,26.45
		c0.99-2.21,1.98-4.43,2.97-6.64c-17.93-8.98-35.86-17.97-53.8-26.95C1764.87,785.09,1761.75,784.52,1758.59,783.98z
		 M2290.93,1191.37c12.43-51.48-15.26-104.89-62.53-120.52c-8.82-2.92-17.5-6.7-26.55-8.37c-52.01-9.63-113.14-29.74-162.99-0.03
		c-47.42,17.55-41.19,32.19-32.89,79.08c5.95,33.6,19.26,66.63,10.49,101.89c-32.7,131.5-19.98,260.7,19.91,388.49
		c-6.06,2.4-8.07,6.3-6.81,13.1c3.23,17.34,5.82,34.81,8.38,52.28c6.48,44.21,12.64,88.54,30.07,130.13
		c2.42,5.77,2.06,20.24,10.99,15.56c21.31-11.17,13.35,6.6,15.42,13.58c3.67,12.43,5.62,25.4,9.85,37.61
		c1.22,3.51,1.28,20.65,13.24,5.04c6.54-8.54,8.19,1.71,9.79,5.64c8.81,21.55,18.74,42.82,25.33,65.06
		c7.32,24.72,42.31,22.63,45.81,50.13c0.26,2.06,6.87,5.66,8.93,4.79c16.16-6.87,19.14,7.71,24.85,15.67
		c6.06,8.44,11.23,20.25,20.49,22.19c36.19,7.59,59.9,35.76,90.79,51.67c14.15,7.29,27.24,19.18,46.31,17.01
		c-2.79-19.06-22.9-30.9-17.38-53.97c20.09,16.53,31.68,38.99,54.6,49.24c5.32-18.35-11.1-33.61-3.63-55.25
		c10.44,18.7,22.63,30.13,34.9,41.33c13.34,12.18,28.77,22.29,47.57,20.34c27.55-2.86,56.07-3.57,79.48-22
		c5.1-4.02,11.98-10.49,17.16-6.63c17.28,12.87,31.21,0.74,43.5-6.34c37.98-21.88,72.9-48.05,104.78-78.66
		c24.73-23.75,43-52.42,64.6-81.77c4.36,13.28,3.66,22.37,0.83,31.39c-2.2,7.02-7.08,16.33,0.67,20.22
		c9.41,4.73,14.9-6.02,19.39-12.16c18.7-25.55,38.4-50.45,52.5-79.16c9.79-19.94,20.9-39.24,31.42-58.83
		c4.61,12.3,4.99,22.6,3.19,32.5c-1.94,10.64-9.88,23.37,3.29,29.65c13.84,6.6,23.05-6.18,29.11-16.08
		c20.42-33.36,41.62-66.57,57.99-101.94c7.02-15.18,19.65-12.01,28.58-16.37c11.17-5.46-6.16,15.89,7.69,15.7
		c25.33-27.32,31.39-64.66,49.83-98.46c5.74,12.33-6.34,21.47,6.1,32.12c17.91-38.91,35.92-76.89,43.56-117.7
		c17.6-94.04,26.04-189.33,34.92-284.59c3.87-41.53,3.04-83.12,5.44-124.15c12.18-2.55,8.97,15.14,20.52,11.89
		c33.17-89.89,93.61-145.39,195.75-147.91c-11.54-17.61-22.62-30.99-34.51-44.09c-50.48-55.63-109.49-101.2-169.1-146.18
		c-11.14-8.4-21.86-12.17-36.12-6.05c-26.75,11.47-55.61,14.75-84.29,18.1c-5.6,0.27-11.22,0.3-16.79,0.85
		c-152,15.12-293.38-16.08-423.52-96.77c-69.28-42.96-132.64-93.88-195.03-145.96c-19.57-16.33-40.18-25-65.65-26.35
		c-64.16-3.4-127.33,2.12-188.07,22.9c-86.46,29.58-150.83,81.34-166.24,178.01c-21.17,68.7-27.84,139.49-32.68,210.47
		c6.85,1.25,8.43-2.55,10.9-5.19c57.9-61.85,171.74-70.73,238.2-18.61c12.71,9.97,25.11,21.99,29.12,36.91
		c9.73,36.21,30.58,67.69,40.92,103.45c9.29,32.14,9.68,64.41,2.6,96.9c-11.43,52.45-29.61,101.91-63.04,144.89
		c-8.41,10.81-18.56,22.33-7.88,37.63c-0.07,29.34,27.67,40.82,39.95,62.24c-50.87-5.27-80.23-60.35-54.58-104.38
		c20.24-34.73,40.79-69.07,49.07-109.08C2288.82,1240.31,2297.17,1217,2290.93,1191.37z M1291.85,1009.4
		c-1.6-6.18-7.15-6.8-11.95-8.48c-57.22-29.64-117.28-36.41-179.92-22.27c-51.68,7.18-95.87,30.51-134.38,64.57
		c-95.8,84.74-117.32,214.23-56.58,337.46c6.31,12.81,13.59,23.12-2.04,36.02c-27.01,22.29-34.12,50.62-16.06,82.36
		c6.47,11.38,3.41,20.62-1.59,31.34c-29.18,62.62-57.88,125.45-86.49,188.33c-23.93,52.59-23.77,52.66,32.84,71.81
		c13.27,8.6,27.61,15.93,39.55,26.1c15.36,13.08,20.46,6.66,27.09-8.56c41.31-94.81,83.07-189.43,125.69-283.66
		c6.5-14.36,7.83-41.44,31.86-34.02c28.33,8.74,5.98,31.1,5.84,47.52c-49.02,101.49-93.5,204.99-136.46,309.16
		c-1.32,3.21-2.28,7.32-1.48,10.54c8.29,33.75,48.53,61.06,83.08,56.75c20.91-2.61,30.29-17.56,22.48-37.59
		c-5.76-14.75-13.66-28.66-19.49-43.39c-6.97-17.61,3.25-41.53,20.42-45.27c11.57-2.53,24.22-1.62,36.2-0.39
		c15.57,1.59,23.67-5.26,30.3-18.68c7.24-14.65-0.41-22.9-9.55-31.4c-36.99-34.42-37.05-34.39-18.74-80.85
		c3.76-9.55,7.61-19.08,11.71-28.49c13.99-32.08,21.12-35.44,56.17-26.91c48.26,11.75,59.62,1.58,52.7-48.26
		c-2.86-20.59,2.61-34.26,24.57-39.67c138.61-34.16,226.41-169.43,208.22-304.64c-11.83-87.93-52.35-158.41-134.05-200.47
		L1291.85,1009.4z M2203.59,2104.67c-8.86-9.74-16.52-3.55-24.66,1.5c-13.7,8.5-25.11,19.59-35.52,31.59
		c-108.32,124.82-196.45,263.45-277.43,406.91c-7.15,12.66-12.53,26.15-2.71,46.56c13.36-15.09,23.86-28.12,35.58-39.94
		c36.84-37.18,73.08-75.2,115.76-105.83c29.76-21.36,59.53-9.39,67.93,25.88c4.33,18.15,8.58,36.4,11.24,54.85
		c3.35,23.19,15.3,37.77,35.64,49.86c65.56,39.01,124.36,86.2,168.56,149.68c4.64,6.67,7.7,17.54,23.81,14.97
		c-16.6-55.41-45.43-104.59-64.98-157.37c1.65-11.6-3.12-21.6-6.73-32.28c-21.94-64.85-34.11-130.85-22.15-199.67
		c9.33-53.72,39.13-103.5,24.37-162.15C2243.69,2155.11,2246.9,2117.52,2203.59,2104.67z M3210.76,1533.86
		c9.71,21.64,24.77,37.72,48.74,42.32c17.19,3.3,33.82,5.02,20.09-22.39c-7.78-15.55-4.98-32.49,11.94-41.31
		c17.07-8.9,31.68,2.03,36.63,15.97c12.94,36.4,28.48,18.14,43.9,4.12c69.11-62.83,106.3-143.24,126.09-232.72
		c11.14-50.4,9.3-100.28-10.8-148.65c-13.13-31.58-35.54-51.47-69.53-58.99c-95.69-21.15-187.45,66.41-204.46,165.87
		c-14.69,85.89-8.94,175.28-12.22,263.12c-2.04,13.84-4.77,27.62-6.01,41.52c-8.17,91.57-36.63,176.87-93.53,248.59
		c-128.89,162.45-288.63,286.71-480.68,366.7c-63.48,26.44-130.75,38.49-200.22,28.15c-43.71-6.51-83.84-23.51-127.44-47.48
		c13.57,111.93,26.53,218.78,39.49,325.62c-26.81-39.03-46.35-80.1-60.72-123.94c-6.5,24.7-8.39,48.46-2.86,72.37
		c4.68,77.88,33.36,149.04,62.2,220.05c24.56,60.47,24.95,60.28,79.52,22.9c187.78-128.65,363.98-272.33,539.33-417
		c112.66-92.95,221.73-190.04,317.26-301.18c7.03-8.18,17.01-15.03,15.61-28.37c-8.54-81.79-16.88-163.61-25.28-245.42
		c0.1-10.14,0.24-20.27,0.28-30.41c0.09-20.44-0.82-37.21-25.69-47.6C3206.19,1594.77,3201.37,1568.64,3210.76,1533.86z
		 M3178.73,234.26c-1.32-0.62-2.64-1.24-3.96-1.85c0.5,1.45,1,2.9,1.5,4.35c5.53,42.56,12.43,85.27,10.84,128.13
		c-4.59,123.73-29.1,244.31-62.85,363.08c-4.41,15.51-1.28,24.02,11.9,32.44c22.82,14.57,44.81,30.48,66.77,46.35
		c80.39,58.07,159.91,117.15,222.33,195.67c16.99,21.37,34.4,42.41,52.96,65.27C3582.1,773.08,3492.27,418.12,3178.73,234.26z
		 M3155.32,288.95c-0.36-19.66-0.72-39.17-3.37-58.77c-1.72-12.73-6.89-19.93-17.97-25.65c-181.9-93.9-371.97-147.01-578.21-109.93
		c-152.76,27.47-275.87,105.62-371.08,228.14c-14.63,18.82-9.12,23.65,12.47,25.45c27.82,2.32,55.62,6.73,83,12.34
		c222.08,45.45,428.39,130.92,622.18,247.44c55.28,33.23,109.41,68.38,164.01,102.73c10.95,6.89,18.01,10.63,22.81-7.7
		C3124.74,567.08,3150.9,429.78,3155.32,288.95z M2335.31,558.59c-23.71-17.47-45.06-30.05-67.86-39.79
		c-104.79-44.74-212.35-72.7-328.11-59.45c-66.84,7.65-130.06,22.87-184.91,63.77c-79.77,59.47-84.39,139.42-16.37,206.99
		c48.03,47.71,104.35,80.65,168.88,100.58c60.02,18.54,59.38,18.91,74.99-41.66c24.59-95.41,82.43-160.53,175.83-194.81
		C2213.84,573.65,2271.96,565.22,2335.31,558.59z M670.01,1788.89c-51.09-1.16-83.03,5.9-109.98,29.77
		c-26.43,23.4-37.1,55.02-49.21,86.58c-8.84,23.03-5.75,32.28,20.86,35.58c61.23,7.6,121.57,20.59,180.04,40.94
		c58.69,20.43,115.33,43.7,153.24,97.49c25.75,36.54,40.01,36.22,68.48,0.28c18.87-23.81,26.58-50.64,19.88-81.36
		c-7.71-35.34-22.28-67.05-44.62-95.48C843.62,1819.87,751.69,1797.33,670.01,1788.89z M4337.29,2433.61
		c-128.64-53.04-249.96-103.93-371.97-153.1c-116.94-47.13-235.01-91.37-354.61-131.36c-19.87-6.64-36.54,5.67-45.4,34.53
		c-6.15,20.02,12.9,16.63,21.71,19.64c207.76,71.14,412.97,148.7,611.08,243.84c31.01,14.89,58.6,17.72,89.25,1.62
		C4300.24,2441.99,4315.64,2439.96,4337.29,2433.61z M3299.83,1529.36c16.33,32.86,21.18,60.88,21.78,89.83
		c0.15,7.06-8.04,19.01,5.75,20.4c17.33,1.75,24.48-12.62,28.19-26.08c2.11-7.65,9.74-23.49-6.07-23.87
		c-15.63-0.38-12.46-9.91-15.25-17.79C3328.92,1556.84,3328.53,1538.33,3299.83,1529.36z"/>
	<path class="st12" d="M3167.07,2745.88c60.54-25.05,95.08-77.13,129.86-127.83c80.42-117.22,150.73-240.81,223.21-362.97
		c13.37-22.53,24.39-28.24,50.35-19.68c198.93,65.58,394.06,140.86,585.96,224.65c16.01,6.99,31.38,15.47,49.94,24.7
		c-41.71,31.93-79.95,62.6-113.01,99.74c-115.19,129.4-181.56,281.43-213.38,450.1c-1.38,7.32-3.35,14.53-5.05,21.77
		c-5.32-3.31-5.78-9.2-7.95-14.3c-19.59-46.09-34.73-94.28-64.03-135.79c-1.47-17.09-9.67-31.11-22.06-49.92
		c-5.89,44.34,7.58,81.21,12.08,118.63c2.03,16.94-2.37,35.69,8.69,51.28c-1.36,19.84,3.84,38.37,11.36,56.42
		c0.26,3.55,0.52,7.09,0.77,10.64c-1.66,39.29,18.68,76.46,13.32,120.36c-60.25-45.9-113.27-94.62-179.21-140.36
		c19.95,63.95,50.92,113.16,73.58,165.99c-426.55,0.15-853.11,0.31-1279.67,0.46c7.46-78.68,20.57-156.44,43.2-232.15
		c17.01-56.91,37.54-112.76,56.16-169.19c3.76-11.41,6-23.32,8.93-35.01c98.57-22.3,192.56-56.27,279.83-108.07
		c33.38-19.81,65.48-43.49,106.57-45.67c37.48,3.95,72,15.67,103.23,37.35c28.12,19.53,56.75,38.36,85.65,56.72
		C3138.37,2752,3152.31,2762.96,3167.07,2745.88z"/>
	<path class="st12" d="M1100.86,3239.57c-69.93-77-149.25-138.67-255.52-156.14c-7.72-1.27-14.49-2.11-16.1-11.99
		c-1.73-10.65,2.92-17.81,10.03-24.63c36.74-35.23,83.36-43.89,131.28-48.7c15.39-1.54,30.92-1.57,45.44-2.25
		c1.75-8.86-2.86-8.77-5.96-9.8c-14.07-4.66-30.47-6.8-33.33-25.4c-2.93-19.09,11.51-28.75,24.03-38.11
		c11.16-8.34,23.18-17.58,36.22-20.92c33.19-8.49,50.21-31.68,65.06-59.83c44.65-84.67,98-163.68,163.09-233.95
		c55.07-59.45,119.32-107.45,193.06-142.03c158.54-74.35,325.49-126.56,489.91-185.37c8.04-2.88,16.97-8.32,28.18-3.37
		c-32.54,51.67-65.91,102.2-96.71,154.25c-27.43,46.35-61.28,89.9-68.82,145.96c-5.29,39.3,14.58,73.3,47.39,78.43
		c34.72,2.36,68.58-5.3,102.77-8.96c38.52-4.12,76.31-4.82,111.41,15.46c68.34,39.49,126.49,88.97,160.28,162.51
		c2.28,9.43,1.25,17.66-4.26,26.51c-56.67,90.85-77.2,193.35-94.34,296.82c-5.03,30.35-8.65,60.93-12.92,91.4
		c-242.19-0.08-484.38-0.15-726.59-0.22c-1.94-203.83,19.97-404.75,74.9-601.87c-72.3,115.57-95.18,245.53-113.93,376.83
		c-16.4-119.83-20.31-239.41-4.42-359.64c-24.77,40.66-37.77,84.44-43.85,131.07c-8.99,69.01-4.38,138.15-4.95,207.24
		c-26.57-31.41-53.13-62.82-84.36-99.74c11.84,76.93,44.27,137.34,78.21,197.18c4.16,7.33,14.76,13.66,5.36,24.16
		c-18.61-16.96-37.57-33.56-55.77-50.94c-39.75-37.97-85.54-66.72-136.97-85.07c-29.24-10.43-60.43-20.76-94.04-5.23
		c8.76,11.61,18.7,11.78,27.18,14.72c101.9,35.33,177.46,103.58,238.32,190.27c-52.89-18.34-101.83-48.47-166.46-57.4
		c42.41,44.63,89.1,73.98,120.21,118.67C1189.57,3239.52,1145.21,3239.55,1100.86,3239.57z"/>
	<path class="st13" d="M533.44,2927c-5.81,3.84-11.62,7.69-20.58,13.62c21.66,2.29,36.92-7.36,53.5-9.84
		c9.1,10.44,18.76,3.73,28.1,0.69c41.18-13.42,76.83-36.82,110.21-63.54c13.02-10.42,16.5-10.22,20.79,6.8
		c3.23,12.83,2.03,31.66,22.79,33.89c8.72,110.01,35.3,217.29,49.87,326.4c-2.21,1.22-4.41,2.44-6.62,3.66
		c-5.72,0.67-11.43,1.34-17.15,2.01c-9.57-2.22-19.13-2.14-28.65,0.3c-20.29-0.03-40.58-0.06-60.87-0.08
		c-30.28-2.67-60.55-2.44-90.82,0.11c-9.02-0.02-18.05-0.04-27.08-0.06c-108.89-2.7-217.78-2.67-326.66-0.25
		c-5.5,0.03-10.99,0.06-16.49,0.09c0,0,0.03-2.42,0.04-2.42c-3.39-42.25,10.29-82.23,17.4-122.93
		c13.06-74.76,28.99-149.01,43.72-223.48c14.07-6.81,0.97-13.37-1.35-17.95c-67.13-132.58-100.33-272.95-98.5-421.59
		c0.48-39.32,9.47-76.3,33.53-107.86c21.37-28.04,31.12-59.31,31.64-93.85c0.81-54.01,19.33-98.44,66.83-128.1
		c14.53-9.07,21.97-22.56,21.25-40.06c-0.04-0.93,0.19-1.86,0.19-2.8c-0.01-100.62,63.31-143.47,166.75-124.6
		c87.51,15.97,171.69,45.4,252.74,82.63c81.65,37.51,110.26,112.76,132.91,191.12c13.72,47.46-6.23,94.45-46.81,121.77
		c-15.91,10.71-24.14,10.86-30.86-10.13c-26.65-83.2-81.35-138.42-165.83-164.6c-51.7-16.02-102.73-33.8-159.96-39.2
		c6.18,12.74,16.79,14.27,25.23,17.93c53.99,23.48,107.77,47.5,162.4,69.39c75.26,30.15,115.95,144.29,106.61,203.94
		c-6.67,42.6-28.71,74.33-68.62,92.6c-10.82,4.96-17.47,5.82-21.37-9.45c-17.48-68.37-60.77-113.21-126.16-139.84
		c-52.57-21.41-104.58-43.94-162.97-61.46c7.87,21.34,23.58,29.34,38.09,37.07c46.99,25.01,94.74,48.59,141.9,73.29
		c29.68,15.54,48.62,40.14,57.38,72.52c-12.29,0.82-10.12,10.46-12.06,18.45c-12.75,52.62-49.64,71.85-98.7,52.78
		c-28.61-11.12-57.56-21.45-86.75-30.92c-6.62-2.15-14.83-11.16-22.37-0.47c-27.35-11.14-52.74-27.17-90.34-35.05
		c27.1,33.56,60.3,50.57,84.91,76.04c-14.54,20.93-38.19,25.92-63.43,38.34c29.26,6.9,53.49,4.17,75.25-3.37
		c20.42-7.08,30.32,0.71,42.73,13.73c31.15,32.68,64.12,63.14,113.57,63.58c0.87,9.44,9.06,13.69,14.13,20.2
		c15.76,20.27,26.66,41.81,26.31,68.98c-0.53,41.04-19.88,72.55-45.11,102.33c-11.73,13.84-31.3,21.67-33.76,42.82
		c0,0,0.14-0.11,0.14-0.11C538.89,2919.4,534.79,2921.01,533.44,2927z"/>
	<path class="st12" d="M3902.33,3189.77c11.46-212.28,67.59-408.81,208.29-573.66c60.96-71.42,133.4-128.35,228.55-148.17
		c29.35-6.11,58.01-6.59,87.73,5.1c151.3,59.52,250.36,171.79,321.48,313.13c69.09,137.3,119.66,281.68,163.33,428.66
		c2.32,7.82,1.5,16.58,2.15,24.91c-309.11,0.05-618.23,0.1-927.35,0.15c0.27-8.38-0.8-17.06,1.01-25.09
		c20.69-92.08,49.02-181.73,86.82-268.3c5.6-12.82,10.96-25.75,16.35-38.66c5.33-12.76,13.24-24.91,11.78-44.3
		c-75.96,72.77-125.68,157.19-166.17,248.15C3924.76,3137.62,3923.89,3168.25,3902.33,3189.77z"/>
	<path class="st12" d="M2296.78,2880.97c14.72-9.73,29.43-19.46,44.15-29.18c55.11-18.49,112.77-25.89,169.13-38.94
		c-17.26,63.57-34.37,127.18-51.81,190.7c-21.21,77.29-32.93,156.15-39.47,235.88c-83.53,0-167.05,0.01-250.57,0.02
		c12.15-92.52,24.75-184.9,54.85-273.88c30.99-91.61,85.46-166.06,164.8-220.72c222.68-153.43,432.64-323.36,640.47-495.78
		c103.49-85.85,204.52-175.42,289.5-280.87c20.01-24.83,37.24-51.59,50.22-80.81c9.26-20.85,12.31-41.4-10.73-60.63
		c26.3-7.19,40.41,5.87,48.57,23.37c40.69,87.27,81.2,174.6,132.42,256.39c11.3,18.04-1.64,30.65-9.16,43.43
		c-54.99,93.44-110.44,186.61-166.39,279.48c-39.08,64.86-79.21,129.04-123.15,190.83c-61.21,86.09-64.73,86.66-131.05,8.32
		c-60.67-71.66-128.87-135.36-203.26-192.5c-30.03-23.07-50.9-18.87-70.39,14.14c-20.56,34.8-34.91,72.58-48.02,110.47
		c-11.25,32.52-31.63,51.97-62.01,67.39c-95.2,48.32-197.49,80.18-292.51,128.69c-48.08,24.55-90.11,56.39-124.59,98.04
		c-5.94,7.18-12.89,13.79-13.01,24.12c-1.35,2.39-2.71,4.76-4.08,7.13c-0.97,0.83-1.93,1.66-2.9,2.49c0.62-0.08,1.5,0.07,1.8-0.28
		c0.52-0.62,0.68-1.54,0.99-2.34C2292.64,2884.27,2294.71,2882.62,2296.78,2880.97z M2423.92,2979.78
		c0.68-31.21-31.57-64.86-61.86-64.53c-32.27,0.35-64.12,32.67-64.64,65.61c-0.5,31.06,28.92,61.33,60.19,61.93
		C2391.19,3043.43,2423.19,3013.03,2423.92,2979.78z"/>
	<path class="st9" d="M1280.17,3178.22c-60.86-86.69-136.42-154.94-238.32-190.27c-8.48-2.94-18.43-3.11-27.18-14.72
		c33.61-15.53,64.8-5.2,94.04,5.23c51.42,18.35,97.22,47.1,136.97,85.07c18.2,17.39,37.16,33.99,55.78,50.91
		c2.38,20.13,15.57,32.26,34.12,46.78c-10.02-57.73-19.22-110.78-28.43-163.83c-1.7-1.63-3.4-3.26-5.09-4.89l0.18,0.38
		c0.58-69.1-4.04-138.24,4.95-207.24c6.07-46.63,19.08-90.41,43.85-131.07c-15.89,120.22-11.98,239.81,4.42,359.64
		c18.75-131.3,41.63-261.26,113.93-376.83c-54.93,197.12-76.85,398.04-74.9,601.87c-21.31,0.15-42.64,0.3-63.98,0.46
		C1316.3,3217.1,1301.83,3194.71,1280.17,3178.22z"/>
	<path class="st14" d="M284.92,2891.98c-14.73,74.47-30.66,148.72-43.72,223.48c-7.11,40.7-20.79,80.68-17.4,122.93
		c-33.87,0.93-67.73,1.85-101.59,2.78c-1.52-0.94-3.05-0.95-4.58-0.03c-1.91-0.52-3.81-1.04-5.72-1.57
		c11.98-78.47,33.74-154.68,53.67-231.29c15.65-60.17,32.36-120.04,55.89-182.48C240.38,2853.43,262.05,2873.32,284.92,2891.98z"/>
	<path class="st7" d="M3902.33,3189.77c21.56-21.52,22.42-52.15,33.97-78.09c40.49-90.96,90.21-175.38,166.17-248.15
		c1.46,19.4-6.45,31.54-11.78,44.3c-5.39,12.91-10.75,25.84-16.35,38.66c-37.81,86.57-66.13,176.22-86.82,268.3
		c-1.81,8.03-0.74,16.71-1.01,25.09c-29.81-0.02-59.61-0.04-89.42-0.06C3898.84,3223.14,3900.59,3206.45,3902.33,3189.77z"/>
	<path class="st12" d="M855.32,3238.93c-12.36-33.41-6.93-69.8-17.44-103.6c-3.58-11.53,2.94-11.7,12.27-9.56
		c75.09,17.19,135.47,58.39,187.29,113.76C976.73,3239.33,916.03,3239.13,855.32,3238.93z"/>
	<path class="st7" d="M3721.49,3239.31c-22.65-52.83-53.62-102.04-73.58-165.99c65.94,45.74,118.95,94.46,179.21,140.36
		c5.36-43.9-14.98-81.07-13.32-120.36c17.14,18.63,15.59,43.68,19.94,65.81c5.32,27.11,10.68,54.08,18.2,80.65
		C3808.45,3239.62,3764.97,3239.47,3721.49,3239.31z"/>
	<path class="st7" d="M1280.17,3178.22c21.66,16.5,36.12,38.88,50.32,61.48c-32.19-0.07-64.38-0.13-96.57-0.2
		c-31.11-44.69-77.81-74.04-120.22-118.68C1178.34,3129.74,1227.28,3159.87,1280.17,3178.22z"/>
	<path class="st9" d="M684.82,3240.91c20.29,0.03,40.58,0.06,60.87,0.08C725.39,3247.7,705.1,3247.91,684.82,3240.91z"/>
	<path class="st9" d="M566.92,3240.97c9.03,0.02,18.05,0.04,27.08,0.06C584.96,3247.31,575.93,3247.38,566.92,3240.97z"/>
	<path class="st9" d="M223.77,3240.81c5.5-0.03,11-0.06,16.49-0.09C234.79,3246.88,229.29,3246.18,223.77,3240.81z"/>
	<path class="st9" d="M117.64,3241.14c1.53-0.92,3.06-0.91,4.58,0.03C120.69,3241.16,119.16,3241.15,117.64,3241.14z"/>
	<path class="st13" d="M2244.99,1414.68c-10.67-15.3-0.53-26.81,7.88-37.63c33.43-42.98,51.61-92.45,63.04-144.89
		c7.08-32.48,6.69-64.76-2.6-96.9c-10.34-35.77-31.19-67.24-40.92-103.45c-4.01-14.92-16.41-26.94-29.12-36.91
		c-66.46-52.13-180.3-43.25-238.2,18.61c-2.47,2.64-4.05,6.45-10.9,5.19c4.84-70.98,11.51-141.77,32.68-210.47
		c9.42-0.27,14.57-7.39,20.95-12.76c30.94-26.05,64.45-46.51,104.88-55.6c89.68-20.18,177.52-11.82,264.55,13.78
		c102.25,30.08,196.42,80.63,296.14,117.36c81.68,30.09,166.13,42.23,251.66,41.86c43.09-0.19,87.53-0.5,130.47-10.45
		c44.07,100.95,73.49,203.83,40.06,314.55c-4.86,16.11-2.65,32.78-8.45,49.24c-12.7,36.04-10.91,75.44-32.06,110.65
		c-14.14,23.54-29.2,50.02-29.11,80.29c0.01,2.1-1.12,7.41-4.29,5.12c-19.39-13.98-12.88,6.56-15.19,12.1
		c-4.6,11.03-3.41,24.08-10.92,34.73c-5.31-5.01-7.81-25.07-17.53-1.52c-7.55,18.3-20.91,34.21-31.84,51.41
		c-7.78-7.05,0.29-17.8-10.63-24.05c-10.65,24.46-21.54,48.59-36.79,69.92c-10.88-5.49,2.94-18.01-8.7-21.16
		c-20.71,12.49-30.33,33.18-39.37,53.44c-9.5-4.65-0.71-17.42-12.46-18.06c-8.79,8.34-9.27,22.57-20.54,28.91
		c-9.6-2.71,0.69-17.59-11.3-18.15c-8.82,5.28-4.5,19.74-16.52,23.11c-3.47-25.02-5.23-49.32-10.42-72.87
		c-14.07-63.79-51.35-93.23-117.03-94.27c-12.14-0.19-24.3,0.21-36.43,0.78c-87.73,4.11-175.45,8.34-263.18,12.53
		c16.99-6.72,34.09-13.21,50.96-20.22c20.31-8.44,49.51-16.41,41.15-42.88c-7.39-23.41-34.99-16.47-56.46-11.86
		c-27.03,5.81-53.89,16.47-81.98,12.04C2319.12,1430.3,2282.14,1421.96,2244.99,1414.68z M2784.9,1256.33l-0.92,0.49
		c5.03-0.08,10.32,0.3,11.76-6.39l-0.7,0.36c35.39-3.2,61.08-21.79,80.3-50.63c11.03,0.03,25.74,2.6,30.56-7.39
		c4.82-10-7.12-19.51-13.56-28.14c-18.45-24.73-42.05-43.84-67.61-60.71c4.29-4.22,12.43-8.34,1.58-13.89
		c-9.1-4.65-18.52-8.74-28.01-12.55c-32.3-12.95-65.07-24.36-106.25-24.65c23.1-18.21,41.6-24.74,75.88-36.47
		c74.2-3.67,131.11,24.16,201.38,62.07c-14.4-56.87-46.22-89.98-89.82-113.09c-61.5-32.6-127.63-40.32-195.94-33.91
		c-65.77,6.17-128.81,22.04-186.42,55.59c-22.34,13.01-26.15,32.05-16.25,60.57c7.65,22.02,21.93,22.02,39.72,16.05
		c11.28,22.02,22.25,44.22,34.18,65.88c1.76,3.19,8.08,3.87,12.29,5.71c0.01,17.78-13.54,30.98-16.16,47.85
		c-3.37,21.64,7.95,8.61,14.75,6.19c13.67,30.67,33.02,55.27,67.4,64.39c26.01,6.9,52.26,11.1,79.27,8.99l-0.65-0.47
		c1.27,1.79,2.51,3.72,4.85,1.2c21.14,0.57,42.35,1.89,62.69-5.94C2781.71,1260.03,2783.39,1258.58,2784.9,1256.33z"/>
	<path class="st16" d="M2402.81,1499.11c87.72-4.19,175.45-8.42,263.18-12.54c12.13-0.57,24.3-0.97,36.43-0.78
		c65.68,1.04,102.96,30.48,117.03,94.27c5.19,23.55,6.95,47.85,10.42,72.87c12.03-3.37,7.7-17.83,16.52-23.11
		c11.99,0.57,1.7,15.44,11.3,18.15c11.27-6.33,11.75-20.56,20.54-28.91c11.75,0.64,2.95,13.41,12.46,18.06
		c9.04-20.26,18.66-40.95,39.37-53.44c11.64,3.16-2.18,15.67,8.7,21.16c15.24-21.33,26.14-45.46,36.79-69.92
		c10.92,6.25,2.85,17,10.63,24.05c10.93-17.21,24.29-33.11,31.84-51.41c9.72-23.55,12.23-3.49,17.53,1.52
		c7.51-10.65,6.32-23.69,10.92-34.73c2.31-5.55-4.2-26.09,15.19-12.1c3.17,2.29,4.3-3.02,4.29-5.12
		c-0.08-30.27,14.98-56.75,29.11-80.29c21.14-35.21,19.35-74.61,32.06-110.65c5.81-16.47,3.59-33.14,8.45-49.24
		c33.42-110.73,4.01-213.61-40.06-314.55c-1.18-10.58-7.86-18.43-13.36-26.87c28.68-3.35,57.54-6.63,84.29-18.1
		c14.26-6.12,24.99-2.35,36.12,6.05c59.61,44.97,118.63,90.54,169.1,146.18c11.89,13.1,22.96,26.48,34.51,44.09
		c-102.14,2.52-162.58,58.02-195.75,147.91c-11.55,3.26-8.35-14.44-20.52-11.89c-2.39,41.03-1.57,82.62-5.44,124.15
		c-8.88,95.26-17.32,190.55-34.92,284.59c-7.64,40.81-25.65,78.8-43.56,117.7c-12.45-10.66-0.36-19.79-6.1-32.12
		c-18.44,33.8-24.5,71.14-49.83,98.46c-13.85,0.19,3.47-21.16-7.69-15.7c-8.93,4.37-21.56,1.2-28.58,16.37
		c-16.36,35.37-37.56,68.58-57.99,101.94c-6.06,9.9-15.27,22.68-29.11,16.08c-13.17-6.28-5.23-19.01-3.29-29.65
		c1.8-9.9,1.43-20.2-3.19-32.5c-10.52,19.59-21.63,38.88-31.42,58.83c-14.09,28.71-33.8,53.61-52.5,79.16
		c-4.49,6.14-9.98,16.89-19.39,12.16c-7.75-3.9-2.87-13.2-0.67-20.22c2.83-9.01,3.53-18.11-0.83-31.39
		c-21.6,29.35-39.87,58.02-64.6,81.77c-31.88,30.61-66.81,56.78-104.78,78.66c-12.29,7.08-26.22,19.21-43.5,6.34
		c-5.18-3.86-12.06,2.61-17.16,6.63c-23.41,18.43-51.93,19.14-79.48,22c-18.8,1.95-34.23-8.16-47.57-20.34
		c-12.26-11.2-24.46-22.63-34.9-41.33c-7.47,21.64,8.96,36.9,3.63,55.25c-22.92-10.25-34.51-32.71-54.6-49.24
		c-5.53,23.07,14.59,34.91,17.38,53.97c-19.08,2.17-32.17-9.72-46.31-17.01c-30.89-15.92-54.59-44.08-90.79-51.67
		c-9.26-1.94-14.43-13.75-20.49-22.19c-5.71-7.96-8.69-22.54-24.85-15.67c-2.06,0.87-8.66-2.72-8.93-4.79
		c-3.5-27.51-38.49-25.41-45.81-50.13c-6.59-22.24-16.52-43.51-25.33-65.06c-1.61-3.93-3.25-14.18-9.79-5.64
		c-11.96,15.61-12.03-1.53-13.24-5.04c-4.23-12.21-6.18-25.18-9.85-37.61c-2.07-6.99,5.89-24.75-15.42-13.58
		c-8.93,4.68-8.57-9.78-10.99-15.56c-17.43-41.59-23.59-85.92-30.07-130.13c-2.56-17.46-5.15-34.93-8.38-52.28
		c-1.27-6.81,0.74-10.7,6.81-13.1c19.4,12.71,22.11,43.44,50.94,46.65c0-8.28-0.05-16.55,0.01-24.83
		c0.63-83.99,33.99-124.08,117.03-136.02c47.05-6.76,94.68-9.5,142.06-14.06C2365.38,1504.13,2384.34,1504.72,2402.81,1499.11z
		 M2228.77,1616.37c-25.73-6.46-51.49-10.85-78.18-5.37c-10.1,2.07-13.91,8.65-15.93,17c-2.08,8.61,3.47,14.91,9.95,18.35
		c12.25,6.5,25.35,11.4,38.09,16.97c2.94,40.97,6.42,81.84,18.59,121.4c9.62,31.28,25.56,57.92,53.93,75.89
		c13.33,8.44,29.56,14.11,41.83,4.97c18.63-13.88,26.93-35.46,30.63-59.06c2.32-14.75-12.2-16.94-15.43-27.05
		c-2.95-9.22-14.9-14.43-12.44-27.57c69.37,1.92,138.49,2.67,215.24-7.52c-13.92,16.96-20.4,29.38-30.62,36.25
		c-15.16,10.2-12.5,24.26-9.76,36.1c12.91,55.9,36.45,68.97,93.64,55.55c14.82-3.48,28.14-9.84,41.28-16.93
		c65.14-35.14,107.36-88.34,125.79-160.19c10.57-26.2,19.35-53.26,37.86-75.54c1.36-1.64,0.36-5.46,0.06-8.22
		c-2.81-25.62-47.22-40.49-72.54-24.33c-29.75,9.52-60.95,9.55-91.42,10.96c-80.43,3.71-161.24,22.8-241.44-2.63
		c-2.96-0.94-7.2,0.65-10.36,2.11C2316.46,1616.54,2272.57,1616.13,2228.77,1616.37z"/>
	<path class="st12" d="M3155.32,288.95c-4.42,140.82-30.58,278.13-66.16,414.04c-4.8,18.33-11.86,14.59-22.81,7.7
		c-54.61-34.35-108.74-69.49-164.01-102.73c-193.8-116.52-400.11-201.99-622.18-247.44c-27.38-5.6-55.17-10.01-83-12.34
		c-21.6-1.8-27.1-6.63-12.47-25.45c95.21-122.52,218.33-200.67,371.08-228.14c206.24-37.08,396.31,16.02,578.21,109.93
		c11.08,5.72,16.25,12.92,17.97,25.65C3154.61,249.78,3154.96,269.3,3155.32,288.95z"/>
	<path class="st13" d="M3257.78,1683.7c8.41,81.81,16.74,163.62,25.28,245.42c1.39,13.34-8.58,20.19-15.61,28.37
		c-95.53,111.14-204.6,208.23-317.26,301.18c-175.34,144.68-351.55,288.36-539.33,417c-54.56,37.38-54.95,37.57-79.52-22.9
		c-28.85-71.01-57.52-142.17-62.2-220.05c22.46,11.74,30.66,34.16,41.5,54.77c10.85,20.63,20.31,42.41,41.4,62.57
		c0-15.47,1.99-25.28-0.33-33.94c-13.82-51.77,4.53-101.39,8.97-151.9c1.83-20.78,9.71-23.99,27.1-11.26
		c62.48,45.73,128.03,43.43,195.24,10.73c49.6-24.13,96.89-51.82,141.25-84.79c93.72-69.66,184.91-142.62,257.6-234.61
		c93.02-117.72,184.32-237.18,226.18-385.32c4.57-16.18,11.62-12.91,19.85-1.23C3235.58,1668.62,3239.76,1684.42,3257.78,1683.7z"/>
	<path class="st12" d="M3178.74,234.25c313.53,183.88,403.35,538.83,299.49,833.45c-18.57-22.86-35.97-43.9-52.96-65.27
		c-62.43-78.52-141.95-137.6-222.33-195.67c-21.96-15.87-43.95-31.78-66.77-46.35c-13.18-8.42-16.31-16.93-11.9-32.44
		c33.75-118.77,58.26-239.35,62.85-363.08c1.59-42.86-5.31-85.57-10.84-128.13C3177.12,235.94,3177.94,235.1,3178.74,234.25z"/>
	<path class="st17" d="M1065.71,1537.95c0.14-16.43,22.49-38.78-5.84-47.52c-24.03-7.42-25.36,19.65-31.86,34.02
		c-42.62,94.23-84.38,188.85-125.69,283.66c-6.63,15.22-11.74,21.64-27.09,8.56c-11.93-10.17-26.28-17.51-39.54-26.1
		c-0.78-8.81,3.07-16.3,6.53-24.02c47.29-105.55,93.68-211.52,142.3-316.45c11.47-24.76,8.48-42.88-6.07-64.42
		c-44.56-65.97-67.15-138.73-46.07-217.48c15.7-58.67,41.13-112.75,96.05-149.33c23.2-15.45,51.38-20.57,71.56-40.2
		c62.64-14.14,122.7-7.38,179.93,22.27c1.27,6.66,5.6,8.99,11.95,8.47c0,0-0.06-1.02-0.06-1c1.41,11.54,11.26,16.87,18.4,23.73
		c64.34,61.86,88.18,139.58,74.24,224.55c-21.16,129.05-125.14,213.76-259.5,218.95c-18.03,0.7-25.84,6.61-32.19,23.25
		C1087.25,1513.24,1085.9,1532.86,1065.71,1537.95z M1297.18,1188.19c0.16-71.77-55.87-128.58-127.28-129.06
		c-75.37-0.5-131.22,53.13-131.77,126.55c-0.57,76.01,53.8,131.88,129.4,132.99C1238.71,1319.71,1297.01,1261.04,1297.18,1188.19z"
		/>
	<path class="st12" d="M1738.69,775.97c-62.54-39.02-109.35-87.88-105.59-168.48c2.95-63.08,40.97-105.43,87.44-140.29
		c65.91-49.46,142.43-72.88,223.91-80.47c232.41-21.65,450.1,37.67,662.72,122.43c190.57,75.97,360.56,187.98,530.15,306.18
		c-23.1,11.77-46.55,11.66-68.57,13.71c-161.22,15.07-309.41-19.69-443.17-114.31c-83.12-58.8-157.31-129.27-246.06-180.82
		c-112.84-65.55-232.75-107.53-363.12-111.1c-98.16-2.69-194.37,12.87-276.69,73.2c-103.35,75.75-106.01,179.46-8.17,263.06
		c4.17,3.56,7.34,8.28,10.96,12.47C1741.22,773.03,1739.96,774.5,1738.69,775.97z"/>
	<path class="st14" d="M3257.78,1683.7c-18.03,0.72-22.2-15.08-29.87-25.97c-8.23-11.68-15.27-14.95-19.85,1.23
		c-41.86,148.15-133.16,267.6-226.18,385.32c-72.68,91.99-163.88,164.94-257.6,234.61c-44.36,32.97-91.65,60.66-141.25,84.79
		c-67.21,32.7-132.77,35-195.24-10.73c-17.4-12.73-25.27-9.53-27.1,11.26c-4.45,50.51-22.8,100.14-8.97,151.9
		c2.31,8.66,0.33,18.48,0.33,33.94c-21.1-20.15-30.56-41.94-41.4-62.57c-10.84-20.61-19.04-43.03-41.5-54.77
		c-5.53-23.91-3.63-47.67,2.86-72.37c14.37,43.84,33.91,84.91,60.72,123.94c-12.96-106.84-25.91-213.69-39.49-325.62
		c43.59,23.96,83.73,40.97,127.44,47.48c69.47,10.34,136.75-1.71,200.22-28.15c192.05-79.99,351.79-204.24,480.68-366.7
		c56.91-71.72,85.36-157.02,93.53-248.59c1.24-13.91,3.97-27.69,6.01-41.53c7.82,0.72,11.11,4.88,9.62,12.67
		c-9.39,34.78-4.56,60.9,21.62,71.83c24.87,10.38,25.78,27.16,25.69,47.6C3258.02,1663.43,3257.88,1673.56,3257.78,1683.7z"/>
	<path class="st0" d="M2335.31,558.59c-63.35,6.63-121.47,15.06-177.54,35.64c-93.4,34.28-151.23,99.4-175.83,194.81
		c-15.61,60.57-14.98,60.2-74.99,41.66c-64.53-19.94-120.86-52.87-168.88-100.58c-68.02-67.57-63.4-147.52,16.37-206.99
		c54.85-40.89,118.07-56.12,184.91-63.77c115.76-13.25,223.31,14.7,328.11,59.45C2290.25,528.55,2311.6,541.12,2335.31,558.59z"/>
	<path class="st13" d="M2346.42,1503.65c-47.37,4.55-95,7.29-142.06,14.06c-83.05,11.94-116.4,52.02-117.03,136.02
		c-0.06,8.28-0.01,16.55-0.01,24.83c-28.83-3.21-31.54-33.93-50.94-46.65c-39.88-127.79-52.61-256.99-19.91-388.49
		c8.77-35.26-4.54-68.29-10.49-101.89c-8.3-46.89-12.01-57.47,35.4-75.03c6.6,3.72,19.48,8.32,27.31,7.84
		c29.53-1.8,57.05,5.9,81.36,23.46c-68.88,11.5-94.01,36.44-95.15,91.29c-0.42,20.26,4.99,27.87,25,19.97
		c18.6,49.61,41.09,64.22,99.9,64.87c23.04,7.98,44.94,2.93,66.53-5.78c11.03-1.56,22.06-3.13,33.09-4.69
		c-8.28,40-28.83,74.34-49.07,109.07c-25.65,44.02,3.71,99.11,54.58,104.38c0,0-0.37-0.48-0.37-0.48c-2.57,9.2,7.39,5.83,9.93,9.9
		C2309.25,1499.78,2330.1,1494.93,2346.42,1503.65z"/>
	<path class="st14" d="M3082.15,875.54c5.49,8.44,12.18,16.28,13.36,26.87c-42.94,9.95-87.39,10.26-130.47,10.45
		c-85.53,0.38-169.98-11.77-251.66-41.86c-99.72-36.73-193.89-87.29-296.14-117.36c-87.02-25.6-174.87-33.96-264.55-13.78
		c-40.42,9.09-73.94,29.55-104.88,55.6c-6.38,5.38-11.53,12.49-20.95,12.76c15.41-96.67,79.78-148.44,166.24-178.01
		c60.74-20.78,123.91-26.3,188.07-22.9c25.46,1.35,46.08,10.02,65.65,26.35c62.39,52.08,125.75,103,195.03,145.96
		c130.13,80.69,271.51,111.89,423.52,96.77C3070.93,875.84,3076.55,875.81,3082.15,875.54z"/>
	<path class="st13" d="M3210.76,1533.86c1.49-7.79-1.8-11.95-9.62-12.67c3.28-87.84-2.47-177.23,12.22-263.12
		c17.01-99.45,108.77-187.02,204.46-165.87c33.99,7.51,56.41,27.41,69.53,58.99c20.11,48.37,21.95,98.25,10.8,148.65
		c-19.79,89.49-56.99,169.89-126.09,232.72c-15.43,14.03-30.96,32.29-43.9-4.12c-4.95-13.94-19.56-24.87-36.63-15.97
		c-16.92,8.83-19.72,25.76-11.94,41.31c13.72,27.41-2.9,25.69-20.09,22.39C3235.53,1571.59,3220.47,1555.51,3210.76,1533.86z
		 M3440.56,1229.56c4.45,7.86,2.18,18.62,10.53,25.11c15.63-41.45,8.67-79.39-17.54-96.79c-24.12-16.01-61.5-9.05-92.4,17.85
		c-23.6,20.54-40.96,45.65-53.76,74.26c-10.93,24.42-13.76,48.74-0.84,72.75c17.39,32.33,12.03,60.35-11.64,87.37
		c-11.73,13.39-21.93,28.79-20.01,56.38c19.92-28.25,44.53-39.41,67.57-52.85c48.48-4.22,70.27-26.89,67.85-82.31
		C3388.32,1286.07,3406.1,1254.73,3440.56,1229.56z"/>
	<path class="st13" d="M670.01,1788.89c81.68,8.45,173.61,30.98,238.69,113.8c22.34,28.43,36.91,60.14,44.62,95.48
		c6.7,30.72-1.01,57.55-19.88,81.36c-28.47,35.94-42.73,36.25-68.48-0.28c-37.91-53.79-94.55-77.06-153.24-97.49
		c-58.46-20.35-118.81-33.34-180.04-40.94c-26.61-3.3-29.7-12.55-20.86-35.58c12.11-31.56,22.79-63.17,49.21-86.58
		C586.99,1794.79,618.92,1787.73,670.01,1788.89z"/>
	<path class="st12" d="M2256.8,2583.32c19.56,52.78,48.39,101.96,64.98,157.37c-16.1,2.57-19.17-8.3-23.81-14.97
		c-44.19-63.48-103-110.67-168.56-149.68c-20.34-12.1-32.28-26.68-35.64-49.86c-2.67-18.44-6.91-36.7-11.24-54.85
		c-8.41-35.27-38.17-47.24-67.93-25.88c-42.68,30.63-78.92,68.65-115.76,105.83c-11.71,11.82-22.21,24.85-35.58,39.94
		c-9.82-20.41-4.44-33.89,2.71-46.56c80.98-143.47,169.11-282.09,277.43-406.91c10.41-12,21.82-23.09,35.52-31.59
		c8.13-5.04,15.8-11.23,24.64-1.49c-51.94,108.78-63.25,222.9-40.88,340.14C2173.86,2503.34,2203.23,2552.24,2256.8,2583.32z"/>
	<path class="st13" d="M1073.31,2341.5c-14.94,32.07-20.92,66.83-28.89,100.81c-36.05,153.61-128.19,256.66-276.14,310.38
		c0.51-7.01-3.15-12.18-6.79-17.81c-18.42-28.54-22.18-60.84-11.44-91.4c33.65-95.75,75.9-188.35,155.33-254.93
		C951.97,2349.5,1004.66,2311.39,1073.31,2341.5z"/>
	<path class="st18" d="M1065.71,1537.95c20.19-5.09,21.54-24.71,27.02-39.08c6.35-16.64,14.17-22.55,32.19-23.25
		c134.36-5.19,238.34-89.9,259.5-218.95c13.93-84.97-9.9-162.69-74.24-224.55c-7.14-6.87-16.99-12.19-18.4-23.73
		c81.71,42.05,122.22,112.53,134.05,200.46c18.2,135.2-69.6,270.48-208.22,304.64c-21.96,5.41-27.43,19.09-24.57,39.67
		c6.92,49.84-4.44,60.01-52.7,48.26c-35.04-8.53-42.17-5.17-56.17,26.91c-4.1,9.41-7.95,18.93-11.71,28.49
		c-18.31,46.45-18.25,46.43,18.74,80.85c9.14,8.51,16.79,16.75,9.55,31.4c-6.63,13.42-14.73,20.27-30.3,18.68
		c-11.98-1.22-24.63-2.13-36.2,0.39c-17.17,3.75-27.39,27.66-20.42,45.27c5.83,14.73,13.74,28.64,19.49,43.39
		c7.81,20.02-1.57,34.98-22.48,37.59c-34.55,4.31-74.79-23-83.08-56.75c-0.79-3.22,0.16-7.33,1.48-10.54
		C972.21,1742.94,1016.69,1639.44,1065.71,1537.95z"/>
	<path class="st12" d="M4337.29,2433.61c-21.65,6.35-37.05,8.38-49.95,15.16c-30.64,16.1-58.23,13.27-89.25-1.62
		c-198.11-95.13-403.32-172.7-611.08-243.84c-8.8-3.01-27.86,0.38-21.71-19.64c8.87-28.86,25.53-41.17,45.4-34.53
		c119.61,39.99,237.68,84.23,354.61,131.36C4087.33,2329.68,4208.64,2380.57,4337.29,2433.61z"/>
	<path class="st18" d="M1099.98,978.66c-20.18,19.63-48.37,24.75-71.56,40.2c-54.92,36.58-80.34,90.66-96.05,149.33
		c-21.08,78.75,1.5,151.51,46.07,217.48c14.55,21.54,17.55,39.66,6.07,64.42c-48.62,104.93-95.01,210.9-142.3,316.45
		c-3.46,7.72-7.31,15.21-6.53,24.02c-56.61-19.15-56.76-19.22-32.84-71.81c28.61-62.88,57.31-125.71,86.49-188.33
		c5-10.73,8.06-19.96,1.59-31.34c-18.05-31.74-10.95-60.07,16.06-82.36c15.63-12.9,8.35-23.22,2.04-36.02
		c-60.74-123.24-39.22-252.72,56.58-337.46C1004.1,1009.16,1048.3,985.84,1099.98,978.66z"/>
	<path class="st13" d="M1132.55,2227.95c-8.6-8.96,6.17-18.3-1.41-28.47c-7.08,7.95-14.03,15.76-20.98,23.56
		c-7.08,2.01-14.79,2.86-21.15,6.23c-49.67,26.29-94.88,16.09-137.26-16.39c-6.48-4.97-12.93-6.95-20.64-6.4
		c-3.69-9.56-6.73-19.44-11.2-28.62c-9.16-18.82-2.37-32.35,13.35-42.89c35.32-23.67,57.33-56.46,63.76-98.17
		c2.32-15.01,10.15-20.38,22.04-24.99c81.34-31.55,157.2,21.38,154.05,108.38c-1.42,39.11-11.86,76.75-22.95,114.1
		C1144.3,2232.18,1138.42,2230.07,1132.55,2227.95z"/>
	<path class="st14" d="M1132.55,2227.95c5.87,2.11,11.74,4.23,17.61,6.34c-3.72,33.25-23.46,57.24-46.25,79.32
		c-9.91,9.6-20.38,18.61-30.6,27.89c-68.65-30.11-121.35,8-167.93,47.05c-79.43,66.58-121.68,159.17-155.33,254.93
		c-10.74,30.56-6.98,62.87,11.44,91.4c3.64,5.63,7.3,10.8,6.79,17.81c-10.77,9.8-25.11,11.4-37.97,16.33
		c-14.72,5.64-31.37,17.05-44.27,13.93c-15.7-3.8-7.63-27.41-15.27-40.49c-1.24-2.12-3.7-3.54-6.88-6.46
		c-7.03,83.9-51.68,141.72-119.6,184.2c2.46-21.15,22.03-28.98,33.76-42.82c25.24-29.78,44.58-61.29,45.11-102.33
		c0.35-27.17-10.55-48.71-26.31-68.98c-5.06-6.51-13.26-10.77-14.13-20.2c52.46-12.1,81.26-50.09,102.55-95.36
		c6.47-13.77,15-20.33,29.59-25.62c63.54-23.05,99.18-70.51,109.59-136.5c2.38-15.09,6.02-24.2,21.27-31.38
		c38.43-18.08,66.71-47.98,82.31-87.63c6.95-17.65,13.19-22,31.94-14.48c37.16,14.9,74.8,10.68,111.73-4.19
		c26.91-10.83,43.2-31.12,54.51-56.59c2.41-1.98,4.81-3.95,7.22-5.93L1132.55,2227.95z"/>
	<path class="st0" d="M2232.58,2824.73c-33.79-73.54-91.93-123.02-160.28-162.51c-35.11-20.29-72.89-19.58-111.41-15.46
		c-34.19,3.65-68.05,11.32-102.77,8.96c16.57-24.95,40.89-42.49,61.48-63.55c33.07-33.84,68.41-65.29,105.13-95.29
		c14.83-12.11,18.35-5.68,21.51,7.69c1.27,5.39,3.24,11.14,2.5,16.38c-5.95,42.04,19.62,66.92,50.07,86.42
		c37.65,24.12,74.34,49.59,108.67,77.88c26.37,21.73,47.85,49.06,66.7,78.02c12.93,19.87-3.89,32.8-14.78,38.97
		c-13.82,7.84-19.39-10.08-22.7-20.43c-6.77-21.17-8.81-43.88-19.13-63.91c-3.17-6.14-4.06-19.61-16.29-12.99
		c-8.63,4.67-7.44,14.58-3.67,22.61c7.9,16.79,17.37,32.88,24.46,49.98C2228.25,2792.42,2243.27,2805.9,2232.58,2824.73z"/>
	<path class="st7" d="M2256.8,2583.32c-53.56-31.08-82.93-79.98-94.1-138.51c-22.37-117.24-11.07-231.36,40.88-340.14
		c43.34,12.86,40.12,50.44,48.71,84.56c14.76,58.65-15.04,108.42-24.37,162.15c-11.95,68.82,0.21,134.81,22.15,199.67
		C2253.68,2561.72,2258.45,2571.72,2256.8,2583.32z"/>
	<path class="st7" d="M2936.52,2649.68c-41.09,2.18-73.19,25.86-106.57,45.67c-87.28,51.8-181.26,85.77-279.83,108.07
		c-0.36-4.63-0.94-9.27-1.05-13.91c-1.01-44.26-0.29-42.53,39.7-58.69c58.57-23.67,116.39-49.32,173.78-75.74
		c25.69-11.83,44.19-33.5,61.52-55.57c37.04,1.86,68.05,23.05,102.85,32.17C2935.7,2633.98,2936.8,2641.81,2936.52,2649.68z"/>
	<path class="st0" d="M2936.52,2649.68c0.28-7.88-0.82-15.7-9.6-18c-34.8-9.12-65.81-30.31-102.85-32.17
		c20.63-44.62,83.6-74.53,128.31-60.95c9.48,2.88,15.08,10.68,21.58,17.19c55.2,55.19,112.29,108.63,159.87,170.91
		c8.64,11.31,21.89,13.32,33.25,19.22c-14.75,17.08-28.7,6.12-41.67-2.12c-28.9-18.37-57.53-37.2-85.65-56.72
		C3008.52,2665.35,2974,2653.64,2936.52,2649.68z"/>
	<path class="st14" d="M2346.42,1503.65c-16.32-8.71-37.17-3.87-51.91-17.31c-0.21-6.41-1.47-11.77-9.93-9.9
		c0,0,0.37,0.48,0.37,0.48c-12.28-21.41-40.02-32.9-39.95-62.24c37.15,7.29,74.13,15.62,111.5,21.52
		c28.08,4.43,54.94-6.23,81.98-12.04c21.47-4.61,49.06-11.55,56.46,11.86c8.36,26.47-20.84,34.44-41.15,42.88
		c-16.87,7.01-33.96,13.5-50.96,20.22C2384.34,1504.72,2365.38,1504.13,2346.42,1503.65z M2403.5,1468.38
		c9.92,0,18.35,1.07,26.37-0.28c9.74-1.64,20.88,1.21,28.73-7.17c0.85-0.9-0.62-5.83-2.31-6.96c-10.66-7.17-22.65-9.12-34.75-5.09
		C2413.82,1451.46,2406.03,1455.35,2403.5,1468.38z"/>
	<path class="st14" d="M420.05,2532.59c7.53-10.68,15.75-1.67,22.37,0.47c29.19,9.47,58.14,19.8,86.75,30.92
		c49.06,19.07,85.95-0.16,98.7-52.78c1.94-7.99-0.23-17.64,12.06-18.45c23.99,50.83,9.96,107.2-34.73,139.52
		c-23.63,17.09-44.7,16.71-71.5-5.13C495.5,2596.02,461.23,2560.16,420.05,2532.59z"/>
	<path class="st14" d="M2150.05,1097.79c-24.31-17.56-51.83-25.26-81.36-23.46c-7.83,0.48-20.71-4.12-27.31-7.84
		c49.84-29.71,108.46-13.65,160.47-4.02c9.06,1.68,17.74,5.46,26.55,8.37c47.27,15.64,74.96,69.04,62.53,120.53
		c-7.19-3.73-11.53-10.07-15.4-16.85c-1.32-26.08-18.47-41.71-37.39-55.9C2211.89,1098.94,2181.08,1097.7,2150.05,1097.79z"/>
	<path class="st14" d="M748.24,2908.63c-20.75-2.23-19.56-21.06-22.79-33.89c-4.28-17.03-7.77-17.23-20.79-6.8
		c-33.38,26.72-69.03,50.12-110.21,63.54c-9.34,3.04-18.99,9.75-28.1-0.69c45.56-24.49,83.98-55.22,112.48-100.6
		c13.81-21.98,48.62-18.5,73.68-27.19c8.2-2.84,6.41,6.73,5.06,11.54C748.94,2845.37,752.47,2877.38,748.24,2908.63z"/>
	<path class="st7" d="M2510.05,2812.85c-56.36,13.06-114.02,20.45-169.13,38.94c0.49-9.82,7.23-14.22,15.05-18.22
		c57.79-29.52,115.89-58.36,180.27-81.95C2529.97,2774.98,2524.17,2795.53,2510.05,2812.85z"/>
	<path class="st7" d="M3802.96,2906.26c29.3,41.51,44.44,89.71,64.03,135.79c2.17,5.1,2.64,10.99,7.95,14.3
		c-0.31,29.78-15.86,57.14-13.02,87.47c-17.48-72.57-35.04-144.74-56.75-215.82C3802.95,2920.7,3801.05,2913.79,3802.96,2906.26z"/>
	<path class="st14" d="M931.1,2206.49c7.72-0.56,14.16,1.43,20.64,6.4c42.38,32.48,87.59,42.68,137.26,16.39
		c6.37-3.37,14.07-4.22,21.15-6.23c-38.74,44.91-99.17,55.97-148.55,26.83C945.1,2240.12,931.32,2227.94,931.1,2206.49z"/>
	<path class="st10" d="M3299.83,1529.36c28.7,8.96,29.1,27.48,34.41,42.5c2.79,7.88-0.39,17.41,15.25,17.79
		c15.8,0.39,8.17,16.22,6.07,23.87c-3.71,13.46-10.86,27.83-28.19,26.08c-13.79-1.39-5.6-13.34-5.75-20.4
		C3321,1590.25,3316.15,1562.22,3299.83,1529.36z"/>
	<path class="st10" d="M2275.53,1174.52c3.86,6.78,8.21,13.11,15.4,16.85c6.24,25.63-2.11,48.94-11.5,72.09
		c-11.03,1.57-22.06,3.13-33.1,4.7C2273.82,1242.49,2278.59,1209.73,2275.53,1174.52z"/>
	<path class="st16" d="M1768,785.67c17.93,8.98,35.86,17.97,53.8,26.95c-0.99,2.21-1.98,4.42-2.97,6.64
		c-20.37-4.77-38.34-15.79-56.45-26.46C1764.25,790.42,1766.12,788.04,1768,785.67z"/>
	<path class="st7" d="M3813.03,3082.68c-7.52-18.05-12.72-36.58-11.36-56.42C3808.53,3044.45,3824.74,3060.75,3813.03,3082.68z"/>
	<path class="st18" d="M1291.85,1009.4c-6.35,0.52-10.68-1.82-11.95-8.47C1284.7,1002.6,1290.25,1003.22,1291.85,1009.4z"/>
	<path class="st12" d="M1749.52,781.82c-3.6-1.96-7.21-3.91-10.82-5.86c1.26-1.46,2.52-2.92,3.81-4.4c3.43,2.34,6.84,4.7,10.24,7.07
		C1751.67,779.69,1750.59,780.75,1749.52,781.82z"/>
	<path class="st12" d="M1768,785.67c-1.87,2.37-3.75,4.75-5.62,7.13c-2.14-2.07-4.27-4.15-6.41-6.23c0.88-0.87,1.77-1.75,2.66-2.62
		C1761.75,784.52,1764.87,785.09,1768,785.67z"/>
	<path class="st14" d="M533.44,2927c1.34-6,5.45-7.6,11-6.92C542.39,2924.96,538.24,2926.49,533.44,2927z"/>
	<path class="st12" d="M1755.97,786.56c-2.14-1.59-4.28-3.19-6.43-4.76c1.06-1.05,2.13-2.11,3.22-3.18c1.95,1.78,3.9,3.57,5.86,5.34
		C1757.74,784.82,1756.85,785.69,1755.97,786.56z"/>
	<path class="st12" d="M3176.27,236.75c-0.5-1.45-1-2.9-1.5-4.35c1.32,0.62,2.64,1.24,3.97,1.85
		C3177.94,235.1,3177.12,235.94,3176.27,236.75z"/>
	<path class="st14" d="M791.49,3238.68c2.2-1.22,4.41-2.44,6.62-3.66C797.58,3239.27,795.08,3239.97,791.49,3238.68z"/>
	<path class="st13" d="M1133.45,2228.19c-2.41,1.98-4.81,3.95-7.22,5.93C1127.66,2230.95,1127.1,2225.36,1133.45,2228.19z"/>
	<path class="st7" d="M1307.14,2997.38c9.2,53.05,18.41,106.1,28.43,163.83c-18.54-14.52-31.74-26.65-34.12-46.78
		c9.39-10.47-1.21-16.8-5.37-24.13c-33.94-59.84-66.38-120.25-78.21-197.18c31.22,36.92,57.79,68.33,84.36,99.74
		c0,0-0.18-0.38-0.18-0.38C1303.75,2994.12,1305.44,2995.75,1307.14,2997.38z"/>
	<path class="st9" d="M2423.92,2979.78c-0.73,33.25-32.73,63.65-66.31,63c-31.27-0.6-60.69-30.87-60.19-61.93
		c0.53-32.93,32.38-65.26,64.64-65.61C2392.34,2914.92,2424.6,2948.57,2423.92,2979.78z M2361.67,2947.58
		c-24.13-1-36.02,13.01-35.61,32.22c0.42,19.31,15.45,34.12,34.92,33.86c20.56-0.27,30.1-16.31,30.69-36.67
		C2392.3,2955.19,2380.51,2946.75,2361.67,2947.58z"/>
	<path class="st9" d="M2296.78,2880.97c-2.07,1.65-4.14,3.3-6.21,4.95l0.11,0.12c1.37-2.37,2.73-4.74,4.08-7.13
		C2295.43,2879.58,2296.11,2880.27,2296.78,2880.97z"/>
	<path class="st9" d="M2290.57,2885.93c-0.31,0.79-0.47,1.72-0.99,2.34c-0.29,0.35-1.18,0.21-1.8,0.28c0.97-0.83,1.93-1.66,2.9-2.49
		C2290.68,2886.05,2290.57,2885.93,2290.57,2885.93z"/>
	<path class="st12" d="M1307.14,2997.38c-1.7-1.63-3.4-3.26-5.09-4.89C1303.74,2994.12,1305.44,2995.75,1307.14,2997.38z"/>
	<path class="st9" d="M2520.62,1063.62c-17.79,5.98-32.08,5.97-39.72-16.04c-9.91-28.52-6.1-47.55,16.25-60.57
		c57.61-33.55,120.65-49.42,186.42-55.59c68.3-6.41,134.44,1.31,195.94,33.91c43.6,23.11,75.42,56.21,89.82,113.09
		c-70.28-37.91-84.45-69.93-158.65-66.26C2728.53,1007.14,2597,1036.19,2520.62,1063.62z"/>
	<path class="st9" d="M2565.67,1189.27c-6.8,2.42-18.11,15.45-14.75-6.19c2.62-16.87,16.17-30.08,16.16-47.85c0,0-0.85-0.7-0.85-0.7
		c6.55,2.45,7.34-0.77,5.98-6.09l-0.32,0.54c5.75,1.55,6.41-1.74,5.88-6.17l-0.36,0.41c4.78,0.67,6.36-1.7,5.8-6.11l-0.27,0.34
		c4.43,0.45,6.64-1.28,5.86-5.96l0.53,1.06c5.72-1.61,12.08-2.5,12.03-10.64l-0.88-0.02c53.87-23.24,109.57-30.78,167.47-19.61
		c18.93,7.21,37.86,14.42,56.8,21.63c25.56,16.87,49.16,35.98,67.61,60.71c6.44,8.63,18.38,18.14,13.56,28.14
		c-4.82,9.99-19.53,7.42-30.55,7.39c-13.61-18.36-28.61-35-53.59-45c8.81,39.05-8.67,67.43-26.72,95.63c0,0,0.7-0.36,0.7-0.36
		c-6.8-3.17-9.51,1.18-11.76,6.39c0,0,0.92-0.49,0.91-0.51c-1.89,0.37-3.78,0.75-5.66,1.14c-20.34,7.82-41.55,6.51-62.69,5.94
		c-1.36-1.42-2.98-1.82-4.86-1.2c0,0,0.65,0.47,0.65,0.47c-45.44-26.92-57.32-67.53-47.72-116.91c2.77-7.42,9.31-13.62,7.58-23.21
		c-37.95,3.35-68.97,18.51-91.19,49.91C2575.9,1178.04,2570.78,1183.66,2565.67,1189.27z M2733.65,1158.62
		c-0.61-12.81-7.5-22.33-19.62-23.09c-13.25-0.83-22.97,7.22-23.42,21.84c-0.39,12.64,5.44,21.92,18.92,22.8
		C2724.09,1181.11,2731.17,1172.12,2733.65,1158.62z"/>
	<path class="st14" d="M2824.73,1103.91c-18.93-7.21-37.86-14.42-56.8-21.63c-1.9-2.98-3.24-7.95-5.77-8.64
		c-52.68-14.59-103.09-5.59-152.12,15.69c-5.2,2.26-9.51,6-9.57,12.57c0,0,0.88,0.02,0.87-0.01c-9.26-2.36-13.24,1.23-12.02,10.66
		c0,0-0.53-1.06-0.53-1.06c-1.95,1.99-3.91,3.97-5.86,5.96c0,0,0.27-0.34,0.27-0.33c-1.93,2.04-3.87,4.07-5.8,6.11
		c0,0,0.36-0.41,0.36-0.4c-1.96,2.06-3.92,4.12-5.88,6.17c0,0,0.32-0.54,0.32-0.53c-1.99,2.03-3.99,4.06-5.98,6.09
		c0,0,0.85,0.7,0.85,0.7c-4.21-1.85-10.53-2.53-12.29-5.72c-11.93-21.67-22.9-43.86-34.18-65.89
		c76.38-27.44,159.24-50.25,241.37-45.23c-16.38,15.92-46.83,16.23-69.93,34.43c41.19,0.29,73.95,11.7,106.25,24.65
		c9.49,3.81,18.91,7.9,28.01,12.55C2837.16,1095.57,2829.02,1099.68,2824.73,1103.91z"/>
	<path class="st19" d="M2565.67,1189.27c5.11-5.61,10.23-11.23,15.34-16.84c28.11-8.14,53.27-25.53,83.61-26.7
		c-9.6,49.38,2.28,90,47.72,116.91c-27,2.1-53.25-2.1-79.27-8.99C2598.69,1244.54,2579.34,1219.94,2565.67,1189.27z"/>
	<path class="st10" d="M2795.05,1250.78c18.05-28.2,35.52-56.58,26.72-95.63c24.98,10,39.98,26.64,53.59,45
		C2856.12,1228.99,2830.44,1247.58,2795.05,1250.78z"/>
	<path class="st10" d="M2783.99,1256.81c2.24-5.21,4.96-9.56,11.76-6.39C2794.3,1257.11,2789.02,1256.73,2783.99,1256.81z"/>
	<path class="st10" d="M2779.24,1257.44c1.88-0.39,3.76-0.77,5.66-1.14C2783.39,1258.58,2781.71,1260.03,2779.24,1257.44z"/>
	<path class="st19" d="M2711.69,1262.18c1.87-0.62,3.49-0.22,4.86,1.2C2714.21,1265.9,2712.97,1263.98,2711.69,1262.18z"/>
	<path class="st13" d="M2735.38,1695.17c-18.44,71.85-60.65,125.04-125.79,160.19c-13.14,7.09-26.46,13.45-41.28,16.93
		c-57.19,13.42-80.73,0.36-93.64-55.55c-2.73-11.84-5.4-25.9,9.76-36.1c10.21-6.87,16.7-19.28,30.62-36.25
		c-76.75,10.19-145.88,9.44-215.24,7.52c-2.46,13.14,9.48,18.35,12.44,27.57c3.24,10.11,17.75,12.3,15.43,27.05
		c-3.7,23.6-12,45.17-30.63,59.06c-12.27,9.14-28.5,3.47-41.83-4.97c-28.36-17.97-44.3-44.61-53.93-75.89
		c-12.17-39.57-15.65-80.44-18.6-121.4c0.22-12.95,6.58-13.24,18.17-12.03c171.45,17.88,341.23,8.2,508.32-35.28
		c20.46-5.32,24.11,0.8,26.31,17.64C2738.2,1654.24,2736.19,1674.67,2735.38,1695.17z"/>
	<path class="st9" d="M2735.38,1695.17c0.81-20.5,2.82-40.92,0.12-61.53c-2.2-16.84-5.85-22.97-26.31-17.64
		c-167.09,43.48-336.88,53.16-508.32,35.28c-11.59-1.21-17.95-0.91-18.17,12.03c-12.74-5.56-25.83-10.47-38.09-16.96
		c-6.48-3.44-12.03-9.74-9.95-18.35c2.01-8.35,5.83-14.93,15.93-17c26.69-5.48,52.45-1.09,78.18,5.37
		c-12.14,2.4-24.27,4.81-38.97,7.72c18.9,13.46,37.81,13.1,56.2,13.59c96.04,2.55,191.9-2.07,287.47-10.71
		c50.84-4.6,101.78-10.99,151.01-25.71c6.48-1.94,20.25,1.07,16.28-14.19c25.31-16.16,69.72-1.29,72.54,24.33
		c0.3,2.76,1.3,6.58-0.06,8.22C2754.73,1641.91,2745.95,1668.97,2735.38,1695.17z"/>
	<path class="st13" d="M2700.76,1587.08c3.97,15.26-9.8,12.25-16.28,14.19c-49.23,14.72-100.17,21.11-151.01,25.71
		c-95.57,8.64-191.43,13.25-287.47,10.71c-18.39-0.49-37.3-0.13-56.2-13.59c14.7-2.91,26.83-5.32,38.97-7.72
		c43.8-0.24,87.69,0.17,128.78-18.85c3.16-1.46,7.4-3.05,10.36-2.11c80.2,25.43,161.01,6.34,241.44,2.63
		C2639.8,1596.63,2671.01,1596.59,2700.76,1587.08z"/>
	<path class="st9" d="M1297.18,1188.19c-0.16,72.85-58.46,131.53-129.64,130.48c-75.61-1.11-129.97-56.98-129.4-132.99
		c0.55-73.41,56.4-127.05,131.77-126.55C1241.31,1059.61,1297.34,1116.42,1297.18,1188.19z M1165.99,1279.24
		c52.53,0.51,91.82-37.19,92.07-88.33c0.26-54.15-37.43-92.87-90.65-93.13c-53.44-0.26-90.54,36.26-90.6,89.2
		C1076.74,1238.4,1115.75,1278.75,1165.99,1279.24z"/>
	<path class="st9" d="M2275.53,1174.52c3.06,35.2-1.71,67.97-29.2,93.64c-21.58,8.7-43.49,13.75-66.53,5.77
		c-48.78-33.12-50.71-79.59-34.77-131.27c-39.43,7.28-58.94,30.48-65.13,66.4c-20,7.89-25.42,0.28-25-19.97
		c1.13-54.85,26.27-79.79,95.15-91.29c31.04-0.09,61.85,1.15,88.1,20.83C2257.06,1132.81,2274.21,1148.45,2275.53,1174.52z
		 M2205.04,1176.68c-2.04-9.74-7.19-19.15-18.96-18.87c-10.9,0.25-18.97,7.42-19.16,19.56c-0.19,11.84,6,19.71,18.07,19.9
		C2197.12,1197.46,2202.36,1188.68,2205.04,1176.68z"/>
	<path class="st10" d="M2079.9,1209.06c6.19-35.92,25.7-59.12,65.13-66.4c-15.94,51.68-14.01,98.16,34.77,131.27
		C2120.99,1273.28,2098.5,1258.67,2079.9,1209.06z"/>
	<path class="st9" d="M2284.57,1476.43c8.47-1.87,9.72,3.49,9.93,9.9C2291.96,1482.27,2282,1485.63,2284.57,1476.43z"/>
	<path class="st9" d="M3322.45,1413.63c-23.04,13.45-47.65,24.6-67.57,52.85c-1.92-27.59,8.28-42.99,20.01-56.38
		c23.68-27.02,29.03-55.04,11.64-87.37c-12.92-24.02-10.09-48.33,0.84-72.75c12.81-28.62,30.16-53.72,53.76-74.26
		c30.9-26.9,68.28-33.86,92.4-17.85c26.21,17.4,33.17,55.34,17.54,96.79c-8.35-6.49-6.07-17.25-10.53-25.11
		c-5.35-22.43-11.81-46.65-40.74-44.14c-45.19,3.91-90.46,79.77-72.74,121.96C3342.66,1344.44,3345.48,1379.13,3322.45,1413.63z"/>
	<path class="st14" d="M3322.45,1413.63c23.03-34.5,20.21-69.19,4.64-106.26c-17.72-42.19,27.54-118.04,72.74-121.96
		c28.92-2.51,35.39,21.71,40.74,44.14c-34.46,25.17-52.24,56.51-50.26,101.76C3392.72,1386.74,3370.93,1409.42,3322.45,1413.63z"/>
	<path class="st16" d="M2403.5,1468.38c2.53-13.03,10.32-16.91,18.05-19.49c12.1-4.03,24.09-2.08,34.75,5.09
		c1.69,1.14,3.15,6.06,2.31,6.96c-7.86,8.38-19,5.53-28.73,7.17C2421.85,1469.45,2413.42,1468.38,2403.5,1468.38z"/>
	<path class="st6" d="M2361.67,2947.58c18.84-0.83,30.63,7.62,30,29.41c-0.59,20.37-10.13,36.4-30.69,36.67
		c-19.47,0.26-34.5-14.55-34.92-33.86C2325.65,2960.58,2337.54,2946.58,2361.67,2947.58z"/>
	<path class="st10" d="M2733.65,1158.62c-2.48,13.5-9.56,22.49-24.11,21.55c-13.48-0.87-19.32-10.16-18.92-22.8
		c0.45-14.62,10.17-22.66,23.42-21.84C2726.15,1136.29,2733.04,1145.8,2733.65,1158.62z"/>
	<path class="st10" d="M2664.62,1145.73c-30.34,1.16-55.49,18.56-83.61,26.7c22.22-31.4,53.24-46.56,91.19-49.9
		C2673.93,1132.11,2667.39,1138.31,2664.62,1145.73z"/>
	<path class="st13" d="M2600.47,1101.89c0.06-6.57,4.37-10.31,9.57-12.57c49.03-21.28,99.45-30.28,152.12-15.69
		c2.53,0.7,3.87,5.66,5.77,8.64C2710.04,1071.11,2654.33,1078.65,2600.47,1101.89z"/>
	<path class="st13" d="M2589.32,1112.55c-1.22-9.43,2.76-13.02,12.02-10.66C2601.4,1110.04,2595.05,1110.94,2589.32,1112.55z"/>
	<path class="st13" d="M2571.89,1128.98c1.96-2.06,3.92-4.11,5.88-6.17C2578.31,1127.24,2577.64,1130.53,2571.89,1128.98z"/>
	<path class="st13" d="M2566.23,1134.53c1.99-2.03,3.99-4.06,5.98-6.09C2573.57,1133.76,2572.78,1136.98,2566.23,1134.53z"/>
	<path class="st13" d="M2582.94,1117.44c1.95-1.98,3.91-3.97,5.86-5.96C2589.58,1116.16,2587.36,1117.89,2582.94,1117.44z"/>
	<path class="st13" d="M2577.41,1123.21c1.94-2.03,3.87-4.07,5.8-6.11C2583.77,1121.51,2582.19,1123.88,2577.41,1123.21z"/>
	<path class="st10" d="M2205.04,1176.68c-2.68,12-7.91,20.77-20.05,20.59c-12.06-0.18-18.26-8.06-18.07-19.9
		c0.19-12.15,8.26-19.31,19.16-19.56C2197.85,1157.54,2203,1166.95,2205.04,1176.68z"/>
</g>
</svg>
