<?xml version="1.0" encoding="utf-8"?>
<!-- Generator: Adobe Illustrator 26.5.0, SVG Export Plug-In . SVG Version: 6.00 Build 0)  -->
<svg version="1.1" id="Capa_1" xmlns="http://www.w3.org/2000/svg" xmlns:xlink="http://www.w3.org/1999/xlink" x="0px" y="0px"
	 viewBox="0 0 3802.65 3962.09" style="enable-background:new 0 0 3802.65 3962.09;" xml:space="preserve">
<style type="text/css">
	.st0{fill:#072B19;}
	.st1{fill:#103424;}
	.st2{fill:#113424;}
	.st3{fill:#0F0E09;}
	.st4{fill:#4A4D26;}
	.st5{fill:#F9F9F9;}
	.st6{fill:#0A2D1B;}
	.st7{fill:#0D2F1C;}
	.st8{fill:#FAF3E3;}
	.st9{fill:#0A0C06;}
	.st10{fill:#F9F3E4;}
	.st11{fill:#FCFCFC;}
	.st12{fill:#686636;}
	.st13{fill:#FAB668;}
	.st14{fill:#DB8C46;}
	.st15{fill:#75939B;}
	.st16{fill:#271D0F;}
	.st17{fill:#E49816;}
	.st18{fill:#F6C044;}
	.st19{fill:#F9F6EE;}
	.st20{fill:#FAF8F5;}
	.st21{fill:#5B727C;}
</style>
<path class="st0" d="M3667.46,2518.04c31.5,10.7,42.13,25.15,42.13,57.41c-0.03,265.23-0.07,530.45-0.12,795.68
	c-0.01,45.64-27.33,68.01-71.07,57.42c-147.98-35.84-296.86-67.26-447.27-91.15c-181.6-28.84-364.28-48.38-547.54-62.74
	c-360.07-28.21-720.66-33.55-1081.56-24.11c-359.04,9.39-716.08,39.93-1069.98,102.88c-119.23,21.21-237.26,48.21-355.33,74.96
	c-40.48,9.17-60.69-2.53-73.74-42.52l1.05-0.46l0.68,0.92c6.34-6.33,3.75-14.38,3.75-21.68c0.1-261.23,0.07-522.46-0.09-783.69
	c0-7.33,2.45-15.33-3.48-21.82l-0.7,0.96l-1.09-0.46c6.8-21.76,18.13-38.82,43.22-41.57c7.89,6.67,17.32,3.44,25.96,3.45
	c1171.15,0.19,2342.29,0.21,3513.44,0.12C3653.02,2521.64,3661.09,2524.36,3667.46,2518.04z M2201.51,3038.92
	c0.39-0.95,0.77-1.89,1.16-2.84c-0.71,0.73-1.42,1.46-2.13,2.19c-13.16-3.43-21.28-14.53-33.16-22.61
	c-5.1,33.73-9.78,66.32-15.13,98.8c-1.3,7.91,2.13,10.87,8.28,14.15c47.8,25.52,98.09,33.04,150.51,19.04
	c38.9-10.39,64.51-36.26,76.99-74.51c3.83-11.75,5.91-24.07,8.78-36.13c10.11-2.21,7.29-10.42,7.3-16.76
	c0.14-119.45,0.13-238.89,0.1-358.34c0-5.38,1.22-11.23-4.04-15.28c0.1-1.43,0.2-2.86,0.29-4.28c9.6-1.58,7.5-7.29,5.48-13.85
	c-2.33-7.57-6.05-11.32-14.6-11.22c-33.14,0.39-66.28,0.12-99.43,0.18c-12.86,0.03-16.72,7.49-15.05,19.04
	c0.69,4.73,2.71,9.42,2.58,14.09c-3.59,129.38,8.02,259.02-6.3,388.22l-0.24,0.24c-9.27-0.41-18.65-1.06-22.4,10.41
	c-6.96,2.1-13.89,2.13-20.78-0.34c-5.86-11.87-16.38-10.31-26.72-9.26L2201.51,3038.92z M900.04,3069.76
	c-10.53-9.58-18.11-3.69-25.19,4.81c-1.34,0.14-2.67,0.27-4.01,0.41c-23.32-8.6-45.47-5.74-66.65,6.77
	c-6.85,0.56-13.71,1.13-20.56,1.69c-3.71-5.5-9.57-5.33-14.85-4.56c-17.9,2.59-24.33-3.99-23.14-22.56
	c1.98-30.92-2-62.15,4.37-92.91l1.48-0.73l1.56,0.55c4.9,3.53,9.59,4.39,13.82-1.03c4-0.3,7.99-0.6,11.99-0.89
	c2.12,1.57,4.1,4.21,6.4,4.54c25.7,3.64,50.85-7.78,77.18-1.79c9.84,2.24,13.19-13.11,4.83-22.47c-0.23-24.8-1.7-49.66-0.29-74.37
	c1.07-18.8-1.39-28.4-23.63-22.39c-10.96,2.97-23.26,0.98-34.96,1.23c-12.49-8.43-26.55-4.01-39.7-3.79
	c-16.58,0.27-23.64-4.84-22.95-22.3c1.08-27.31,0.29-54.7,0.29-82.06c1.37-0.02,2.75-0.03,4.12-0.05
	c18.71,8.96,38.56,2.24,57.79,4.16c5.45,0.54,11.19,0.48,12.91-6.7c19.39-1.36,38.78-2.07,58.15,0.28
	c3.96,10.22,12.48,6.74,19.23,5.44c7.1-1.38,5.64-8.4,5.66-13.65c0.11-30.76,0.04-61.51,0.07-92.27c0.01-6.39,0.06-12.71-8.66-13.42
	c-85.17,0.31-170.34,0.88-255.5,0.69c-15.59-0.03-26.68-0.68-19.09,20.89c3.74,10.65,2.37,23.29,2.39,35.03
	c0.2,139.88,0.4,279.77,0.2,419.65c-0.06,39.84,2.84,79.85-6.14,120.83c15.01-2.07,28.5-4.04,42.02-5.76
	c79.62-10.13,159.19-20.7,239.27-26.74c12.39-8.18,14.24-42.28,3.13-57.7c0.03-4.14,0.06-8.29,0.09-12.43
	c10.15-15.59,11.76-30.98-1.03-46.05L900.04,3069.76z M2470.97,2622.17l0.39-0.19c-7.72,0.14-9.88,4.43-7.24,10.95
	c4.08,10.1,2.39,20.53,2.4,30.79c0.13,147.39,0.14,294.78,0,442.17c-0.01,13.02,0.55,25.91-2.82,39.06
	c-4.09,16,7.42,25.94,24.09,23.02c17.14-3,34.03-1.84,51.32,0.29c20.06,2.47,40.79,6.55,60.6-2.58
	c45.22,2.85,90.49,5.16,135.64,8.89c13.23,1.09,17.94-0.85,17.48-15.44c-0.97-30.89,0.21-61.84,0.5-92.76
	c-1.87-11.57-11.06-8.23-17.95-8.3c-41.69-0.42-83.45,1.73-124.98-4.17c-6.84-0.97-14.63,0.36-14.74-9.81
	c-0.32-31.47-2.46-63.11,8.04-93.65c8.34-0.13,16.69-0.26,25.03-0.39c2.33,4.6,5.84,7.59,11.14,7.97
	c24.53,1.76,49.29-2.76,73.74,3.26c5.05,1.24,5.93-4.36,5.98-8.68c-0.13-21.31-0.43-42.62-0.35-63.94
	c0.16-44.74,0.25-44.72-43.14-46.33c-3.41-0.13-6.8-0.76-10.19-1.15c-1.1-7.49-6.66-7.62-12.4-7.59
	c-11.71,0.05-23.54-0.98-35.11,0.29c-17.65,1.95-24.79-3.4-23.53-22.46c1.68-25.38,0.38-50.95,0.36-76.44
	c50.87-0.71,101.77-3.53,154.41,2.82c0-33.5,0-66.55,0-99.61c7.01-2.05,16.84-2.15,14.81-12.95c-1.64-8.74-10.2-7.68-17.08-7.82
	c-2.07-0.04-4.15-0.01-6.23-0.01c-83.02,0-166.04-0.08-249.05,0.14C2484.93,2617.58,2476.63,2614.44,2470.97,2622.17z
	 M204.78,2875.27c-7.45,1.34-7.28,7.01-7.28,12.67c0.02,41.32,0.03,82.65,0.02,123.97c0,5.67-0.11,11.33,7.35,12.62
	c3.11,26.07,4.94,52.38,9.6,78.17c8.48,46.96,23.01,91.66,61.82,123.4c57.16,46.75,152.93,41.47,214.81-11.5
	c50.05-42.84,64.87-101.04,70.53-163.23c0.92-10.05-5.16-9.14-11.51-9.64c-29.67-2.36-59.43-4.05-88.93-7.79
	c-14.14-1.8-17.61,1.86-17.4,15.69c0.39,25.92-3.57,51.33-20.76,72.33c-22.73,27.76-60.45,23.88-77.19-7.66
	c-6.22-11.72-9.97-24.29-11.75-37.41c-10.11-74.46-7.8-149.17-4.44-223.9c1.31-29.08,3.18-58.18,14.79-85.45
	c8.49-19.94,22.38-33.25,45.5-33.35c20.68-0.09,37.22,12.91,45.93,35.78c5.23,13.72,8.28,28.06,7.57,42.65
	c-0.64,13.38,5.28,14.49,16.25,12.28c29.15-5.88,58.41-11.22,87.7-16.29c7.65-1.32,12.54-2.56,12.03-12.45
	c-2.39-46.76-13.87-89.86-44.41-126.97c-61.82-75.12-226.64-81.05-280.06,49.95C214.45,2769.41,209.8,2822.27,204.78,2875.27z
	 M1365.48,2891.65c0,4.2,0,8.4,0,12.6c-5.4,3.9-4.26,9.72-4.26,15.09c-0.07,61.86-0.09,123.73-0.05,185.59
	c0,5.37-1.14,11.17,4.05,15.21c-0.14,2.82-0.28,5.65-0.41,8.47c-12.1,6.41-12.57,17.01-8,27.51c3.47,7.98,6.96,4.1,8.45-2.14
	c2.79-0.08,5.59-0.17,8.38-0.25c31.7,7.92,63.97,1.92,95.89,4.1c17.03,1.16,20.66-9.6,19.06-22.09c-6.33-49.53-1-99.19-2.68-148.75
	c-0.22-6.4-2.26-14.58,8.17-16.02c8.83-1.22,14.69,2.44,17.81,10.61c5.16,13.5,8.86,27.76,15.66,40.36
	c9.23,17.09,7.41,39.16,24.16,52.63c7.43,20.04,15.27,39.95,22.07,60.2c2.48,7.38,4.7,11.52,13.8,11.39
	c38.5-0.57,77.01-0.24,116.64-0.24c-26.69-67.61-51.95-131.62-77.23-195.64c-2.73-6.92-6.98-13.01,2.98-19.05
	c39.42-23.9,54.55-62.32,61.69-105.47c18.44-111.54-43.65-194.3-155.49-202.09c-55.1-3.84-110.66-0.92-166.01-1.31
	c-5.84-0.04-9.22,1.24-9.08,7.57c-4.41,11.8-11.03,23.89,4.31,33.12c0.04,4.2,0.08,8.39,0.12,12.59
	c-7.22,33.21-7.09,66.42-0.02,99.64c0,2.83,0,5.65,0,8.48c-0.55,0.38-1.62,0.97-1.56,1.12c0.39,1.01,1.01,1.92,1.56,2.86
	c1.8,6.98,1.78,13.96-0.01,20.94C1358.42,2836.34,1358.35,2864,1365.48,2891.65z M2815.68,3161.61
	c-6.04,17.35,0.63,22.65,18.29,23.21c29.71,0.94,59.34,4.63,89.02,6.89c6.03,0.46,13.06,4.4,11.59-9.1
	c-6.81-62.78-1.93-125.86-2.82-188.82c-0.06-4.35-1.83-9.46,4.79-12.03c13.78-5.36,31.78,1.92,36.13,15.89
	c20.17,64.72,40.25,129.48,59.94,194.35c1.91,6.3,2.29,11.37,10.7,12.31c41.49,4.6,82.9,9.79,124.29,14.77
	c-28.87-81.29-56.72-160.96-85.68-240.23c-5.86-16.05-4.31-24.82,11.12-34.74c22.68-14.58,36.14-37.75,44.61-63.4
	c9.91-30,12.87-60.92,11.15-92.27c-5.16-93.7-60.59-152.86-153.81-163.24c-53.81-5.99-108-0.55-161.89-3.51
	c-18.82-1.03-22.09,5.23-17.43,20.95c-5.66,6.59-3.39,14.56-3.4,21.93c-0.16,159.09-0.18,318.17-0.12,477.26
	C2812.17,3148.53,2810.15,3155.8,2815.68,3161.61z M3569.41,2949.22c0-73.79-1.1-141.61-22.29-207.18
	c-25.79-79.77-85.26-125.48-163.56-125.76c-79.74-0.29-133.75,41.53-160.5,124.63c-3.6,11.17-6.66,22.64-8.58,34.21
	c-16.88,101.97-15.99,204.06-0.51,306.05c5.36,35.31,18.17,68.3,38.28,97.91c42.01,61.86,102.4,85.35,174.51,76.86
	c67.65-7.97,102.32-54.69,122.45-115.05c2.62-7.85,4.48-15.98,6.35-24.05C3568.81,3059.7,3568.63,3001.48,3569.41,2949.22z
	 M1306.03,3156.03c-12.73-31.86-24.5-61.33-36.26-90.79c-11.78-29.52-22.32-59.63-35.72-88.4c-10.12-21.72-12.32-37.04,11.86-51.97
	c18.14-11.19,28.48-31.8,35.69-52.38c13.07-37.28,16.45-75.64,10.04-114.6c-12.46-75.71-62.06-123.75-138.58-132.42
	c-63.39-7.18-127.09-1.23-193.06-3.31c8.03,23.25,6.73,45.41,6.75,67.44c0.17,146.03,0.21,292.06,0.29,438.09
	c0.01,13.84,0.22,27.69-4.65,41c-2.61,7.12-2.3,11.66,7.69,10.66c37.41-3.76,74.86-7,114.33-10.63c-6.17-11.88-5.94-22.3-5.94-32.65
	c-0.02-47.06-0.24-94.13,0.36-141.18c0.09-7.3-6.32-19.58,9.47-20.27c13.17-0.58,25.7-4.96,31.88,15.06
	c16.88,54.76,36.71,108.6,54.82,162.98c2.71,8.14,6.12,10.57,14.63,10C1228.11,3160.06,1266.65,3158.2,1306.03,3156.03z
	 M2124.02,3143.17c-0.14,0.58,0.26-0.11,0.12-0.67c-41.81-169.09-83.54-338.21-121.03-508.32c-2.1-9.54-4.39-12.27-13.96-12.05
	c-29.75,0.67-59.53,0.31-89.3,0.27c-32.34-0.05-32.22-0.06-38.72,29.79c-34.68,159.34-72.37,317.98-111.47,476.28
	c-3.12,12.65-1.69,15.5,10.99,14.98c22.81-0.93,45.68-0.69,68.52-0.75c31.48-0.09,31.49-0.01,37.06-29.29
	c1.03-5.43,1.78-10.93,2.93-16.34c9.32-44.01,9.35-44.4,53.98-43.4c21.29,0.47,49.55-8.9,62.01,4.25
	c12.89,13.6,10.82,41.42,15.14,63.04c0.67,3.36,1.28,7.03,0.65,10.31c-1.76,9.15,1.54,12.15,10.77,12.06
	C2049.05,3142.95,2086.39,3143.17,2124.02,3143.17z"/>
<path class="st1" d="M1796.25,3897.43c11.3-32.56,22.39-65.2,34.03-97.64c3.55-9.9,3.53-16.46-5.43-24.91
	c-39.84-37.57-39.11-97.65,0.33-136.43c35.9-35.3,97.13-34.45,132.78,1.83c36.96,37.61,35.76,99.26-3.55,135.21
	c-7.47,6.83-9.37,12.2-5.81,21.17c5.57,14.07,10.34,28.45,15.45,42.7c-3.51,14.37,4.36,26.17,9.34,38.37
	c5.82,14.26,3.06,20.61-13.32,20.44C1905.46,3897.6,1850.86,3897.63,1796.25,3897.43z"/>
<path class="st2" d="M1674.58,3853.56c-48.84-9.53-97.94-17.96-146.49-28.81c-142.95-31.94-279.7-81.85-411.93-144.52
	c-11.65-5.52-21.81-12.78-14.9-26.79c6.85-13.89,19.52-13.21,32.25-7.28c78.34,36.48,158.36,68.72,240.57,95.48
	c94.86,30.88,191.61,53.69,290.06,69.5c5.46,0.88,11.01,1.48,16.35,2.86c11.01,2.83,16.5,10.46,14.68,21.5
	C1693.41,3846.27,1686.35,3852.37,1674.58,3853.56z"/>
<path class="st2" d="M2102.49,3852.12c-10.72,0.04-18.05-5.28-18.99-16.81c-1-12.3,5.59-19.28,17.65-21.41
	c34.04-6.01,68.17-11.6,102.09-18.25c151.33-29.68,296.34-78.43,435.34-145.14c3.74-1.79,7.41-3.75,11.24-5.32
	c11.52-4.72,22.55-4.52,28.21,8.13c5.57,12.44-0.73,20.7-12.43,26.38c-135.45,65.75-276.14,116.31-423.73,147.18
	C2195.86,3836.51,2149.84,3845.98,2102.49,3852.12z"/>
<path class="st2" d="M2196.86,3373.83c-4.14-6.37-8.59-12.76,4.76-12.66c27.6,0.22,55.26-0.8,82.77,0.85
	c25.1,1.51,42.82,16.2,48.14,36c5.81,21.64-0.85,39.42-22.45,57.32c12.29,6.62,23.03,14.24,27.74,27.91
	c11.46,33.26-5.62,65.43-40.45,73.17c-32,7.12-64.67,3.09-96.98,2.66c-16.21-0.22-2.88-9.75-2.12-15.18
	c7.45-1.91,6.35-7.95,6.36-13.35c0.09-47.51,0.15-95.02,0.19-142.53C2204.82,3381.81,2205.65,3375.11,2196.86,3373.83z
	 M2247.88,3502.26c0.8,3.37-8.5,18.6,13.13,17.39c16.24-0.9,29.35-3.75,29.37-22.91c0.02-16.67-11.27-20.78-26.19-21.84
	C2246.74,3473.66,2245.16,3483.1,2247.88,3502.26z M2246.91,3419.57c0.88,8.84-4.93,21.5,13.33,20.21
	c13.09-0.93,23.36-3.41,24.01-18.75c0.64-15.13-8.16-19.42-22.05-20.25C2246.98,3399.86,2244.98,3407.45,2246.91,3419.57z"/>
<path class="st2" d="M2687.57,3460.94c-1.53,12.33-2.23,24.82-4.74,36.94c-8.03,38.77-35.55,62.39-73.53,64.02
	c-41.37,1.77-70.21-18.81-81.67-58.99c-8.16-28.6-7.69-57.65-0.23-86.16c10.15-38.81,40.14-60.33,79.7-59.01
	c39.94,1.33,67.22,24.43,75.83,63.89C2685.75,3434.57,2686.81,3447.61,2687.57,3460.94z M2573.9,3459.06
	c-0.05,13.84-0.27,27.72,4.85,40.91c4.67,12.03,13.08,19.33,26.5,19.4c12.7,0.06,21.44-6.89,25-18.2
	c8.47-26.95,9.32-54.39,0.2-81.44c-4.18-12.4-13.53-18.71-27.04-18.17c-12.63,0.51-20.34,7.41-24.75,18.66
	C2573.76,3432.74,2573.92,3445.92,2573.9,3459.06z"/>
<path class="st2" d="M1072.56,3361.76c25.58,0,53.97-1.86,82.01,0.46c36.02,2.98,56.92,23.45,65.89,59.12
	c6,23.87,6.68,47.87,1.03,71.85c-9.57,40.64-32.88,62.15-74.55,65.87c-22.64,2.02-45.6,0.34-68.42,0.56
	c-8.23,0.08-9.25-2.06-8.35-10.95C1076.43,3486.79,1073.47,3424.82,1072.56,3361.76z M1121.6,3459.05c-0.05,0-0.09,0-0.14,0
	c0,11.77-0.58,23.57,0.2,35.28c0.51,7.71-4.59,18.71,4.63,22.41c10.41,4.18,21.9,1.01,31.17-6.36
	c22.45-17.86,22.52-83.94,0.08-101.25c-6.19-4.77-13.49-6.39-21.32-7.03c-10.19-0.82-15.5,1.65-14.82,13.35
	C1122.24,3429.94,1121.6,3444.51,1121.6,3459.05z"/>
<path class="st2" d="M1894.96,3362.03c-4.62,46.3-1.86,91.2-1.61,135.99c0.07,12.29,8.57,20.31,21.7,20.72
	c14.22,0.45,22.98-7.6,23.4-21.05c1.37-44.81,3.01-89.69-1.15-135.51c16.77,0,35.19,0,53.64,0c-4.15,42.5-1.81,84.99-2.14,127.43
	c-0.36,47.66-25.53,72.5-73.7,72.2c-49.13-0.3-72.12-23.8-71.78-73.12c0.23-33.22-0.13-66.45,0.58-99.65
	c0.2-9.21-3.59-17.34-4.59-27C1858.29,3362.03,1876.79,3362.03,1894.96,3362.03z"/>
<path class="st2" d="M1666.77,3361.27c24.91,0,51.14-0.62,77.33,0.15c38.7,1.13,63.69,26.5,64.46,64.17
	c0.81,39.71-22.29,65.98-61.29,69.69c-30.11,2.86-30.11,2.86-29.96,33.71c0.01,1.38,0.38,2.91-0.07,4.13
	c-3.3,8.8,9.79,22.43,0.2,24.96c-16.14,4.25-34.25,2-51.41,0.84c-5.68-0.39-1.28-6.52-0.93-10.22
	C1670.97,3486.81,1668.08,3424.98,1666.77,3361.27z M1717.58,3428.24c0.23,29.71,0.23,29.71,11.38,29.91
	c18.78,0.33,30.33-11,29.71-29.16c-0.62-17.99-11.11-27.76-29.33-27.04C1705.61,3402.87,1723.84,3421.55,1717.58,3428.24z"/>
<path class="st2" d="M2153.66,3407.32c-17.05-6.32-32.99-4.02-48.63-5.38c-15.92-1.39-21.39,3.41-21.04,20.19
	c0.3,14.33,5.11,18.48,18,17.05c3.42-0.38,7.2,0.77,10.33-0.25c26.17-8.51,25.36,6.93,24.83,25.55
	c-0.41,14.26-2.43,20.89-17.99,14.25c-3.51-1.5-8.21-0.18-12.36-0.17c-19.84,0.07-29.88,16.36-21.73,34.56
	c2.8,6.24,7.82,4.75,12.27,4.82c19.25,0.31,38.65,1.99,56.85-5.61c0.81,1.46,1.4,2.05,1.43,2.67c2.75,44.49,2.74,44.54-41.75,44.59
	c-24.23,0.03-48.45,0.02-72.67-0.39c-4.44-0.07-13.02,2.77-10.25-7.28c7.7-27.91,3.84-56.36,3.55-84.46
	c-0.34-33.04,4.4-66.33-2.93-99.18c-1.89-8.48,4.46-6.81,8.76-6.84c33.91-0.22,67.83,0.01,101.74-0.52
	c9.32-0.15,12.12,3.38,11.71,12.12C2153.27,3383.95,2153.66,3394.9,2153.66,3407.32z"/>
<path class="st2" d="M1366.19,3482.03c-11.7-3.02-21.39-2.64-30.79-3.77c-18.6-2.23-21.39,6.24-21.02,22.32
	c0.3,13.13,2.83,18.82,17.11,17.82c17.78-1.25,35.92,1.56,52.58-6.78c1.05,1.99,2.16,3.13,2.21,4.31
	c1.83,43.76,1.82,43.78-42.7,43.79c-24.2,0.01-48.41-0.5-72.6,0.1c-10.98,0.28-13.32-2.05-8.6-12.61
	c5.82-13.01,2.78-27.35,2.55-41.02c-0.77-45.5,4.04-91.17-3.07-136.46c-1.44-9.15,3.16-8.65,8.96-8.65
	c33.88,0.01,67.76,0.21,101.64-0.18c8.35-0.1,10.9,3.08,10.62,10.89c-0.39,10.94-0.1,21.91-0.1,34.82
	c-19.06-5.37-37.4-3.39-55.57-4.56c-14.7-0.95-13.05,8.11-12.77,17.14c0.29,9.13-3.21,20.81,13.06,19.16
	c3.42-0.35,6.91,0.07,10.36,0.08c28.49,0.02,28.48,0.02,28.11,28.52C1366.14,3471.04,1366.19,3475.11,1366.19,3482.03z"/>
<path class="st3" d="M3667.46,2518.04c-6.38,6.32-14.45,3.6-21.74,3.6c-1171.15,0.1-2342.29,0.08-3513.44-0.12
	c-8.64,0-18.07,3.23-25.96-3.45c19.36-0.45,38.71-1.3,58.07-1.3c1160.81-0.02,2321.61,0.04,3482.42,0.13
	C3653.69,2516.91,3660.58,2517.65,3667.46,2518.04z"/>
<path class="st2" d="M2497.35,3510.42c5.27,49,5.27,48.93-39.94,48.93c-23.5,0-46.99,0.18-70.49,0.5c-8.55,0.11-12,0.55-11-12.01
	c4.64-58.43,4.63-117.08,0.16-175.59c-0.59-7.7-1.65-12,7.76-10.93c0.68,0.08,1.38,0,2.07,0.01c14.5,0.03,32.26-4.98,42.49,1.64
	c8.65,5.6-0.79,24.34-0.3,37.52c1.25,33.82,0.9,67.72,0.32,101.57c-0.19,11.16,2.26,16.5,14.6,15.44
	C2460.7,3515.99,2478.92,3519.97,2497.35,3510.42z"/>
<path class="st2" d="M1427.98,3373.85c-2.57-5.21-8.82-11.45,3.41-12.61c2.05-0.19,4.14-0.04,6.2-0.03
	c13.77,0.04,30.7-4.77,40.42,1.53c9.43,6.11-1.34,23-0.87,35.54c1.28,34.44,0.82,68.96,0.21,103.44c-0.2,11.13,2,16.81,14.59,15.46
	c12.29-1.31,26.11,2.15,36.82-2.33c21.18-8.84,18.58,3.34,18.4,16.29c-0.39,28.17-0.2,28.28-28.3,28.44
	c-26.9,0.16-53.83-0.7-80.68,0.4c-16.08,0.66-16.17-4.97-9.14-16.05c7.53-1.65,6.69-7.62,6.7-13.09
	c0.05-47.57,0.09-95.14,0.11-142.7C1435.86,3381.96,1436.75,3375.23,1427.98,3373.85z"/>
<path class="st2" d="M897.19,3493.43c-18.65,0-37.31-0.16-55.96,0.05c-14.4,0.17-21.61-6.05-21.78-21.01
	c-0.19-16.03,7.53-22.32,22.86-22.21c37.3,0.27,74.61,0.35,111.91,0.04c15.5-0.13,25.66,4.6,25.4,22.11
	c-0.27,17.89-11.56,21.33-26.48,21.04c-18.65-0.36-37.3-0.09-55.96-0.09C897.19,3493.38,897.19,3493.41,897.19,3493.43z"/>
<path class="st2" d="M2846.88,3450.46c19.31,0,38.62,0.23,57.92-0.08c14.57-0.23,22.08,6.61,22.04,21.01
	c-0.04,13.92-6.74,21.98-21.45,21.97c-39.3-0.01-78.6-0.01-117.91,0.05c-14.1,0.02-19.72-8.15-19.83-20.98
	c-0.1-12.7,5.08-21.52,19.23-21.65c19.99-0.18,39.99-0.05,59.99-0.05C2846.88,3450.65,2846.88,3450.55,2846.88,3450.46z"/>
<path class="st4" d="M1796.25,3897.43c54.6,0.2,109.21,0.18,163.81,0.73c16.37,0.17,19.14-6.18,13.32-20.44
	c-4.98-12.19-12.85-23.99-9.34-38.37c31.6,65.51,31.6,65.58-39.6,65.83c-37.28,0.14-74.57,0.24-111.84-0.36
	C1806.94,3904.73,1796.6,3910.84,1796.25,3897.43z"/>
<path class="st3" d="M1427.98,3373.85c8.77,1.38,7.88,8.11,7.88,14.29c-0.02,47.57-0.05,95.14-0.11,142.7
	c-0.01,5.47,0.84,11.44-6.7,13.09C1428.7,3487.24,1428.34,3430.55,1427.98,3373.85z"/>
<path class="st3" d="M2196.86,3373.83c8.79,1.28,7.96,7.98,7.95,14.18c-0.05,47.51-0.1,95.02-0.19,142.53
	c-0.01,5.39,1.09,11.44-6.36,13.35C2197.79,3487.2,2197.32,3430.51,2196.86,3373.83z"/>
<path class="st5" d="M3569.41,2949.22c-0.79,52.27-0.61,110.48-13.85,167.62c-1.87,8.08-3.74,16.2-6.35,24.05
	c-20.13,60.35-54.79,107.08-122.45,115.05c-72.11,8.5-132.5-15-174.51-76.86c-20.11-29.61-32.92-62.6-38.28-97.91
	c-15.48-101.99-16.37-204.08,0.51-306.05c1.91-11.56,4.98-23.04,8.58-34.21c26.74-83.11,80.76-124.92,160.5-124.63
	c78.3,0.28,137.77,45.99,163.56,125.76C3568.32,2807.61,3569.41,2875.42,3569.41,2949.22z M3326.98,3032.99
	c-0.04,25.81,3.77,50.97,14.35,74.63c9.15,20.48,24.07,33.66,47.92,33.15c23.36-0.5,36.03-15.31,44.48-34.78
	c5.53-12.73,8.09-26.35,9.63-40.13c8.34-74.47,5.89-149.09,2.43-223.66c-1.06-22.69-4.08-45.45-11.87-67.13
	c-9.96-27.72-27.42-41.75-50.81-41.04c-22.07,0.67-39.38,15.62-47.41,42.47c-5.95,19.88-9.76,40.25-8.75,61.22
	C3322.18,2902.81,3321.81,2967.9,3326.98,3032.99z"/>
<path class="st5" d="M2815.68,2642.63c-4.66-15.71-1.4-21.98,17.43-20.95c53.89,2.96,108.07-2.48,161.89,3.51
	c93.22,10.37,148.66,69.53,153.81,163.24c1.73,31.36-1.24,62.27-11.15,92.27c-8.47,25.65-21.94,48.82-44.61,63.4
	c-15.43,9.93-16.98,18.69-11.12,34.74c28.96,79.27,56.81,158.94,85.68,240.23c-41.38-4.98-82.8-10.17-124.29-14.77
	c-8.42-0.93-8.79-6-10.7-12.31c-19.69-64.87-39.77-129.63-59.94-194.35c-4.35-13.97-22.34-21.25-36.13-15.89
	c-6.63,2.58-4.86,7.69-4.79,12.03c0.9,62.95-3.98,126.04,2.82,188.82c1.46,13.5-5.57,9.56-11.59,9.1
	c-29.68-2.27-59.3-5.96-89.02-6.89c-17.65-0.56-24.33-5.86-18.29-23.21c3.46-9.99,3.12-20.39,3.12-30.72
	c0.02-151.8,0.05-303.61-0.16-455.41C2818.62,2664.53,2816.71,2653.58,2815.68,2642.63z M2931.49,2806.58
	c0,12.44,0.01,24.87,0,37.31c-0.02,36.89-0.02,36.89,37.95,35.33c30.75-1.26,49.08-13.4,57.12-39.02
	c6.55-20.87,7.27-42.14,0.84-63.28c-8.09-26.59-26.7-41.25-54.55-42.87c-9.65-0.56-19.4,0.24-29-0.7
	c-10.55-1.03-12.81,3.65-12.55,13.12C2931.86,2766.49,2931.47,2786.54,2931.49,2806.58z"/>
<path class="st5" d="M1306.03,3156.03c-39.38,2.17-77.92,4.03-116.4,6.63c-8.51,0.58-11.92-1.85-14.63-10
	c-18.11-54.39-37.94-108.23-54.82-162.98c-6.17-20.02-18.71-15.64-31.88-15.06c-15.78,0.69-9.37,12.97-9.47,20.27
	c-0.6,47.05-0.38,94.12-0.36,141.18c0,10.35-0.23,20.76,5.94,32.65c-39.47,3.62-76.93,6.87-114.33,10.63
	c-9.99,1-10.3-3.54-7.69-10.66c4.88-13.31,4.66-27.16,4.65-41c-0.08-146.03-0.12-292.06-0.29-438.09
	c-0.03-22.03,1.27-44.2-6.75-67.44c65.97,2.08,129.67-3.87,193.06,3.31c76.52,8.67,126.12,56.71,138.58,132.42
	c6.41,38.96,3.03,77.32-10.04,114.6c-7.21,20.58-17.56,41.19-35.69,52.38c-24.18,14.93-21.98,30.25-11.86,51.97
	c13.4,28.77,23.94,58.87,35.72,88.4C1281.52,3094.7,1293.3,3124.16,1306.03,3156.03z M1105.21,2731.32
	c-6.95,5.95-26.13-11.16-26.39,12.33c-0.46,40.1-0.24,80.2-0.11,120.31c0.01,4.3-1.89,9.28,5.12,11.63
	c19.52,6.54,66.47-5.64,78.49-22.94c19.21-27.65,20.57-58.26,8.22-88.84C1159.04,2735.35,1133.61,2731.34,1105.21,2731.32z"/>
<path class="st5" d="M1365.48,2904.25c0-4.2,0-8.4,0-12.6c-0.01-27.66-0.02-55.32-0.02-82.98c1.79-6.98,1.81-13.96,0.01-20.94
	c0-1.33,0-2.65,0-3.98c0-2.83,0-5.65,0-8.48c0.01-33.21,0.01-66.42,0.02-99.64c-0.04-4.2-0.08-8.39-0.12-12.58
	c1.14-11.37,1.1-22.59-4.31-33.12c-0.13-6.34,3.24-7.61,9.08-7.57c55.35,0.39,110.92-2.53,166.01,1.31
	c111.84,7.8,173.93,90.55,155.49,202.09c-7.13,43.15-22.26,81.57-61.69,105.47c-9.95,6.03-5.71,12.13-2.98,19.05
	c25.28,64.01,50.55,128.03,77.23,195.64c-39.63,0-78.14-0.33-116.64,0.24c-9.1,0.13-11.32-4-13.8-11.39
	c-6.81-20.25-14.64-40.16-22.07-60.2c-10.99-32.7-22.45-65.25-32.77-98.16c-5.45-17.4-18.76-9.35-29.2-10.8
	c-8.29-1.15-10.55,3.2-10.45,10.99c0.68,53.24-2.6,106.57,2.27,159.68c1,10.93-0.85,12.55-10.6,12.88
	c-32.46,1.08-64.89,2.98-97.34,4.57c-2.79,0.08-5.59,0.17-8.38,0.25c-10.43-8.27,3.89-16.99-0.45-25.37
	c0.14-2.82,0.28-5.65,0.41-8.47C1367.59,3048.19,1366.73,2976.22,1365.48,2904.25z M1558.14,2851.87c-0.29-0.4-0.58-0.81-0.87-1.21
	c0.31,0.39,0.62,0.79,0.93,1.18c1.38-1.4,2.76-2.79,4.14-4.19c-0.24-0.4-0.48-0.8-0.72-1.2c0.26,0.39,0.52,0.78,0.79,1.18
	c20.43-27.07,21.69-66.57,3.01-93.84l0.24,0.33c-1.5-1.85-3-3.71-4.5-5.56c-1.03-0.95-2.06-1.9-3.09-2.84
	c-1.87-1.38-3.73-2.76-5.6-4.14c-4.53-4.95-10.12-7.44-16.86-7.3c-15.3-6.38-31.33-2.58-47.04-3.4c-9.5-0.5-9.25,5.95-9.24,12.38
	c0.06,37.92,0.11,75.83,0.17,113.75c0.01,5.47-1.1,11.9,7.58,11.34c17.66-1.14,35.89,2.86,52.77-5.66c1.62-0.59,3.24-1.18,4.86-1.77
	c2.92-1.84,5.83-3.67,8.75-5.51l-0.24,0.2C1554.85,2854.36,1556.49,2853.11,1558.14,2851.87z"/>
<path class="st5" d="M204.78,2875.27c5.02-53.01,9.67-105.86,30.17-156.12c53.43-131,218.24-125.07,280.06-49.95
	c30.54,37.11,42.02,80.21,44.41,126.97c0.51,9.9-4.38,11.13-12.03,12.45c-29.3,5.07-58.56,10.41-87.7,16.29
	c-10.97,2.21-16.9,1.09-16.25-12.28c0.7-14.6-2.34-28.93-7.57-42.65c-8.72-22.87-25.26-35.87-45.93-35.78
	c-23.11,0.1-37.01,13.42-45.5,33.35c-11.61,27.27-13.48,56.37-14.79,85.45c-3.36,74.72-5.67,149.44,4.44,223.9
	c1.78,13.12,5.53,25.68,11.75,37.41c16.73,31.54,54.46,35.43,77.19,7.66c17.19-21,21.16-46.41,20.76-72.33
	c-0.21-13.83,3.26-17.48,17.4-15.69c29.5,3.74,59.26,5.43,88.93,7.79c6.35,0.51,12.43-0.41,11.51,9.64
	c-5.67,62.18-20.48,120.39-70.53,163.23c-61.88,52.96-157.65,58.24-214.81,11.5c-38.82-31.74-53.35-76.44-61.82-123.4
	c-4.66-25.79-6.49-52.1-9.6-78.17C204.84,2974.78,204.81,2925.03,204.78,2875.27z"/>
<path class="st5" d="M750.14,2737.86c-1.37,0.02-2.75,0.03-4.12,0.05c-5.45-0.88-7.32,1.97-7.34,6.93
	c-0.12,31.66-0.05,63.32-0.56,94.97c-0.16,9.74,4.44,11.48,12.72,10.73c19.16-1.72,38.36-3.01,57.54-4.48
	c11.69-0.25,24,1.74,34.96-1.23c22.24-6.02,24.7,3.58,23.63,22.39c-1.41,24.7,0.06,49.57,0.29,74.37
	c0.49,11.55-2.91,15.69-16.41,15.27c-23.94-0.75-48.2-0.26-72,4.45c-4,0.3-7.99,0.6-11.99,0.89c-4.75-1.55-9.32-0.84-13.82,1.03
	l-1.56-0.55c0,0-1.48,0.73-1.48,0.74c-12.85-3.33-11.36,5.74-11.4,13.31c-0.15,23.46-0.2,46.92-0.3,70.38
	c-0.21,45.85-0.21,45.85,45.33,36.35c6.85-0.56,13.71-1.13,20.56-1.69c22.41-0.39,44.67-2.14,66.65-6.77
	c1.34-0.14,2.67-0.27,4.01-0.41c8.4-1.6,16.79-3.21,25.19-4.81l0.55,0.35c0.34,15.35,0.69,30.7,1.03,46.05
	c-0.03,4.14-0.06,8.29-0.09,12.43c-1.04,19.23-2.08,38.47-3.13,57.7c-80.08,6.05-159.65,16.61-239.27,26.74
	c-13.52,1.72-27,3.7-42.02,5.76c8.99-40.98,6.09-80.99,6.14-120.83c0.2-139.88,0-279.77-0.2-419.65
	c-0.02-11.74,1.36-24.38-2.39-35.03c-7.58-21.57,3.51-20.93,19.09-20.89c85.17,0.19,170.34-0.38,255.5-0.69
	c4.04,32.99,0.17,66.13,1.94,99.11c0.84,15.64-4.74,18.98-18.23,14.79c-19.37-2.35-38.76-1.64-58.15-0.28
	C797.21,2734.23,773.6,2733.92,750.14,2737.86z"/>
<path class="st5" d="M2124.02,3143.17c-37.63,0-74.97-0.22-112.31,0.15c-9.23,0.09-12.53-2.91-10.77-12.06
	c0.63-3.28,0.02-6.95-0.65-10.31c-4.32-21.63-2.25-49.44-15.14-63.04c-12.45-13.15-40.72-3.77-62.01-4.25
	c-44.63-1-44.66-0.61-53.98,43.4c-1.15,5.41-1.89,10.9-2.93,16.34c-5.57,29.28-5.58,29.2-37.06,29.29
	c-22.84,0.06-45.71-0.18-68.52,0.75c-12.68,0.51-14.12-2.34-10.99-14.98c39.1-158.3,76.79-316.94,111.47-476.28
	c6.5-29.86,6.38-29.84,38.72-29.79c29.77,0.04,59.54,0.4,89.3-0.27c9.57-0.22,11.86,2.52,13.96,12.05
	c37.49,170.11,79.22,339.23,121.03,508.32C2124.28,3143.06,2123.89,3143.75,2124.02,3143.17z M1932.47,2778.2
	c-4.9,23.8-8.86,42.68-12.66,61.59c-3.96,19.66-8.02,39.31-11.6,59.05c-3.29,18.14-17.71,42.22-7.97,52.63
	c10.83,11.57,36.6,2.76,55.84,3.67c0.69,0.03,1.39-0.07,2.08,0.01c8.29,1.04,11.18-2.01,9.35-10.58
	C1956.01,2890.76,1944.8,2836.91,1932.47,2778.2z"/>
<path class="st5" d="M2628.74,2950.05c-8.34,0.13-16.69,0.26-25.03,0.39c-8.49-1.23-16.06-3.21-15.63,10.76
	c0.89,28.34,0.54,56.75-0.21,85.11c-0.29,11.11,4.03,14.2,14.41,14.46c50.37,1.22,100.5,8.95,151.05,5.61
	c-0.3,30.92-1.47,61.88-0.5,92.76c0.46,14.59-4.25,16.53-17.48,15.44c-45.15-3.73-90.42-6.04-135.64-8.89
	c-29.59-2.2-59.17-4.51-88.77-6.57c-12.4-0.86-27.88,3.17-36.5-2.85c-11.44-7.98,1.03-22.9,0.83-35.17
	c-2.75-166.36,3.76-332.79-3.9-499.12c0,0-0.39,0.19-0.39,0.19c86.86,0.06,173.72,0.31,260.58-0.05
	c12.14-0.05,20.06,1.68,18.1,16.09c0,33.05,0,66.11,0,99.61c-52.64-6.35-103.54-3.54-154.41-2.82c-14.06,8.36-6.24,21.96-6.33,32.58
	c-0.2,23.81-10.8,56.36,4.66,69.23c16,13.33,47.55,5.25,72.35,4.39c3.4,0.4,6.79,1.03,10.19,1.15c43.39,1.61,43.3,1.59,43.14,46.33
	c-0.08,21.31,0.22,42.62,0.35,63.94C2689.31,2951.64,2659.17,2945.74,2628.74,2950.05z"/>
<path class="st5" d="M2229.71,3049.13c6.89,2.47,13.82,2.44,20.78,0.34c9.13,0.11,16.76-3.01,22.4-10.41c0,0,0.24-0.24,0.24-0.24
	c14.33-12.36,13.92-29.39,13.95-45.93c0.18-100.41,0.14-200.81,0.04-301.22c-0.02-19.37,1.32-38.94-3.45-57.91
	c-2.62-10.42,1.91-11.55,10.32-11.48c29.77,0.26,59.59,1.03,89.31-0.24c16.72-0.72,22.67,4.03,17.14,20.33
	c-0.1,1.43-0.2,2.86-0.29,4.28c-0.68,15.18-1.87,30.37-1.95,45.55c-0.59,114.94-0.96,229.88-1.4,344.82
	c-2.88,12.06-4.95,24.39-8.78,36.13c-12.48,38.25-38.09,64.12-76.99,74.51c-52.43,14-102.71,6.48-150.51-19.04
	c-6.15-3.28-9.59-6.24-8.28-14.15c5.35-32.48,10.03-65.07,15.13-98.8c11.89,8.08,20,19.18,33.16,22.61l0.98,0.65
	c0,0,1.48,0.95,1.48,0.95C2210.91,3045.81,2219.76,3049.05,2229.71,3049.13z"/>
<path class="st2" d="M2471.36,2621.98c7.66,166.33,1.16,332.76,3.9,499.12c0.2,12.26-12.27,27.18-0.83,35.17
	c8.62,6.02,24.1,1.99,36.5,2.85c29.6,2.06,59.18,4.36,88.77,6.57c-19.81,9.13-40.54,5.06-60.6,2.58
	c-17.29-2.13-34.18-3.29-51.32-0.29c-16.67,2.91-28.18-7.02-24.09-23.02c3.36-13.15,2.8-26.04,2.82-39.06
	c0.14-147.39,0.13-294.78,0-442.17c-0.01-10.27,1.69-20.7-2.4-30.79C2461.48,2626.42,2463.64,2622.12,2471.36,2621.98z"/>
<path class="st2" d="M2400.45,2642.36c5.53-16.29-0.42-21.04-17.14-20.33c-29.72,1.28-59.54,0.5-89.31,0.24
	c-8.4-0.07-12.93,1.06-10.32,11.48c4.76,18.97,3.43,38.55,3.45,57.91c0.09,100.41,0.14,200.81-0.04,301.22
	c-0.03,16.54,0.38,33.57-13.95,45.93c14.32-129.2,2.71-258.83,6.3-388.22c0.13-4.67-1.9-9.36-2.58-14.09
	c-1.67-11.55,2.19-19.01,15.05-19.04c33.14-0.07,66.29,0.2,99.43-0.18c8.55-0.1,12.27,3.65,14.6,11.22
	C2407.95,2635.07,2410.05,2640.78,2400.45,2642.36z"/>
<path class="st4" d="M2815.68,2642.63c1.03,10.95,2.94,21.9,2.96,32.85c0.22,151.8,0.19,303.61,0.16,455.41
	c0,10.32,0.34,20.73-3.12,30.72c-5.53-5.81-3.51-13.08-3.51-19.79c-0.07-159.09-0.05-318.17,0.12-477.26
	C2812.29,2657.2,2810.02,2649.23,2815.68,2642.63z"/>
<path class="st2" d="M1373.64,3153.74c32.44-1.59,64.88-3.49,97.34-4.57c9.76-0.32,11.61-1.95,10.6-12.88
	c-4.88-53.1-1.59-106.44-2.27-159.68c-0.1-7.8,2.16-12.14,10.45-10.99c10.44,1.44,23.75-6.61,29.2,10.8
	c10.31,32.91,21.78,65.46,32.77,98.16c-16.75-13.48-14.94-35.55-24.16-52.63c-6.8-12.6-10.51-26.87-15.66-40.36
	c-3.12-8.17-8.98-11.83-17.81-10.61c-10.43,1.44-8.39,9.62-8.17,16.02c1.68,49.56-3.65,99.22,2.68,148.75
	c1.6,12.49-2.03,23.25-19.06,22.09C1437.61,3155.66,1405.33,3161.65,1373.64,3153.74z"/>
<path class="st3" d="M64.71,3386.35c-0.45-30.37-1.29-60.74-1.3-91.11c-0.11-237.82-0.07-475.63,0.01-713.45
	c0-7.55,0.96-15.09,1.47-22.63c5.93,6.5,3.48,14.49,3.48,21.82c0.16,261.23,0.19,522.46,0.09,783.69
	C68.46,3371.96,71.05,3380.02,64.71,3386.35z"/>
<path class="st2" d="M2753.33,3066.38c-50.55,3.34-100.68-4.4-151.05-5.61c-10.38-0.25-14.7-3.35-14.41-14.46
	c0.75-28.36,1.09-56.77,0.21-85.11c-0.44-13.97,7.14-11.99,15.63-10.76c-10.5,30.54-8.36,62.18-8.04,93.65
	c0.1,10.18,7.9,8.84,14.74,9.81c41.53,5.89,83.29,3.75,124.98,4.17C2742.27,3058.14,2751.46,3054.81,2753.33,3066.38z"/>
<path class="st3" d="M2396.81,3037.01c0.44-114.94,0.81-229.88,1.4-344.82c0.08-15.19,1.27-30.37,1.95-45.55
	c5.26,4.05,4.04,9.9,4.04,15.28c0.04,119.45,0.05,238.89-0.1,358.34C2404.1,3026.6,2406.91,3034.8,2396.81,3037.01z"/>
<path class="st2" d="M783.63,3083.44c-45.54,9.51-45.54,9.51-45.33-36.35c0.11-23.46,0.16-46.92,0.3-70.38
	c0.05-7.56-1.45-16.64,11.4-13.31c-6.37,30.76-2.39,61.99-4.37,92.91c-1.19,18.57,5.24,25.15,23.14,22.56
	C774.06,3078.12,779.92,3077.94,783.63,3083.44z"/>
<path class="st2" d="M808.38,2846.07c-19.18,1.47-38.38,2.76-57.54,4.48c-8.28,0.74-12.88-0.99-12.72-10.73
	c0.51-31.65,0.44-63.31,0.56-94.97c0.02-4.95,1.89-7.8,7.34-6.93c0,27.36,0.79,54.74-0.29,82.06c-0.69,17.46,6.37,22.57,22.95,22.3
	C781.83,2842.06,795.89,2837.64,808.38,2846.07z"/>
<path class="st2" d="M2749.65,2638.2c1.96-14.41-5.96-16.14-18.1-16.09c-86.86,0.36-173.72,0.11-260.58,0.05
	c5.66-7.73,13.96-4.59,21.12-4.61c83.02-0.22,166.04-0.14,249.05-0.14c2.08,0,4.15-0.03,6.23,0.01c6.88,0.15,15.44-0.92,17.08,7.82
	C2766.48,2636.05,2756.65,2636.16,2749.65,2638.2z"/>
<path class="st3" d="M2665.92,2841.18c-24.81,0.86-56.35,8.94-72.35-4.39c-15.46-12.88-4.86-45.42-4.66-69.23
	c0.09-10.62-7.73-24.21,6.33-32.58c0.02,25.49,1.32,51.06-0.36,76.44c-1.26,19.06,5.88,24.4,23.53,22.46
	c11.57-1.28,23.4-0.24,35.11-0.29C2659.25,2833.57,2664.82,2833.7,2665.92,2841.18z"/>
<path class="st3" d="M204.78,2875.27c0.03,49.75,0.06,99.51,0.09,149.26c-7.46-1.29-7.35-6.95-7.34-12.62
	c0.01-41.32,0.01-82.65-0.02-123.97C197.5,2882.29,197.33,2876.61,204.78,2875.27z"/>
<path class="st2" d="M878.99,2735.6c13.49,4.2,19.06,0.86,18.23-14.79c-1.76-32.98,2.11-66.12-1.94-99.11
	c8.72,0.71,8.67,7.02,8.66,13.42c-0.03,30.76,0.04,61.51-0.07,92.27c-0.02,5.24,1.44,12.27-5.66,13.65
	C891.47,2742.34,882.95,2745.82,878.99,2735.6z"/>
<path class="st2" d="M2628.74,2950.05c30.43-4.31,60.58,1.58,90.86,2.55c-0.05,4.31-0.93,9.92-5.98,8.68
	c-24.45-6.02-49.21-1.5-73.74-3.26C2634.57,2957.64,2631.06,2954.65,2628.74,2950.05z"/>
<path class="st3" d="M1365.48,2904.25c1.25,71.97,2.11,143.93-0.27,215.89c-5.19-4.05-4.05-9.85-4.05-15.22
	c-0.03-61.86-0.02-123.73,0.05-185.59C1361.23,2913.98,1360.08,2908.15,1365.48,2904.25z"/>
<path class="st2" d="M778.85,2961.3c23.79-4.7,48.05-5.19,72-4.45c13.5,0.42,16.9-3.72,16.41-15.27c8.36,9.36,5.01,24.71-4.83,22.47
	c-26.33-5.99-51.48,5.42-77.18,1.79C782.95,2965.52,780.97,2962.87,778.85,2961.3z"/>
<path class="st2" d="M870.85,3074.98c-21.98,4.63-44.24,6.38-66.65,6.77C825.37,3069.25,847.53,3066.39,870.85,3074.98z"/>
<path class="st2" d="M750.14,2737.86c23.46-3.94,47.06-3.63,70.7-2.54c-1.72,7.18-7.46,7.24-12.91,6.7
	C788.7,2740.1,768.85,2746.82,750.14,2737.86z"/>
<path class="st2" d="M898.42,3186.3c1.04-19.23,2.08-38.47,3.13-57.7C912.65,3144.02,910.81,3178.11,898.42,3186.3z"/>
<path class="st3" d="M1365.5,2675.64c-0.01,33.21-0.01,66.43-0.02,99.64C1358.41,2742.06,1358.28,2708.85,1365.5,2675.64z"/>
<path class="st2" d="M901.63,3116.16c-0.34-15.35-0.69-30.7-1.03-46.05C913.39,3085.18,911.78,3100.58,901.63,3116.16z"/>
<path class="st3" d="M1365.46,2808.67c0.01,27.66,0.02,55.32,0.02,82.98C1358.35,2864,1358.42,2836.34,1365.46,2808.67z"/>
<path class="st2" d="M1364.8,3128.61c4.34,8.38-9.97,17.1,0.45,25.37c-1.5,6.24-4.98,10.12-8.45,2.14
	C1352.23,3145.62,1352.71,3135.03,1364.8,3128.61z"/>
<path class="st3" d="M1361.07,2629.94c5.41,10.52,5.44,21.74,4.31,33.12C1350.04,2653.82,1356.67,2641.74,1361.07,2629.94z"/>
<path class="st2" d="M2229.71,3049.13c-9.95-0.08-18.8-3.32-26.72-9.26C2213.33,3038.82,2223.84,3037.26,2229.71,3049.13z"/>
<path class="st2" d="M900.04,3069.76c-8.4,1.6-16.79,3.21-25.19,4.81C881.93,3066.07,889.51,3060.17,900.04,3069.76z"/>
<path class="st2" d="M2272.89,3039.06c-5.65,7.39-13.27,10.52-22.4,10.41C2254.24,3038,2263.62,3038.65,2272.89,3039.06z"/>
<path class="st2" d="M753.04,2963.23c4.49-1.87,9.07-2.58,13.82-1.03C762.64,2967.62,757.94,2966.76,753.04,2963.23z"/>
<path class="st3" d="M1365.47,2783.75c0,1.33,0,2.65,0,3.98c-0.55-0.94-1.18-1.86-1.56-2.86
	C1363.85,2784.72,1364.92,2784.14,1365.47,2783.75z"/>
<path class="st2" d="M2201.51,3038.92c0,0-0.98-0.65-0.98-0.65c0.71-0.73,1.42-1.46,2.13-2.19
	C2202.28,3037.03,2201.89,3037.97,2201.51,3038.92z"/>
<path class="st1" d="M3326.96,2837.71c-1.01-20.96,2.8-41.34,8.75-61.22c8.03-26.84,25.34-41.8,47.41-42.47
	c23.4-0.71,40.85,13.32,50.81,41.04c7.79,21.68,10.81,44.44,11.87,67.13c3.47,74.57,5.92,149.19-2.43,223.66
	c-1.54,13.78-4.1,27.41-9.63,40.13c-8.45,19.47-21.12,34.28-44.48,34.78c-23.84,0.51-38.77-12.67-47.92-33.15
	c-10.58-23.67-14.39-48.83-14.35-74.63c4.4-3.45,4.06-8.37,4.06-13.17c0-56.31,0-112.63,0-168.94
	C3331.04,2846.07,3331.37,2841.15,3326.96,2837.71z"/>
<path class="st2" d="M3326.96,2837.71c4.41,3.44,4.08,8.36,4.08,13.16c0,56.31,0,112.63,0,168.94c0,4.8,0.34,9.72-4.06,13.17
	C3321.81,2967.9,3322.18,2902.81,3326.96,2837.71z"/>
<path class="st2" d="M2931.48,2806.58c-0.01-20.04,0.38-40.09-0.18-60.11c-0.26-9.47,2-14.15,12.55-13.12
	c9.6,0.94,19.35,0.14,29,0.7c27.86,1.62,46.46,16.28,54.55,42.87c6.43,21.15,5.71,42.41-0.84,63.28
	c-8.04,25.62-26.37,37.76-57.12,39.02c-37.97,1.56-37.97,1.56-37.95-35.33C2931.49,2831.45,2931.49,2819.02,2931.48,2806.58z"/>
<path class="st2" d="M1105.21,2731.32c28.4,0.02,53.83,4.03,65.32,32.48c12.35,30.57,11,61.18-8.22,88.84
	c-12.02,17.3-58.97,29.48-78.49,22.94c-7-2.35-5.1-7.32-5.12-11.63c-0.13-40.1-0.35-80.21,0.11-120.31
	C1079.08,2720.16,1098.26,2737.27,1105.21,2731.32z"/>
<path class="st1" d="M1544.7,2860.91c-1.62,0.59-3.24,1.18-4.86,1.77c-11.76-10.36-23.38,1.43-35.36,0.63
	c-14.03-0.93-19.47-4.31-18.98-19.09c0.99-29.62,0.88-59.32,0.04-88.96c-0.39-13.82,4.72-17.95,18.01-17.68
	c10.61,0.22,22.06,3.95,32.05-3.33c6.74-0.15,12.33,2.35,16.86,7.3c1.87,1.38,3.73,2.76,5.6,4.14c1.03,0.95,2.06,1.9,3.09,2.84
	c1.5,1.85,3,3.71,4.5,5.56c0,0-0.24-0.33-0.24-0.33c2.83,31.4,7.53,62.87-3.01,93.84c-0.26-0.39-0.52-0.78-0.79-1.18
	c0.24,0.4,0.48,0.8,0.72,1.2c-2.95-0.15-4.35,1.22-4.14,4.19c-0.31-0.39-0.62-0.79-0.93-1.18c0.29,0.4,0.58,0.81,0.87,1.21
	c-2.85-0.34-4.46,0.94-4.92,3.73c0,0,0.24-0.2,0.24-0.2C1548.94,2854.71,1545.44,2855.62,1544.7,2860.91z"/>
<path class="st2" d="M1535.6,2734.26c-9.99,7.27-21.44,3.54-32.05,3.33c-13.29-0.27-18.4,3.86-18.01,17.68
	c0.84,29.63,0.95,59.33-0.04,88.96c-0.49,14.77,4.95,18.15,18.98,19.09c11.99,0.8,23.61-11,35.36-0.63
	c-16.87,8.51-35.1,4.52-52.77,5.66c-8.68,0.56-7.57-5.87-7.58-11.34c-0.05-37.92-0.11-75.83-0.17-113.75
	c-0.01-6.44-0.26-12.88,9.24-12.38C1504.27,2731.68,1520.3,2727.88,1535.6,2734.26z"/>
<path class="st2" d="M1562.4,2847.62c10.55-30.97,5.85-62.44,3.01-93.84C1584.09,2781.05,1582.82,2820.54,1562.4,2847.62z"/>
<path class="st2" d="M1544.7,2860.91c0.74-5.29,4.24-6.2,8.75-5.51C1550.53,2857.23,1547.62,2859.07,1544.7,2860.91z"/>
<path class="st2" d="M1558.06,2745.7c-1.87-1.38-3.73-2.76-5.6-4.14C1554.32,2742.94,1556.19,2744.32,1558.06,2745.7z"/>
<path class="st2" d="M1565.65,2754.11c-1.5-1.85-3-3.7-4.5-5.56C1562.65,2750.4,1564.15,2752.25,1565.65,2754.11z"/>
<path class="st2" d="M1558.19,2851.83c-0.21-2.97,1.19-4.34,4.14-4.19C1560.95,2849.04,1559.57,2850.44,1558.19,2851.83z"/>
<path class="st2" d="M1553.21,2855.6c0.47-2.79,2.07-4.08,4.92-3.73C1556.49,2853.11,1554.85,2854.36,1553.21,2855.6z"/>
<path class="st2" d="M1932.47,2778.2c12.32,58.7,23.53,112.56,35.02,166.36c1.83,8.56-1.05,11.61-9.35,10.58
	c-0.68-0.09-1.39,0.02-2.08-0.01c-19.24-0.91-45,7.91-55.84-3.67c-9.74-10.4,4.68-34.49,7.97-52.63
	c3.58-19.74,7.64-39.38,11.6-59.05C1923.62,2820.88,1927.57,2802.01,1932.47,2778.2z"/>
<g>
	<path class="st9" d="M171.49,2471.06c-13.76-2.62-27.94,12.18-41.44-1.01c22.98-109.2,51.07-217.04,87.79-322.46
		c5.41-15.54,5.83-29.28,1.15-44.71c-18.27-60.2-27.82-121.73-27.72-184.82c0.06-39.41,8.29-76.09,30.99-108.74
		c11.52-16.56,16.58-34.66,17.75-54.72c1.7-29.18,7.44-57.47,27.27-80.67c3.85-4.5,3.61-9.92,4.89-15.04
		c20.43-2.33,31.61-11.55,33.2-34.23c1.27-18.08,2.11-37.02,10.88-54.13c6.16-12.02,20.35-17.32,24.58-30.68
		c16.56-8.89,32.97-20.45,51.97-20.49c27.17-0.05,36.79-14.8,45.31-37.88c21.88-59.21,66.8-87.24,130.11-84.57
		c13.4,0.56,27.08,1.69,39.97,5.09c10.86,2.86,15.74,0.1,20.07-9.59c22.78-50.98,45.95-101.78,69.25-152.52
		c3.31-7.21,3.91-13.67,1.12-21.25c-8.34-22.67-4.86-44.16,10.35-62.63c7.12-8.65,7.2-15.27,2.75-25.04
		c-19.5-42.84-25.77-88.02-17.03-134.17c22.61-119.4,131.88-197.14,256.27-183.51c119.81,13.13,205.78,115.39,195.65,235.23
		c-8.29,98-60.96,164.12-151.57,200.58c-9.12,3.67-15.78,5.59-15.68,18.65c0.34,44.17-24.47,63.45-67.83,54.88
		c-4.28-0.85-9.77-5.77-12.73-0.28c-5.69,10.6-11.06,21.71-14.18,33.25c-2.35,8.7,7.81,11.33,12.96,15.9
		c15.91,14.09,20.8,30.36,13.16,50.67c-7.57,20.13-19.4,33.59-42.87,32.7c-5.1-0.19-10.76-2.09-15.43,1.98
		c22.57,68.55,16.08,80.62-48.91,90.97c0.17,13.4,4.43,16.96,18.4,11.51c26.02-10.15,53.14-9.41,78.89,1.46
		c35.15,14.84,60.87,40.06,63.18,79.39c3.64,61.97-2.9,123.51-45.88,172.39c-19.47,22.14-33.52,44.48-38.73,72.98
		c-1.33,7.25-3.44,14.38-5.48,21.49c-11.69,40.75-25.09,81.2-48.86,116.43c-31.07,46.06-73.82,79.97-123.38,104.69
		c-14.74,7.35-21.97,18.06-26.47,33.05c-14.07,46.84-4.17,92.82,2.6,141.43c22.06-14.4,43.86-24.48,67.18-31
		c6.63-1.85,9.41-6.6,11.94-12.44c9.21-21.28,24.32-39.2,45.47-46.59c34.47-12.04,51.39-38.37,66.35-68.03
		c3.63-7.19,8.12-13.94,12.27-20.86c68.87-114.97,158.83-205.16,285.9-256.64c119.72-48.5,241.15-91.77,363.68-132.23
		c14.82-4.89,25.92-12.16,35-24.91c19.96-28.03,42.01-54.66,68.86-76.26c12.72-10.23,12.22-15.92,1.81-27.32
		c-59.52-65.21-98.23-140.55-111.49-228.77c-10.01-66.62-19.81-133.23-26.25-200.28c-4.08-42.47-3.27-85.04,7.9-126.42
		c6.21-23,6.08-44.88,0.11-67.55c-12.99-49.36-16.1-99.4-10.9-150.25c1.62-15.85,11.8-36.5,2.53-46.35
		c-8.81-9.37-30.32-6.34-46.04-9.74c-70.48-15.25-135.42-41.31-183.17-98.55c-46.94-56.27-48.03-127.6-3.59-185.81
		c23.33-30.55,53.1-53.24,87.34-70.26c75.81-37.69,156.71-46.57,239.79-40.93c16.6,1.13,26-3.27,36.02-17.06
		c101.75-139.96,241-204.09,412.56-198.55c133.82,4.32,256.12,47.05,367.09,120.7c109.19,72.46,190.97,167.2,226.92,296.28
		c31.19,111.96,29.92,223.33-7.72,333.7c-4.75,13.93-5.68,26.16,1.63,40.08c11.07,21.06,15.32,44.48,15.38,68.31
		c0.24,89.47-35.17,164.59-94.9,228.96c-11.66,12.56-18.47,23.42-17.62,41.39c1.32,27.59-15.3,52.5-37.5,51.93
		c-30.46-0.79-24.26,16.34-22.43,33.6c0.71,6.7,2.33,13.47,1.85,20.09c-1.02,14.01,4.9,19.12,18.55,17.91
		c44.67-3.96,71.38,18.04,88.44,58.07c22.13,51.94,48.62,101.87,76.79,150.86c5.63,9.78,12.54,15.91,23.68,19.83
		c66,23.24,132.1,46.33,197.33,71.61c153.57,59.51,306.32,121.06,456.01,189.92c6.34,2.92,14.65,11.62,17.55-3.64
		c9.98,25,30.37,37.23,54.71,44.63c0.51,4.03,1.29,7.74,4.77,10.66c75.3,63.12,120.98,146.62,159.91,234.43
		c39.53,89.14,72.94,180.53,95.93,275.48c-13.31,11.4-26.91,0.31-40.37,0.53c-0.47-5.99,0.13-12.29-1.55-17.92
		c-31.42-105.77-67.82-209.67-117.53-308.48c-51.18-101.71-122.47-182.5-231.35-225.33c-21.39-8.41-42-8.07-63.13-3.67
		c-68.47,14.26-120.6,55.23-164.47,106.63c-101.26,118.63-141.65,260.06-149.89,412.82c-1.25,12.01-2.51,24.01-3.76,36.02
		c-10.83-0.01-21.67-0.02-32.5-0.03c-5.41-19.12-9.27-38.53-13.1-58.04c-3.13-15.93-2.01-33.95-14.34-47.36
		c-0.19-2.55-0.37-5.1-0.56-7.66c8.43-15.78-3.24-27.51-8.18-40.6c-7.96-11.22-4.79-24.71-6.26-36.9
		c-3.23-26.93-12.93-53.46-8.69-85.37c8.92,13.53,14.82,23.63,15.88,35.92c-1.37,5.42-0.01,10.39,1.6,15.65
		c15.62,51.15,28.26,103.08,40.84,155.31c-2.05-21.83,9.14-41.51,9.37-62.93c1.22-5.22,2.64-10.41,3.63-15.68
		c22.9-121.38,70.66-230.78,153.56-323.91c23.79-26.72,51.31-48.8,81.32-71.77c-13.36-6.64-24.42-12.74-35.94-17.77
		c-138.1-60.29-278.52-114.47-421.67-161.66c-18.68-6.16-26.62-2.05-36.23,14.16c-52.16,87.91-102.75,176.84-160.63,261.2
		c-25.03,36.49-49.89,73.97-93.45,91.99c-8.17-4.25-17.71-5.69-23.92-13.83c-34.24-44.82-75.33-83.28-115.05-122.99
		c-4.68-4.68-8.71-10.3-15.53-12.37c-32.17-9.77-77.49,11.75-92.33,43.86c-12.47,15.88-25.78,31.48-44.27,39.99
		c-41.3,19.02-82.91,37.47-125.06,54.51c-28.78,11.63-29.3,10.39-28.57,42.24c0.08,3.34,0.5,6.68,0.76,10.02
		c-2.11,8.4-3.72,16.98-6.43,25.18c-13.4,40.61-28.18,80.8-40.42,121.76c-16.28,54.48-25.72,110.44-31.09,167.06
		c-5.53-0.08-11.05-0.17-16.58-0.25c4.71-57.38,13.14-114.12,28.4-169.74c12.55-45.71,24.86-91.49,37.28-137.23
		c10.16-12.46,14.33-27.25,18.85-44.06c-46.33,16.97-88.14,37.73-129.73,58.97c-5.63,2.87-10.48,6.04-10.84,13.11
		c-10.59,7-21.18,14-31.77,21c-0.48-0.5-0.97-1-1.46-1.49c0.09-7.42,5.1-12.18,9.37-17.34c24.81-29.97,55.05-52.89,89.65-70.55
		c68.38-34.91,141.99-57.84,210.5-92.61c21.86-11.1,36.53-25.09,44.63-48.49c9.43-27.27,19.76-54.45,34.55-79.5
		c14.03-23.75,29.04-26.77,50.66-10.17c53.53,41.12,102.61,86.96,146.27,138.53c47.73,56.37,50.26,55.96,94.31-5.99
		c31.62-44.46,60.5-90.65,88.62-137.33c40.26-66.83,80.17-133.88,119.74-201.12c5.41-9.2,14.72-18.27,6.59-31.26
		c-36.86-58.86-66.01-121.7-95.29-184.5c-5.87-12.59-16.02-21.99-34.95-16.82c16.59,13.83,14.39,28.62,7.72,43.63
		c-9.34,21.03-21.74,40.28-36.14,58.15c-61.15,75.89-133.86,140.34-208.33,202.12c-149.56,124.07-300.65,246.36-460.9,356.77
		c-57.09,39.34-96.29,92.91-118.59,158.84c-21.66,64.03-30.73,130.51-39.47,197.09c-11.31,0-22.63,0.01-33.94,0.01
		c3.07-21.93,5.68-43.94,9.3-65.78c12.33-74.45,27.1-148.22,67.89-213.6c3.97-6.36,4.71-12.29,3.07-19.07
		c7.69-13.55-3.12-23.26-7.57-33.99c-5.1-12.3-11.92-23.89-17.6-35.96c-2.72-5.78-3.57-12.91,2.64-16.27
		c8.8-4.76,9.45,4.93,11.72,9.35c7.43,14.41,8.9,30.76,13.77,45.99c2.38,7.45,6.39,20.34,16.34,14.7
		c7.83-4.44,19.94-13.75,10.63-28.05c-13.56-20.84-29.02-40.5-48-56.14c-24.7-20.36-51.1-38.69-78.2-56.05
		c-21.91-14.03-40.31-31.93-36.03-62.19c0.53-3.78-0.88-7.91-1.8-11.79c-2.27-9.62-4.8-14.25-15.48-5.54
		c-26.43,21.59-51.86,44.22-75.66,68.57c-14.82,15.16-32.32,27.78-44.25,45.74c-23.61-3.69-37.91-28.16-34.11-56.44
		c5.43-40.34,29.79-71.68,49.53-105.03c22.17-37.46,46.18-73.83,69.6-111.01c-8.07-3.56-14.49,0.36-20.28,2.43
		c-118.33,42.32-238.46,79.89-352.56,133.4c-53.07,24.89-99.3,59.43-138.93,102.21c-46.84,50.57-85.23,107.43-117.37,168.36
		c-10.68,20.26-22.94,36.95-46.82,43.06c-9.39,2.4-18.04,9.06-26.07,15.06c-9.01,6.74-19.4,13.69-17.29,27.42
		c2.06,13.39,13.86,14.93,23.98,18.28c2.23,0.74,5.55,0.68,4.29,7.05c-10.45,0.49-21.63,0.51-32.7,1.62
		c-34.49,3.46-68.03,9.7-94.47,35.05c-5.12,4.91-8.47,10.06-7.22,17.72c1.16,7.11,6.03,7.71,11.58,8.63
		c76.47,12.58,133.56,56.95,183.88,112.37c-15.21-0.01-30.43-0.02-45.64-0.03c-37.29-39.85-80.74-69.5-134.78-81.87
		c-6.71-1.54-11.41-1.41-8.83,6.88c7.56,24.32,3.66,50.51,12.55,74.55c-13.54,2.56-27.05,5.39-40.65,7.56
		c-6.69,1.07-14.96,4.69-17.62-6.29c4.11-0.48,8.23-0.97,12.34-1.45c2.58,0.93,4.38,0.42,4.76-2.63
		c-10.49-78.52-29.62-155.72-35.89-234.89c3.05-22.49,0.51-45.52,6.72-67.72c0.97-3.46,2.25-10.35-3.64-8.3
		c-18.03,6.25-43.08,3.74-53.02,19.56c-20.51,32.66-48.16,54.78-80.94,72.4c-11.93,1.79-22.91,8.73-38.5,7.08
		c6.45-4.27,10.63-7.04,14.81-9.8c3.45-0.37,6.44-1.47,7.92-4.98c0,0-0.1,0.08-0.1,0.08c48.87-30.57,81-72.18,86.06-132.56
		c2.29,2.1,4.06,3.12,4.95,4.65c5.5,9.42-0.31,26.41,10.99,29.14c9.28,2.25,21.26-5.96,31.86-10.02c9.25-3.55,19.57-4.7,27.32-11.75
		c106.47-38.66,172.78-112.82,198.72-223.36c5.74-24.45,10.04-49.47,20.79-72.54c7.35-6.68,14.89-13.16,22.02-20.07
		c16.4-15.89,30.61-33.15,33.28-57.08c7.98-26.87,15.49-53.96,16.51-82.11c2.27-62.61-52.33-100.7-110.86-77.99
		c-8.56,3.32-14.19,7.18-15.86,17.99c-4.63,30.02-20.47,53.61-45.89,70.65c-11.31,7.58-16.2,17.32-9.61,30.86
		c3.22,6.61,5.4,13.71,8.06,20.6c0.16,15.44,10.07,24.2,21.95,31.22c35.54,20.97,79.02,13.01,106.9-19.3c5-5.62,10-11.23,15.1-16.96
		c5.46,7.32-5.17,14.04,1.02,20.49l0.64,0.17c-4.57-2.04-4.16,1.99-5.2,4.27c-8.14,18.32-19.86,32.92-39.23,40.72
		c-26.58,10.7-53.67,13.73-80.41,3.01c-13.49-5.41-17.98-2.28-22.98,10.42c-11.23,28.53-31.58,50.05-59.24,63.06
		c-10.98,5.17-13.59,11.72-15.31,22.58c-7.49,47.49-33.14,81.64-78.86,98.23c-10.5,3.81-16.64,8.53-21.3,18.44
		c-15.32,32.58-36.04,59.92-73.8,68.62c-35.58-0.32-59.31-22.23-81.73-45.75c-8.93-9.37-16.06-14.98-30.75-9.88
		c-15.66,5.43-33.09,7.39-54.15,2.43c18.16-8.94,35.18-12.53,45.65-27.59c-17.72-18.33-41.6-30.57-61.11-54.72
		c27.06,5.68,45.33,17.21,65.01,25.23c29.63,19.84,54.3,45.65,81.78,68.04c19.29,15.71,34.45,15.99,51.45,3.69
		c32.15-23.26,42.25-63.82,24.99-100.4c-6.31-23.3-19.94-41-41.29-52.19c-33.94-17.77-68.3-34.74-102.12-52.74
		c-10.44-5.56-21.74-11.32-27.41-26.68c42.02,12.61,79.45,28.82,117.28,44.23c47.05,19.16,78.21,51.43,90.79,100.63
		c2.81,10.99,7.59,10.36,15.38,6.8c28.72-13.15,44.58-35.98,49.38-66.64c6.73-42.93-22.56-125.06-76.72-146.76
		c-39.32-15.75-78.02-33.04-116.87-49.93c-6.07-2.64-13.71-3.74-18.15-12.91c41.18,3.88,77.91,16.68,115.11,28.21
		c60.8,18.84,100.16,58.58,119.34,118.45c4.84,15.11,10.76,15,22.21,7.29c29.21-19.66,43.56-53.47,33.69-87.63
		c-16.3-56.39-36.89-110.55-95.64-137.54c-58.32-26.79-118.9-47.97-181.88-59.46c-74.44-13.58-120,17.26-120,89.67
		c0,0.67-0.16,1.35-0.14,2.01c0.52,12.59-4.83,22.3-15.29,28.83c-34.18,21.34-47.51,53.31-48.09,92.18
		c-0.37,24.86-7.39,47.36-22.77,67.54c-17.31,22.71-23.78,49.33-24.13,77.62c-1.32,106.96,22.57,207.98,70.88,303.39
		c1.67,3.29,11.09,8.01,0.97,12.91c-16.46-13.43-32.06-27.75-45.66-47.63c-16.93,44.94-28.96,88.02-40.22,131.32
		C195.77,2359.75,180.11,2414.59,171.49,2471.06z M1356.48,703.94c-1.4-1.29-2.8-2.57-4.2-3.86c-2.45-1.7-4.91-3.39-7.36-5.09
		c-2.62-3.01-4.9-6.4-7.9-8.97c-70.41-60.16-68.49-134.79,5.88-189.31c59.24-43.42,128.47-54.61,199.12-52.68
		c93.82,2.57,180.11,32.78,261.31,79.95c63.86,37.1,117.26,87.81,177.07,130.12c96.26,68.09,202.9,93.11,318.91,82.26
		c15.85-1.48,32.72-1.4,49.35-9.87c-122.05-85.06-244.38-165.67-381.51-220.34c-153.01-61-309.67-103.68-476.91-88.1
		c-58.64,5.46-113.7,22.31-161.13,57.91c-33.44,25.09-60.8,55.56-62.92,100.96c-2.71,58,30.98,93.16,75.99,121.23
		c2.59,1.41,5.19,2.82,7.8,4.2c1.54,1.15,3.08,2.29,4.62,3.44c1.54,1.5,3.07,2.99,4.61,4.49c13.03,7.67,25.96,15.61,40.62,19.04
		c0.71-1.59,1.42-3.18,2.14-4.78c-12.9-6.47-25.81-12.93-38.71-19.4C1361,704.75,1358.75,704.33,1356.48,703.94z M1739.57,997.11
		c8.95-37.05-10.98-75.48-45-86.73c-6.34-2.1-12.59-4.82-19.11-6.03c-37.43-6.93-81.42-21.4-117.29-0.02
		c-34.12,12.63-29.64,23.17-23.67,56.91c4.28,24.18,13.86,47.95,7.55,73.33c-23.53,94.63-14.38,187.6,14.33,279.57
		c-4.36,1.73-5.81,4.53-4.9,9.43c2.32,12.48,4.19,25.05,6.03,37.62c4.67,31.81,9.09,63.71,21.64,93.64
		c1.74,4.15,1.48,14.56,7.91,11.19c15.33-8.04,9.61,4.75,11.1,9.78c2.64,8.94,4.05,18.28,7.09,27.06c0.88,2.53,0.92,14.86,9.53,3.63
		c4.71-6.14,5.89,1.23,7.05,4.06c6.34,15.51,13.48,30.81,18.23,46.82c5.27,17.79,30.45,16.28,32.97,36.08
		c0.19,1.49,4.94,4.07,6.42,3.45c11.63-4.94,13.77,5.55,17.88,11.28c4.36,6.08,8.08,14.57,14.75,15.97
		c26.04,5.46,43.1,25.73,65.33,37.19c10.18,5.25,19.6,13.8,33.33,12.24c-2.01-13.72-16.48-22.23-12.51-38.84
		c14.46,11.9,22.8,28.06,39.29,35.43c3.83-13.2-7.99-24.18-2.61-39.76c7.51,13.46,16.29,21.68,25.11,29.74
		c9.6,8.77,20.7,16.04,34.23,14.64c19.82-2.06,40.35-2.57,57.2-15.83c3.67-2.89,8.62-7.55,12.35-4.77
		c12.44,9.26,22.46,0.53,31.3-4.56c27.33-15.75,52.46-34.58,75.4-56.61c17.8-17.09,30.94-37.72,46.49-58.84
		c3.14,9.56,2.63,16.1,0.6,22.59c-1.59,5.05-5.09,11.75,0.48,14.55c6.77,3.4,10.72-4.33,13.95-8.75
		c13.46-18.39,27.64-36.3,37.78-56.96c7.05-14.35,15.04-28.24,22.61-42.33c3.32,8.85,3.59,16.26,2.29,23.39
		c-1.4,7.66-7.11,16.82,2.37,21.34c9.96,4.75,16.59-4.45,20.95-11.57c14.7-24.01,29.95-47.91,41.73-73.36
		c5.05-10.92,14.14-8.64,20.57-11.78c8.04-3.93-4.43,11.44,5.54,11.3c18.23-19.66,22.59-46.53,35.86-70.86
		c4.13,8.87-4.56,15.45,4.39,23.12c12.89-28,25.85-55.33,31.35-84.7c12.67-67.67,18.74-136.25,25.13-204.8
		c2.79-29.89,2.19-59.82,3.91-89.34c8.76-1.83,6.46,10.9,14.77,8.55c23.87-64.69,67.36-104.63,140.87-106.44
		c-8.31-12.67-16.28-22.3-24.83-31.73c-36.32-40.04-78.79-72.83-121.69-105.19c-8.01-6.05-15.73-8.76-26-4.35
		c-19.25,8.26-40.02,10.62-60.66,13.03c-4.03,0.2-8.07,0.21-12.08,0.61c-109.39,10.88-211.13-11.57-304.78-69.64
		c-49.86-30.92-95.45-67.56-140.35-105.03c-14.08-11.75-28.92-17.99-47.24-18.96c-46.17-2.45-91.63,1.52-135.34,16.48
		c-62.22,21.28-108.54,58.53-119.63,128.1c-15.24,49.44-20.03,100.38-23.52,151.46c4.93,0.9,6.07-1.84,7.84-3.74
		c41.67-44.51,123.59-50.9,171.42-13.39c9.15,7.17,18.07,15.82,20.96,26.56c7,26.06,22.01,48.71,29.45,74.45
		c6.69,23.13,6.97,46.35,1.87,69.73c-8.23,37.74-21.31,73.34-45.37,104.27c-6.05,7.78-13.35,16.07-5.67,27.08
		c-0.05,21.11,19.92,29.38,28.75,44.79c-36.61-3.79-57.73-43.43-39.28-75.11c14.56-25,29.35-49.71,35.31-78.5
		C1738.05,1032.33,1744.06,1015.56,1739.57,997.11z M1020.6,866.16c-1.15-4.45-5.15-4.9-8.6-6.1
		c-41.18-21.33-84.4-26.2-129.48-16.02c-37.19,5.17-68.99,21.95-96.7,46.47c-68.94,60.98-84.43,154.16-40.72,242.85
		c4.54,9.22,9.78,16.64-1.47,25.92c-19.44,16.04-24.55,36.43-11.56,59.27c4.66,8.19,2.45,14.84-1.14,22.55
		c-21,45.06-41.65,90.28-62.24,135.53c-17.22,37.84-17.11,37.89,23.63,51.68c9.55,6.19,19.87,11.47,28.46,18.78
		c11.05,9.41,14.72,4.79,19.5-6.16c29.73-68.23,59.78-136.32,90.45-204.13c4.68-10.34,5.63-29.82,22.93-24.48
		c20.39,6.29,4.3,22.38,4.2,34.2c-35.28,73.04-67.28,147.52-98.2,222.48c-0.95,2.31-1.64,5.27-1.07,7.59
		c5.97,24.29,34.93,43.94,59.79,40.84c15.05-1.88,21.8-12.64,16.18-27.05c-4.14-10.62-9.83-20.63-14.03-31.23
		c-5.02-12.67,2.34-29.88,14.69-32.58c8.33-1.82,17.43-1.16,26.05-0.28c11.21,1.14,17.03-3.79,21.81-13.44
		c5.21-10.55-0.29-16.48-6.87-22.6c-26.62-24.77-26.66-24.75-13.48-58.18c2.71-6.87,5.48-13.73,8.43-20.5
		c10.07-23.08,15.2-25.51,40.42-19.37c34.73,8.46,42.9,1.13,37.92-34.73c-2.06-14.81,1.88-24.65,17.68-28.55
		c99.75-24.58,162.93-121.93,149.84-219.22c-8.52-63.28-37.67-114-96.46-144.27L1020.6,866.16z M1676.71,1654.35
		c-6.37-7.01-11.89-2.55-17.74,1.08c-9.86,6.11-18.07,14.1-25.56,22.73c-77.95,89.83-141.37,189.59-199.65,292.83
		c-5.14,9.11-9.02,18.82-1.95,33.5c9.62-10.86,17.17-20.23,25.6-28.74c26.51-26.75,52.59-54.12,83.3-76.16
		c21.42-15.37,42.84-6.75,48.89,18.63c3.11,13.06,6.17,26.2,8.09,39.47c2.41,16.69,11.01,27.18,25.64,35.88
		c47.18,28.07,89.5,62.03,121.3,107.71c3.34,4.8,5.54,12.62,17.13,10.77c-11.94-39.87-32.69-75.26-46.76-113.24
		c1.19-8.35-2.25-15.54-4.85-23.23c-15.79-46.67-24.54-94.16-15.94-143.69c6.71-38.66,28.16-74.48,17.54-116.69
		C1705.57,1690.65,1707.88,1663.6,1676.71,1654.35z M2401.5,1243.58c6.99,15.58,17.82,27.15,35.07,30.46
		c12.37,2.37,24.34,3.62,14.46-16.11c-5.6-11.19-3.58-23.38,8.59-29.73c12.28-6.41,22.79,1.46,26.36,11.49
		c9.31,26.2,20.49,13.06,31.59,2.96c49.73-45.21,76.5-103.08,90.74-167.47c8.02-36.27,6.69-72.17-7.77-106.97
		c-9.45-22.73-25.58-37.04-50.04-42.45c-68.86-15.22-134.89,47.79-147.13,119.36c-10.57,61.81-6.43,126.13-8.79,189.35
		c-1.47,9.96-3.43,19.87-4.32,29.88c-5.88,65.9-26.36,127.28-67.31,178.89c-92.76,116.91-207.71,206.32-345.91,263.88
		c-45.68,19.03-94.09,27.7-144.09,20.25c-31.45-4.68-60.34-16.92-91.71-34.16c9.77,80.55,19.09,157.44,28.42,234.33
		c-19.29-28.09-33.36-57.64-43.7-89.19c-4.67,17.77-6.04,34.87-2.06,52.08c3.37,56.05,24.01,107.25,44.76,158.35
		c17.68,43.51,17.96,43.38,57.22,16.48c135.13-92.58,261.93-195.97,388.11-300.09c81.07-66.89,159.56-136.76,228.31-216.74
		c5.06-5.88,12.24-10.81,11.24-20.42c-6.15-58.86-12.15-117.74-18.2-176.61c0.07-7.29,0.17-14.59,0.2-21.88
		c0.07-14.71-0.59-26.78-18.49-34.25C2398.21,1287.41,2394.74,1268.61,2401.5,1243.58z M2378.45,308.35
		c-0.95-0.44-1.9-0.89-2.85-1.33c0.36,1.04,0.72,2.08,1.08,3.13c3.98,30.63,8.95,61.36,7.8,92.21
		c-3.31,89.04-20.94,175.81-45.23,261.28c-3.17,11.16-0.92,17.29,8.56,23.34c16.42,10.49,32.25,21.94,48.05,33.36
		c57.85,41.79,115.07,84.31,160,140.81c12.23,15.38,24.75,30.52,38.11,46.97C2668.72,696.1,2604.08,440.66,2378.45,308.35z
		 M2361.61,347.71c-0.26-14.15-0.52-28.19-2.43-42.29c-1.24-9.16-4.96-14.34-12.93-18.46c-130.9-67.57-267.68-105.79-416.09-79.11
		c-109.93,19.77-198.52,76.01-267.04,164.17c-10.53,13.55-6.57,17.02,8.98,18.32c20.02,1.67,40.02,4.85,59.73,8.88
		c159.81,32.71,308.28,94.21,447.74,178.06c39.78,23.92,78.73,49.21,118.03,73.92c7.88,4.96,12.96,7.65,16.42-5.54
		C2339.6,547.86,2358.43,449.05,2361.61,347.71z M1771.5,541.75c-17.06-12.57-32.42-21.62-48.83-28.63
		c-75.41-32.2-152.81-52.31-236.11-42.78c-48.1,5.5-93.59,16.46-133.06,45.89c-57.4,42.8-60.73,100.33-11.78,148.96
		c34.56,34.34,75.09,58.03,121.53,72.38c43.19,13.34,42.73,13.61,53.97-29.98c17.7-68.66,59.32-115.52,126.53-140.19
		C1684.09,552.59,1725.92,546.52,1771.5,541.75z M573.11,1427.11c-36.77-0.83-59.75,4.24-79.15,21.42
		c-19.02,16.84-26.7,39.6-35.41,62.3c-6.36,16.57-4.14,23.23,15.01,25.61c44.06,5.47,87.49,14.81,129.56,29.46
		c42.23,14.7,83,31.45,110.27,70.15c18.53,26.29,28.79,26.07,49.28,0.2c13.58-17.14,19.13-36.44,14.31-58.55
		c-5.55-25.43-16.03-48.25-32.11-68.71C698.04,1449.4,631.89,1433.18,573.11,1427.11z M3212.18,1891.06
		c-92.57-38.17-179.88-74.79-267.68-110.18c-84.15-33.92-169.12-65.75-255.19-94.53c-14.3-4.78-26.29,4.08-32.67,24.85
		c-4.43,14.41,9.28,11.96,15.62,14.13c149.51,51.2,297.18,107.01,439.75,175.47c22.32,10.72,42.17,12.75,64.22,1.17
		C3185.52,1897.09,3196.6,1895.63,3212.18,1891.06z M2465.59,1240.34c11.75,23.64,15.24,43.81,15.68,64.65
		c0.11,5.08-5.78,13.68,4.14,14.68c12.47,1.26,17.62-9.08,20.29-18.77c1.52-5.5,7.01-16.9-4.37-17.18
		c-11.25-0.27-8.97-7.13-10.97-12.8C2486.53,1260.12,2486.25,1246.79,2465.59,1240.34z"/>
	<path class="st12" d="M2370.06,2115.78c43.56-18.03,68.42-55.51,93.45-91.99c57.87-84.36,108.47-173.29,160.63-261.2
		c9.62-16.21,17.55-20.32,36.23-14.16c143.15,47.19,283.57,101.37,421.67,161.66c11.52,5.03,22.58,11.13,35.94,17.77
		c-30.01,22.98-57.54,45.05-81.32,71.77c-82.9,93.12-130.66,202.52-153.56,323.91c-0.99,5.27-2.41,10.45-3.64,15.67
		c-3.83-2.38-4.16-6.62-5.72-10.29c-14.1-33.16-25-67.85-46.08-97.72c-1.06-12.3-6.96-22.39-15.88-35.92
		c-4.24,31.91,5.46,58.44,8.69,85.37c1.46,12.19-1.71,25.68,6.26,36.9c-0.98,14.28,2.76,27.61,8.18,40.6
		c0.19,2.55,0.37,5.1,0.55,7.66c-1.2,28.28,13.45,55.03,9.59,86.62c-43.36-33.03-81.51-68.09-128.96-101.01
		c14.36,46.02,36.65,81.43,52.95,119.45c-306.96,0.11-613.92,0.22-920.88,0.33c5.37-56.62,14.8-112.58,31.09-167.06
		c12.24-40.95,27.01-81.14,40.42-121.76c2.71-8.21,4.32-16.78,6.43-25.19c70.93-16.05,138.57-40.49,201.38-77.77
		c24.02-14.26,47.12-31.3,76.69-32.87c26.97,2.84,51.82,11.28,74.29,26.88c20.24,14.05,40.84,27.6,61.64,40.82
		C2349.4,2120.19,2359.44,2128.07,2370.06,2115.78z"/>
	<path class="st12" d="M883.16,2471.06c-50.32-55.41-107.41-99.79-183.88-112.37c-5.56-0.91-10.43-1.52-11.58-8.63
		c-1.25-7.66,2.1-12.81,7.22-17.72c26.44-25.35,59.98-31.59,94.47-35.05c11.07-1.11,22.25-1.13,32.7-1.62
		c1.26-6.37-2.05-6.31-4.29-7.05c-10.13-3.36-21.93-4.89-23.98-18.28c-2.11-13.74,8.28-20.69,17.29-27.42
		c8.03-6,16.68-12.65,26.07-15.06c23.88-6.11,36.13-22.8,46.82-43.06c32.13-60.93,70.53-117.79,117.37-168.36
		c39.63-42.78,85.86-77.32,138.93-102.21c114.09-53.5,234.23-91.07,352.56-133.4c5.79-2.07,12.21-5.99,20.28-2.43
		c-23.42,37.18-47.43,73.55-69.6,111.01c-19.74,33.36-44.1,64.7-49.53,105.03c-3.8,28.28,10.5,52.75,34.11,56.44
		c24.98,1.7,49.35-3.82,73.96-6.44c27.72-2.96,54.91-3.47,80.18,11.13c49.18,28.42,91.03,64.03,115.34,116.95
		c1.64,6.79,0.9,12.71-3.07,19.07c-40.78,65.38-55.56,139.14-67.89,213.6c-3.62,21.84-6.22,43.85-9.3,65.78
		c-174.29-0.05-348.57-0.11-522.87-0.16c-1.4-146.68,14.37-291.27,53.9-433.12c-52.03,83.17-68.49,176.69-81.99,271.18
		c-11.8-86.23-14.62-172.29-3.18-258.8c-17.82,29.26-27.18,60.76-31.55,94.32c-6.47,49.66-3.15,99.41-3.56,149.14
		c-19.12-22.61-38.24-45.21-60.71-71.78c8.52,55.36,31.86,98.83,56.29,141.89c2.99,5.28,10.62,9.83,3.86,17.38
		c-13.4-12.2-27.04-24.15-40.14-36.66c-28.6-27.33-61.56-48.01-98.56-61.22c-21.04-7.51-43.48-14.94-67.67-3.76
		c6.3,8.36,13.46,8.48,19.56,10.59c73.33,25.43,127.7,74.54,171.5,136.92c-38.06-13.2-73.28-34.88-119.79-41.3
		c30.52,32.12,64.12,53.24,86.51,85.4C946.99,2471.02,915.07,2471.04,883.16,2471.06z"/>
	<path class="st13" d="M474.83,2246.12c-4.18,2.77-8.36,5.53-14.81,9.8c15.59,1.65,26.57-5.3,38.5-7.08
		c6.55,7.51,13.5,2.69,20.22,0.5c29.63-9.66,55.29-26.49,79.31-45.73c9.37-7.5,11.88-7.36,14.96,4.9
		c2.32,9.24,1.46,22.79,16.4,24.39c6.28,79.17,25.4,156.37,35.89,234.89c-1.59,0.87-3.18,1.75-4.76,2.63
		c-4.11,0.48-8.23,0.97-12.34,1.45c-6.89-1.6-13.76-1.54-20.62,0.22c-14.6-0.02-29.2-0.04-43.81-0.06
		c-21.79-1.92-43.58-1.75-65.36,0.08c-6.49-0.01-12.99-0.03-19.49-0.04c-78.36-1.94-156.72-1.92-235.08-0.18
		c-3.95,0.02-7.91,0.04-11.87,0.06c0,0,0.03-1.74,0.03-1.74c-2.44-30.4,7.41-59.17,12.52-88.46c9.4-53.8,20.86-107.23,31.46-160.82
		c10.12-4.9,0.69-9.62-0.97-12.91c-48.31-95.41-72.2-196.43-70.88-303.39c0.35-28.29,6.82-54.91,24.13-77.62
		c15.38-20.18,22.4-42.68,22.77-67.54c0.58-38.87,13.91-70.84,48.09-92.18c10.46-6.53,15.81-16.23,15.29-28.83
		c-0.03-0.67,0.14-1.34,0.14-2.01c0-72.41,45.56-103.25,120-89.67c62.98,11.49,123.55,32.67,181.88,59.46
		c58.76,26.99,79.35,81.14,95.64,137.54c9.87,34.16-4.48,67.97-33.69,87.63c-11.45,7.71-17.37,7.82-22.21-7.29
		c-19.18-59.87-58.54-99.61-119.34-118.45c-37.21-11.53-73.93-24.33-115.11-28.21c4.45,9.17,12.08,10.27,18.15,12.91
		c38.85,16.9,77.55,34.18,116.87,49.93c54.16,21.7,83.44,103.83,76.72,146.76c-4.8,30.66-20.66,53.49-49.38,66.64
		c-7.79,3.57-12.57,4.19-15.38-6.8c-12.58-49.2-43.73-81.47-90.79-100.63c-37.83-15.41-75.26-31.62-117.28-44.23
		c5.67,15.36,16.97,21.12,27.41,26.68c33.82,18,68.18,34.97,102.12,52.74c21.36,11.18,34.99,28.89,41.29,52.19
		c-8.84,0.59-7.28,7.53-8.68,13.28c-9.18,37.87-35.72,51.7-71.03,37.98c-20.59-8-41.42-15.44-62.43-22.25
		c-4.76-1.54-10.68-8.03-16.1-0.34c-19.68-8.01-37.95-19.55-65.01-25.23c19.51,24.15,43.39,36.39,61.11,54.72
		c-10.46,15.06-27.48,18.65-45.65,27.59c21.06,4.97,38.49,3,54.15-2.43c14.69-5.1,21.82,0.51,30.75,9.88
		c22.42,23.52,46.14,45.43,81.73,45.75c0.62,6.79,6.52,9.85,10.17,14.54c11.34,14.58,19.19,30.09,18.93,49.64
		c-0.38,29.54-14.3,52.21-32.47,73.64c-8.44,9.96-22.52,15.6-24.29,30.81c0,0,0.1-0.08,0.1-0.08
		C478.75,2240.65,475.8,2241.81,474.83,2246.12z"/>
	<path class="st12" d="M2899.17,2435.22c8.25-152.76,48.64-294.19,149.89-412.82c43.87-51.4,96-92.36,164.47-106.63
		c21.12-4.4,41.74-4.74,63.13,3.67c108.88,42.83,180.17,123.62,231.35,225.33c49.72,98.81,86.11,202.71,117.53,308.48
		c1.67,5.63,1.08,11.93,1.55,17.92c-222.45,0.04-444.9,0.07-667.34,0.11c0.19-6.03-0.57-12.27,0.73-18.06
		c14.89-66.27,35.27-130.78,62.48-193.08c4.03-9.23,7.89-18.53,11.76-27.82c3.83-9.18,9.53-17.92,8.48-31.88
		c-54.66,52.37-90.44,113.12-119.58,178.58C2915.31,2397.69,2914.69,2419.73,2899.17,2435.22z"/>
	<path class="st12" d="M1743.77,2213c10.59-7,21.18-14,31.77-21c39.66-13.31,81.15-18.63,121.71-28.02
		c-12.42,45.75-24.74,91.52-37.28,137.23c-15.27,55.62-23.69,112.37-28.4,169.74c-60.11,0-120.22,0.01-180.32,0.01
		c8.74-66.58,17.81-133.06,39.47-197.09c22.3-65.93,61.5-119.5,118.59-158.84c160.25-110.41,311.34-232.7,460.9-356.77
		c74.47-61.78,147.18-126.24,208.33-202.12c14.4-17.87,26.8-37.12,36.14-58.15c6.67-15.01,8.86-29.79-7.72-43.63
		c18.93-5.17,29.08,4.23,34.95,16.82c29.28,62.81,58.44,125.64,95.29,184.5c8.13,12.98-1.18,22.06-6.59,31.26
		c-39.57,67.24-79.47,134.29-119.74,201.12c-28.12,46.67-57,92.86-88.62,137.33c-44.05,61.95-46.58,62.36-94.31,5.99
		c-43.66-51.57-92.74-97.41-146.27-138.53c-21.61-16.6-36.63-13.58-50.66,10.17c-14.79,25.04-25.12,52.23-34.55,79.5
		c-8.1,23.4-22.76,37.4-44.63,48.49c-68.51,34.77-142.12,57.7-210.5,92.61c-34.6,17.66-64.85,40.58-89.65,70.55
		c-4.28,5.17-9.28,9.93-9.36,17.36c-0.97,1.72-1.95,3.42-2.94,5.13c-0.7,0.6-1.39,1.2-2.09,1.8c0.45-0.06,1.08,0.05,1.29-0.2
		c0.37-0.45,0.49-1.11,0.71-1.68C1740.79,2215.37,1742.28,2214.19,1743.77,2213z M1835.27,2284.1
		c0.49-22.46-22.72-46.67-44.52-46.44c-23.22,0.25-46.14,23.51-46.52,47.21c-0.36,22.35,20.81,44.13,43.32,44.57
		C1811.71,2329.91,1834.74,2308.03,1835.27,2284.1z"/>
	<path class="st9" d="M1012.2,2426.9c-43.8-62.38-98.17-111.5-171.5-136.92c-6.1-2.12-13.26-2.24-19.56-10.59
		c24.19-11.17,46.63-3.74,67.67,3.76c37,13.21,69.96,33.89,98.56,61.22c13.1,12.51,26.74,24.46,40.14,36.64
		c1.71,14.49,11.21,23.22,24.55,33.66c-7.21-41.54-13.83-79.72-20.46-117.89c-1.22-1.17-2.44-2.35-3.67-3.52l0.13,0.27
		c0.41-49.72-2.9-99.48,3.56-149.14c4.37-33.56,13.73-65.06,31.55-94.32c-11.44,86.52-8.62,172.57,3.18,258.8
		c13.5-94.48,29.96-188.01,81.99-271.18c-39.53,141.85-55.3,286.44-53.9,433.12c-15.34,0.11-30.69,0.22-46.04,0.33
		C1038.19,2454.88,1027.78,2438.77,1012.2,2426.9z"/>
	<path class="st14" d="M295.99,2220.92c-10.6,53.59-22.06,107.02-31.46,160.82c-5.12,29.29-14.96,58.06-12.52,88.46
		c-24.37,0.67-48.74,1.33-73.1,2c-1.09-0.68-2.19-0.68-3.3-0.02c-1.37-0.38-2.74-0.75-4.12-1.13
		c8.62-56.47,24.28-111.31,38.62-166.45c11.26-43.3,23.29-86.38,40.22-131.32C263.93,2193.17,279.53,2207.49,295.99,2220.92z"/>
	<path class="st7" d="M2899.17,2435.22c15.52-15.48,16.14-37.53,24.45-56.19c29.14-65.46,64.92-126.21,119.58-178.58
		c1.05,13.96-4.64,22.7-8.48,31.88c-3.88,9.29-7.73,18.59-11.76,27.82c-27.21,62.3-47.59,126.81-62.48,193.08
		c-1.3,5.78-0.53,12.03-0.73,18.06c-21.45-0.02-42.9-0.03-64.35-0.05C2896.66,2459.23,2897.92,2447.22,2899.17,2435.22z"/>
	<path class="st12" d="M706.46,2470.59c-8.89-24.04-4.99-50.23-12.55-74.55c-2.58-8.29,2.11-8.42,8.83-6.88
		c54.04,12.37,97.49,42.02,134.78,81.87C793.83,2470.88,750.15,2470.74,706.46,2470.59z"/>
	<path class="st7" d="M2769.03,2470.87c-16.3-38.02-38.59-73.43-52.95-119.45c47.45,32.92,85.6,67.98,128.96,101.01
		c3.86-31.59-10.78-58.34-9.59-86.62c12.34,13.41,11.22,31.43,14.35,47.36c3.83,19.51,7.68,38.92,13.1,58.04
		C2831.61,2471.09,2800.32,2470.98,2769.03,2470.87z"/>
	<path class="st7" d="M1012.2,2426.9c15.59,11.87,26,27.98,36.22,44.24c-23.16-0.05-46.33-0.09-69.5-0.14
		c-22.39-32.16-55.99-53.28-86.51-85.4C938.92,2392.02,974.13,2413.7,1012.2,2426.9z"/>
	<path class="st9" d="M583.76,2472.02c14.6,0.02,29.2,0.04,43.81,0.06C612.96,2476.9,598.36,2477.06,583.76,2472.02z"/>
	<path class="st9" d="M498.92,2472.06c6.5,0.01,12.99,0.03,19.49,0.04C511.9,2476.62,505.41,2476.67,498.92,2472.06z"/>
	<path class="st9" d="M251.98,2471.94c3.96-0.02,7.91-0.04,11.87-0.06C259.91,2476.31,255.95,2475.81,251.98,2471.94z"/>
	<path class="st9" d="M175.6,2472.19c1.1-0.66,2.2-0.66,3.3,0.02C177.8,2472.2,176.7,2472.19,175.6,2472.19z"/>
	<path class="st13" d="M1706.51,1157.81c-7.68-11.01-0.38-19.3,5.67-27.08c24.06-30.93,37.14-66.53,45.37-104.27
		c5.1-23.38,4.81-46.6-1.87-69.73c-7.44-25.74-22.45-48.39-29.45-74.45c-2.88-10.74-11.81-19.39-20.96-26.56
		c-47.83-37.51-129.75-31.12-171.42,13.39c-1.78,1.9-2.91,4.64-7.84,3.74c3.48-51.08,8.28-102.02,23.52-151.46
		c6.78-0.2,10.48-5.32,15.08-9.18c22.26-18.75,46.38-33.47,75.47-40.01c64.53-14.52,127.75-8.5,190.38,9.92
		c73.58,21.64,141.35,58.03,213.11,84.46c58.78,21.65,119.55,30.39,181.1,30.12c31.01-0.14,62.99-0.36,93.89-7.52
		c31.72,72.64,52.88,146.68,28.83,226.36c-3.5,11.59-1.9,23.59-6.08,35.44c-9.14,25.93-7.85,54.29-23.07,79.63
		c-10.17,16.94-21.01,35.99-20.95,57.78c0,1.51-0.81,5.33-3.09,3.69c-13.96-10.06-9.27,4.72-10.93,8.71
		c-3.31,7.94-2.45,17.33-7.86,24.99c-3.82-3.61-5.62-18.04-12.62-1.09c-5.44,13.17-15.05,24.62-22.91,37
		c-5.6-5.07,0.21-12.81-7.65-17.31c-7.66,17.6-15.5,34.96-26.47,50.32c-7.83-3.95,2.12-12.96-6.26-15.23
		c-14.9,8.99-21.82,23.88-28.33,38.45c-6.84-3.34-0.51-12.53-8.96-13c-6.33,6-6.67,16.24-14.78,20.8
		c-6.91-1.95,0.5-12.65-8.13-13.06c-6.35,3.8-3.24,14.21-11.89,16.63c-2.5-18-3.76-35.49-7.5-52.44
		c-10.12-45.91-36.96-67.09-84.22-67.84c-8.74-0.14-17.49,0.15-26.22,0.56c-63.13,2.96-126.26,6-189.39,9.02
		c12.23-4.84,24.53-9.5,36.67-14.55c14.62-6.08,35.63-11.81,29.62-30.86c-5.32-16.85-25.18-11.85-40.63-8.53
		c-19.45,4.18-38.78,11.85-58.99,8.66C1759.85,1169.05,1733.24,1163.06,1706.51,1157.81z M2095.04,1043.86l-0.66,0.35
		c3.62-0.06,7.42,0.21,8.46-4.6l-0.51,0.26c25.47-2.3,43.95-15.68,57.79-36.43c7.93,0.02,18.52,1.87,21.99-5.32
		c3.47-7.2-5.13-14.04-9.76-20.25c-13.28-17.8-30.26-31.55-48.66-43.69c3.08-3.04,8.95-6,1.14-9.99
		c-6.55-3.35-13.32-6.29-20.15-9.03c-23.25-9.32-46.82-17.53-76.46-17.74c16.62-13.1,29.93-17.8,54.6-26.25
		c53.4-2.64,94.35,17.38,144.92,44.67c-10.36-40.93-33.26-64.75-64.64-81.38c-44.25-23.46-91.85-29.01-141-24.4
		c-47.33,4.44-92.7,15.86-134.15,40.01c-16.08,9.36-18.82,23.06-11.69,43.59c5.5,15.84,15.78,15.84,28.59,11.55
		c8.12,15.85,16.01,31.82,24.59,47.41c1.27,2.3,5.81,2.79,8.85,4.11c0.01,12.79-9.74,22.3-11.63,34.44
		c-2.42,15.57,5.72,6.19,10.61,4.45c9.84,22.07,23.77,39.77,48.51,46.33c18.72,4.96,37.61,7.99,57.04,6.47l-0.47-0.34
		c0.92,1.29,1.81,2.67,3.49,0.86c15.21,0.41,30.47,1.36,45.11-4.27C2092.74,1046.52,2093.95,1045.48,2095.04,1043.86z"/>
	<path class="st16" d="M1820.07,1218.57c63.13-3.02,126.26-6.06,189.39-9.02c8.73-0.41,17.48-0.7,26.22-0.56
		c47.26,0.75,74.09,21.93,84.22,67.84c3.74,16.95,5,34.44,7.5,52.44c8.66-2.43,5.54-12.83,11.89-16.63
		c8.63,0.41,1.22,11.11,8.13,13.06c8.11-4.56,8.45-14.8,14.78-20.8c8.46,0.46,2.13,9.65,8.96,13c6.51-14.58,13.43-29.47,28.33-38.45
		c8.37,2.27-1.57,11.28,6.26,15.23c10.97-15.35,18.81-32.72,26.47-50.32c7.86,4.5,2.05,12.23,7.65,17.31
		c7.86-12.38,17.48-23.83,22.91-37c6.99-16.94,8.8-2.51,12.62,1.09c5.41-7.66,4.55-17.05,7.86-24.99
		c1.66-3.99-3.02-18.77,10.93-8.71c2.28,1.65,3.09-2.17,3.09-3.69c-0.06-21.79,10.78-40.84,20.95-57.78
		c15.21-25.34,13.93-53.69,23.07-79.63c4.18-11.85,2.58-23.85,6.08-35.44c24.05-79.68,2.89-153.72-28.83-226.36
		c-0.85-7.62-5.66-13.26-9.61-19.33c20.64-2.41,41.41-4.77,60.66-13.03c10.26-4.4,17.98-1.69,26,4.35
		c42.9,32.36,85.37,65.16,121.69,105.19c8.55,9.43,16.52,19.06,24.83,31.73c-73.5,1.82-117,41.75-140.87,106.44
		c-8.31,2.35-6.01-10.39-14.77-8.55c-1.72,29.53-1.13,59.46-3.91,89.34c-6.39,68.55-12.46,137.12-25.13,204.8
		c-5.5,29.37-18.46,56.7-31.35,84.7c-8.96-7.67-0.26-14.24-4.39-23.12c-13.27,24.33-17.63,51.2-35.86,70.86
		c-9.97,0.14,2.5-15.23-5.54-11.3c-6.42,3.14-15.51,0.86-20.57,11.78c-11.77,25.45-27.03,49.35-41.73,73.36
		c-4.36,7.12-10.99,16.32-20.95,11.57c-9.48-4.52-3.76-13.68-2.37-21.34c1.3-7.13,1.03-14.54-2.29-23.39
		c-7.57,14.09-15.57,27.98-22.61,42.33c-10.14,20.66-24.32,38.58-37.78,56.96c-3.23,4.42-7.18,12.16-13.95,8.75
		c-5.58-2.8-2.07-9.5-0.48-14.55c2.04-6.49,2.54-13.03-0.6-22.59c-15.54,21.12-28.69,41.76-46.49,58.84
		c-22.94,22.03-48.08,40.86-75.4,56.61c-8.84,5.1-18.87,13.82-31.3,4.56c-3.73-2.78-8.68,1.88-12.35,4.77
		c-16.85,13.26-37.37,13.77-57.2,15.83c-13.53,1.41-24.63-5.87-34.23-14.64c-8.83-8.06-17.6-16.28-25.11-29.74
		c-5.37,15.57,6.45,26.56,2.61,39.76c-16.5-7.37-24.83-23.54-39.29-35.43c-3.98,16.6,10.5,25.12,12.51,38.84
		c-13.73,1.56-23.15-6.99-33.33-12.24c-22.23-11.46-39.29-31.72-65.33-37.19c-6.66-1.4-10.39-9.89-14.75-15.97
		c-4.11-5.73-6.25-16.22-17.88-11.28c-1.48,0.63-6.23-1.96-6.42-3.45c-2.52-19.79-27.7-18.29-32.97-36.08
		c-4.74-16-11.89-31.31-18.23-46.82c-1.16-2.83-2.34-10.2-7.05-4.06c-8.61,11.24-8.65-1.1-9.53-3.63
		c-3.04-8.78-4.45-18.12-7.09-27.06c-1.49-5.03,4.24-17.81-11.1-9.78c-6.43,3.37-6.17-7.04-7.91-11.19
		c-12.55-29.93-16.97-61.83-21.64-93.64c-1.84-12.57-3.71-25.14-6.03-37.62c-0.91-4.9,0.53-7.7,4.9-9.43
		c13.96,9.15,15.91,31.26,36.66,33.57c0-5.96-0.04-11.91,0.01-17.87c0.46-60.44,24.46-89.29,84.22-97.88
		c33.86-4.87,68.14-6.84,102.23-10.12C1793.14,1222.19,1806.79,1222.61,1820.07,1218.57z M1694.83,1302.96
		c-18.52-4.65-37.06-7.81-56.26-3.87c-7.27,1.49-10.01,6.23-11.46,12.24c-1.49,6.2,2.5,10.73,7.16,13.2
		c8.82,4.68,18.24,8.2,27.41,12.21c2.11,29.48,4.62,58.89,13.38,87.37c6.92,22.51,18.4,41.68,38.81,54.61
		c9.59,6.08,21.27,10.16,30.1,3.58c13.41-9.99,19.38-25.52,22.04-42.5c1.67-10.62-8.78-12.19-11.11-19.47
		c-2.12-6.63-10.72-10.39-8.95-19.84c49.92,1.38,99.66,1.92,154.9-5.41c-10.02,12.21-14.68,21.14-22.03,26.09
		c-10.91,7.34-8.99,17.46-7.03,25.98c9.29,40.23,26.23,49.63,67.39,39.97c10.66-2.5,20.25-7.08,29.7-12.18
		c46.88-25.29,77.26-63.57,90.52-115.28c7.6-18.85,13.92-38.33,27.24-54.36c0.98-1.18,0.26-3.93,0.04-5.91
		c-2.03-18.44-33.98-29.14-52.2-17.51c-21.41,6.85-43.86,6.87-65.79,7.89c-57.88,2.67-116.03,16.41-173.75-1.89
		c-2.13-0.67-5.18,0.47-7.45,1.52C1757.94,1303.07,1726.36,1302.79,1694.83,1302.96z"/>
	<path class="st12" d="M2361.61,347.71c-3.18,101.34-22.01,200.15-47.61,297.95c-3.45,13.19-8.54,10.5-16.42,5.54
		c-39.3-24.72-78.25-50.01-118.03-73.92c-139.46-83.85-287.93-145.36-447.74-178.06c-19.7-4.03-39.7-7.21-59.73-8.88
		c-15.54-1.3-19.5-4.77-8.98-18.32c68.52-88.17,157.11-144.41,267.04-164.17c148.41-26.69,285.19,11.53,416.09,79.11
		c7.97,4.12,11.69,9.3,12.93,18.46C2361.09,319.52,2361.34,333.56,2361.61,347.71z"/>
	<path class="st13" d="M2435.34,1351.41c6.05,58.87,12.05,117.75,18.2,176.61c1,9.6-6.18,14.53-11.24,20.42
		c-68.74,79.98-147.24,149.84-228.31,216.74c-126.18,104.11-252.98,207.51-388.11,300.09c-39.27,26.9-39.54,27.04-57.22-16.48
		c-20.76-51.1-41.4-102.31-44.76-158.35c16.16,8.45,22.07,24.58,29.86,39.42c7.8,14.85,14.61,30.52,29.8,45.03
		c0-11.13,1.43-18.19-0.23-24.43c-9.95-37.25,3.26-72.96,6.46-109.31c1.32-14.96,6.98-17.27,19.5-8.1
		c44.96,32.91,92.14,31.25,140.5,7.72c35.69-17.36,69.73-37.29,101.65-61.02c67.44-50.13,133.07-102.63,185.37-168.83
		c66.94-84.72,132.64-170.68,162.76-277.29c3.29-11.64,8.36-9.29,14.28-0.89C2419.36,1340.55,2422.37,1351.92,2435.34,1351.41z"/>
	<path class="st12" d="M2378.46,308.34c225.62,132.32,290.27,387.76,215.52,599.77c-13.36-16.45-25.89-31.59-38.11-46.97
		c-44.92-56.51-102.15-99.02-160-140.81c-15.81-11.42-31.63-22.87-48.05-33.36c-9.48-6.06-11.73-12.18-8.56-23.34
		c24.29-85.47,41.92-172.24,45.23-261.28c1.15-30.84-3.82-61.58-7.8-92.21C2377.29,309.56,2377.88,308.96,2378.46,308.34z"/>
	<path class="st17" d="M857.86,1246.52c0.1-11.82,16.18-27.91-4.2-34.2c-17.29-5.34-18.25,14.14-22.93,24.48
		c-30.67,67.81-60.72,135.9-90.45,204.13c-4.77,10.95-8.45,15.57-19.5,6.16c-8.59-7.32-18.91-12.6-28.46-18.78
		c-0.56-6.34,2.21-11.73,4.7-17.29c34.03-75.96,67.41-152.21,102.4-227.73c8.25-17.81,6.1-30.85-4.37-46.36
		c-32.07-47.47-48.32-99.83-33.15-156.5c11.3-42.22,29.6-81.14,69.12-107.46c16.69-11.12,36.98-14.8,51.5-28.93
		c45.08-10.18,88.3-5.31,129.48,16.03c0.91,4.79,4.03,6.47,8.6,6.1c0,0-0.04-0.73-0.05-0.72c1.02,8.31,8.1,12.14,13.24,17.08
		c46.3,44.52,63.45,100.44,53.43,161.59c-15.23,92.86-90.06,153.83-186.75,157.56c-12.97,0.5-18.6,4.76-23.17,16.73
		C873.37,1228.74,872.39,1242.86,857.86,1246.52z M1024.43,994.82c0.12-51.65-40.2-92.53-91.59-92.87
		c-54.24-0.36-94.43,38.24-94.82,91.07c-0.41,54.7,38.71,94.9,93.12,95.7C982.36,1089.47,1024.32,1047.25,1024.43,994.82z"/>
	<path class="st12" d="M1342.16,698.18c-45-28.08-78.69-63.24-75.98-121.24c2.12-45.4,29.49-75.87,62.92-100.96
		c47.43-35.6,102.49-52.45,161.13-57.91c167.25-15.58,323.91,27.11,476.91,88.1c137.14,54.67,259.47,135.28,381.51,220.34
		c-16.62,8.47-33.5,8.39-49.35,9.87c-116.01,10.84-222.66-14.17-318.91-82.26c-59.81-42.31-113.21-93.02-177.07-130.12
		c-81.2-47.17-167.5-77.38-261.31-79.95c-70.64-1.93-139.88,9.26-199.12,52.68c-74.37,54.51-76.29,129.15-5.88,189.31
		c3,2.56,5.28,5.96,7.89,8.98C1343.98,696.07,1343.07,697.12,1342.16,698.18z"/>
	<path class="st14" d="M2435.34,1351.41c-12.97,0.52-15.97-10.85-21.49-18.69c-5.92-8.4-10.99-10.76-14.28,0.89
		c-30.12,106.61-95.83,192.57-162.76,277.29c-52.3,66.2-117.93,118.7-185.37,168.83c-31.92,23.73-65.95,43.65-101.65,61.02
		c-48.37,23.53-95.54,25.19-140.5-7.72c-12.52-9.16-18.19-6.86-19.5,8.1c-3.2,36.35-16.41,72.06-6.46,109.31
		c1.66,6.23,0.23,13.3,0.23,24.43c-15.18-14.5-21.99-30.18-29.8-45.03c-7.8-14.83-13.7-30.97-29.86-39.42
		c-3.98-17.21-2.62-34.31,2.06-52.08c10.34,31.55,24.41,61.1,43.7,89.19c-9.32-76.89-18.65-153.78-28.42-234.33
		c31.37,17.24,60.25,29.48,91.71,34.16c50,7.44,98.41-1.23,144.09-20.25c138.21-57.56,253.16-146.98,345.91-263.88
		c40.95-51.61,61.43-112.99,67.31-178.89c0.89-10.01,2.86-19.92,4.32-29.88c5.63,0.52,8,3.51,6.93,9.12
		c-6.76,25.03-3.28,43.83,15.56,51.69c17.9,7.47,18.55,19.54,18.49,34.25C2435.51,1336.82,2435.41,1344.11,2435.34,1351.41z"/>
	<path class="st0" d="M1771.5,541.75c-45.59,4.77-87.41,10.84-127.76,25.64c-67.21,24.67-108.83,71.53-126.53,140.19
		c-11.23,43.58-10.78,43.32-53.97,29.98c-46.44-14.35-86.97-38.05-121.53-72.38c-48.95-48.63-45.62-106.16,11.78-148.96
		c39.47-29.43,84.96-40.38,133.06-45.89c83.3-9.53,160.7,10.58,236.11,42.78C1739.08,520.13,1754.44,529.18,1771.5,541.75z"/>
	<path class="st13" d="M1779.5,1221.84c-34.09,3.28-68.37,5.25-102.23,10.12c-59.76,8.59-83.76,37.44-84.22,97.88
		c-0.04,5.96-0.01,11.91-0.01,17.87c-20.75-2.31-22.7-24.42-36.66-33.57c-28.7-91.96-37.86-184.94-14.33-279.57
		c6.31-25.37-3.27-49.15-7.55-73.33c-5.98-33.74-8.65-41.36,25.48-53.99c4.75,2.68,14.02,5.99,19.65,5.64
		c21.25-1.29,41.05,4.24,58.55,16.88c-49.56,8.28-67.65,26.22-68.47,65.7c-0.3,14.58,3.59,20.05,17.99,14.37
		c13.38,35.7,29.57,46.21,71.89,46.68c16.58,5.74,32.34,2.11,47.88-4.16c7.94-1.13,15.88-2.25,23.81-3.38
		c-5.96,28.79-20.75,53.5-35.31,78.49c-18.46,31.68,2.67,71.32,39.28,75.11c0,0-0.26-0.35-0.26-0.35c-1.85,6.62,5.32,4.2,7.15,7.13
		C1752.75,1219.05,1767.75,1215.57,1779.5,1221.84z"/>
	<path class="st14" d="M2308.95,769.84c3.95,6.07,8.76,11.72,9.61,19.33c-30.9,7.16-62.89,7.38-93.89,7.52
		c-61.55,0.27-122.33-8.47-181.1-30.12c-71.76-26.43-139.53-62.81-213.11-84.46c-62.62-18.42-125.84-24.44-190.38-9.92
		c-29.09,6.54-53.21,21.26-75.47,40.01c-4.59,3.87-8.3,8.99-15.08,9.18c11.09-69.57,57.41-106.82,119.63-128.1
		c43.71-14.95,89.17-18.92,135.34-16.48c18.32,0.97,33.16,7.21,47.24,18.96c44.9,37.48,90.49,74.12,140.35,105.03
		c93.65,58.07,195.39,80.52,304.78,69.64C2300.88,770.05,2304.92,770.03,2308.95,769.84z"/>
	<path class="st13" d="M2401.5,1243.58c1.07-5.61-1.3-8.6-6.93-9.12c2.36-63.21-1.78-127.54,8.8-189.35
		c12.24-71.57,78.27-134.58,147.13-119.36c24.46,5.41,40.59,19.72,50.04,42.45c14.47,34.81,15.79,70.7,7.77,106.97
		c-14.24,64.4-41.01,122.26-90.74,167.47c-11.1,10.09-22.28,23.23-31.59-2.96c-3.57-10.03-14.08-17.9-26.36-11.49
		c-12.18,6.35-14.19,18.54-8.59,29.73c9.88,19.73-2.09,18.48-14.46,16.11C2419.32,1270.73,2408.49,1259.16,2401.5,1243.58z
		 M2566.87,1024.59c3.2,5.66,1.57,13.4,7.57,18.07c11.25-29.83,6.24-57.13-12.63-69.65c-17.35-11.52-44.26-6.51-66.49,12.84
		c-16.98,14.78-29.47,32.85-38.69,53.44c-7.86,17.58-9.9,35.07-0.61,52.36c12.52,23.26,8.66,43.43-8.38,62.87
		c-8.44,9.64-15.78,20.72-14.4,40.57c14.33-20.33,32.04-28.36,48.63-38.04c34.89-3.03,50.57-19.35,48.82-59.23
		C2529.28,1065.26,2542.07,1042.71,2566.87,1024.59z"/>
	<path class="st13" d="M573.11,1427.11c58.78,6.08,124.93,22.29,171.77,81.89c16.08,20.46,26.56,43.28,32.11,68.71
		c4.82,22.11-0.73,41.41-14.31,58.55c-20.49,25.86-30.75,26.09-49.28-0.2c-27.28-38.71-68.04-55.45-110.27-70.15
		c-42.07-14.64-85.5-23.99-129.56-29.46c-19.15-2.38-21.37-9.03-15.01-25.61c8.72-22.71,16.4-45.46,35.41-62.3
		C513.36,1431.35,536.34,1426.27,573.11,1427.11z"/>
	<path class="st12" d="M1715,1998.8c14.07,37.98,34.82,73.37,46.76,113.24c-11.59,1.85-13.79-5.97-17.13-10.77
		c-31.8-45.68-74.12-79.64-121.3-107.71c-14.63-8.71-23.23-19.2-25.64-35.88c-1.92-13.27-4.98-26.41-8.09-39.47
		c-6.05-25.38-27.47-33.99-48.89-18.63c-30.71,22.04-56.79,49.41-83.3,76.16c-8.43,8.51-15.98,17.88-25.6,28.74
		c-7.07-14.69-3.2-24.39,1.95-33.5c58.28-103.24,121.7-203,199.65-292.83c7.49-8.64,15.7-16.62,25.56-22.73
		c5.85-3.63,11.37-8.08,17.73-1.07c-37.38,78.28-45.52,160.4-29.42,244.77C1655.32,1941.24,1676.46,1976.43,1715,1998.8z"/>
	<path class="st13" d="M863.34,1824.78c-10.75,23.08-15.05,48.1-20.79,72.54c-25.94,110.54-92.25,184.7-198.72,223.36
		c0.37-5.04-2.27-8.76-4.88-12.82c-13.25-20.54-15.96-43.79-8.23-65.78c24.22-68.91,54.62-135.54,111.78-183.45
		C776.01,1830.53,813.93,1803.11,863.34,1824.78z"/>
	<path class="st18" d="M857.86,1246.52c14.53-3.67,15.5-17.79,19.45-28.12c4.57-11.98,10.19-16.23,23.17-16.73
		c96.69-3.74,171.52-64.7,186.75-157.56c10.03-61.15-7.13-117.07-53.43-161.59c-5.14-4.94-12.23-8.77-13.24-17.08
		c58.8,30.26,87.95,80.98,96.47,144.26c13.09,97.3-50.09,194.64-149.84,219.22c-15.8,3.89-19.74,13.73-17.68,28.55
		c4.98,35.87-3.2,43.19-37.92,34.73c-25.22-6.14-30.35-3.72-40.42,19.37c-2.95,6.77-5.72,13.63-8.43,20.5
		c-13.18,33.43-13.14,33.41,13.48,58.18c6.58,6.12,12.08,12.05,6.87,22.6c-4.77,9.66-10.6,14.59-21.81,13.44
		c-8.62-0.88-17.72-1.53-26.05,0.28c-12.35,2.7-19.71,19.91-14.69,32.58c4.2,10.6,9.89,20.61,14.03,31.23
		c5.62,14.41-1.13,25.17-16.18,27.05c-24.86,3.1-53.82-16.55-59.79-40.84c-0.57-2.32,0.12-5.28,1.07-7.59
		C790.58,1394.04,822.58,1319.56,857.86,1246.52z"/>
	<path class="st12" d="M3212.18,1891.06c-15.58,4.57-26.66,6.03-35.95,10.91c-22.05,11.58-41.91,9.55-64.22-1.17
		c-142.57-68.46-290.24-124.28-439.75-175.47c-6.34-2.17-20.05,0.27-15.62-14.13c6.38-20.77,18.38-29.63,32.67-24.85
		c86.07,28.78,171.04,60.61,255.19,94.53C3032.3,1816.27,3119.6,1852.89,3212.18,1891.06z"/>
	<path class="st18" d="M882.52,844.04c-14.52,14.13-34.81,17.81-51.5,28.93c-39.52,26.32-57.82,65.24-69.12,107.46
		c-15.17,56.67,1.08,109.03,33.15,156.5c10.47,15.5,12.63,28.54,4.37,46.36c-34.99,75.51-68.37,151.77-102.4,227.73
		c-2.49,5.55-5.26,10.94-4.7,17.29c-40.74-13.78-40.85-13.83-23.63-51.68c20.59-45.25,41.24-90.47,62.24-135.53
		c3.6-7.72,5.8-14.37,1.14-22.55c-12.99-22.84-7.88-43.23,11.56-59.27c11.25-9.28,6.01-16.71,1.47-25.92
		c-43.71-88.68-28.23-181.86,40.72-242.85C813.53,865.99,845.33,849.21,882.52,844.04z"/>
	<path class="st13" d="M905.97,1743.07c-6.19-6.45,4.44-13.17-1.02-20.49c-5.1,5.72-10.1,11.34-15.1,16.95
		c-5.1,1.45-10.64,2.06-15.22,4.48c-35.75,18.92-68.28,11.58-98.78-11.79c-4.66-3.57-9.3-5-14.86-4.6
		c-2.65-6.88-4.84-13.99-8.06-20.6c-6.59-13.54-1.71-23.28,9.61-30.86c25.42-17.04,41.25-40.63,45.89-70.65
		c1.67-10.8,7.3-14.67,15.86-17.99c58.53-22.71,113.13,15.38,110.86,77.99c-1.02,28.14-8.53,55.23-16.51,82.11
		C914.42,1746.11,910.19,1744.59,905.97,1743.07z"/>
	<path class="st14" d="M905.97,1743.07c4.23,1.52,8.45,3.04,12.68,4.56c-2.68,23.93-16.88,41.19-33.28,57.08
		c-7.13,6.91-14.67,13.39-22.02,20.07c-49.4-21.66-87.32,5.76-120.85,33.86c-57.16,47.91-87.56,114.54-111.78,183.45
		c-7.73,21.99-5.02,45.24,8.23,65.78c2.62,4.05,5.25,7.77,4.88,12.82c-7.75,7.05-18.07,8.2-27.32,11.75
		c-10.6,4.06-22.57,12.27-31.86,10.02c-11.3-2.73-5.49-19.72-10.99-29.14c-0.89-1.53-2.66-2.55-4.95-4.65
		c-5.06,60.38-37.19,101.99-86.06,132.56c1.77-15.22,15.85-20.85,24.29-30.81c18.16-21.43,32.08-44.11,32.47-73.64
		c0.25-19.55-7.59-35.05-18.93-49.64c-3.64-4.69-9.54-7.75-10.17-14.54c37.75-8.71,58.48-36.05,73.79-68.62
		c4.66-9.91,10.8-14.63,21.3-18.44c45.72-16.59,71.37-50.74,78.86-98.23c1.71-10.86,4.33-17.41,15.31-22.58
		c27.65-13.01,48-34.53,59.24-63.06c5-12.7,9.49-15.83,22.98-10.42c26.74,10.72,53.83,7.68,80.41-3.01
		c19.37-7.8,31.09-22.4,39.23-40.72c1.73-1.42,3.46-2.84,5.2-4.27L905.97,1743.07z"/>
	<path class="st0" d="M1697.57,2172.53c-24.31-52.92-66.16-88.53-115.34-116.95c-25.26-14.6-52.46-14.09-80.18-11.13
		c-24.6,2.63-48.97,8.14-73.96,6.44c11.92-17.96,29.43-30.57,44.25-45.74c23.8-24.35,49.23-46.99,75.66-68.57
		c10.67-8.72,13.21-4.09,15.48,5.54c0.91,3.88,2.33,8.01,1.8,11.79c-4.28,30.26,14.12,48.16,36.03,62.19
		c27.1,17.36,53.5,35.69,78.2,56.05c18.98,15.64,34.44,35.3,48,56.14c9.3,14.3-2.8,23.61-10.63,28.05
		c-9.95,5.64-13.96-7.25-16.34-14.7c-4.87-15.23-6.34-31.58-13.77-45.99c-2.28-4.42-2.92-14.11-11.72-9.35
		c-6.21,3.36-5.36,10.49-2.64,16.27c5.68,12.08,12.5,23.66,17.6,35.96C1694.46,2149.27,1705.27,2158.97,1697.57,2172.53z"/>
	<path class="st7" d="M1715,1998.8c-38.54-22.37-59.68-57.56-67.72-99.68c-16.1-84.37-7.96-166.49,29.42-244.77
		c31.19,9.25,28.87,36.3,35.05,60.85c10.62,42.21-10.82,78.02-17.54,116.69c-8.6,49.53,0.15,97.01,15.94,143.69
		C1712.76,1983.26,1716.19,1990.45,1715,1998.8z"/>
	<path class="st7" d="M2204.15,2046.56c-29.57,1.57-52.67,18.61-76.69,32.87c-62.81,37.28-130.44,61.72-201.38,77.77
		c-0.26-3.33-0.68-6.67-0.76-10.01c-0.73-31.85-0.21-30.6,28.57-42.24c42.15-17.03,83.76-35.49,125.06-54.51
		c18.49-8.51,31.8-24.11,44.27-39.99c26.66,1.34,48.97,16.59,74.01,23.15C2203.56,2035.26,2204.35,2040.89,2204.15,2046.56z"/>
	<path class="st0" d="M2204.15,2046.56c0.2-5.67-0.59-11.3-6.91-12.96c-25.04-6.56-47.36-21.81-74.01-23.15
		c14.84-32.11,60.16-53.63,92.33-43.86c6.82,2.07,10.85,7.69,15.53,12.37c39.72,39.71,80.81,78.17,115.05,122.99
		c6.22,8.14,15.75,9.58,23.92,13.83c-10.62,12.29-20.66,4.4-29.99-1.53c-20.79-13.22-41.4-26.77-61.64-40.82
		C2255.96,2057.83,2231.12,2049.4,2204.15,2046.56z"/>
	<path class="st14" d="M1779.5,1221.84c-11.75-6.27-26.75-2.79-37.36-12.46c-0.15-4.61-1.06-8.47-7.15-7.13c0,0,0.26,0.35,0.26,0.35
		c-8.83-15.41-28.8-23.67-28.75-44.79c26.73,5.24,53.35,11.24,80.24,15.48c20.21,3.19,39.54-4.48,58.99-8.66
		c15.45-3.32,35.31-8.32,40.63,8.53c6.02,19.05-15,24.78-29.62,30.86c-12.14,5.05-24.44,9.72-36.67,14.55
		C1806.79,1222.61,1793.14,1222.19,1779.5,1221.84z M1820.57,1196.45c7.14,0,13.2,0.77,18.98-0.2c7.01-1.18,15.02,0.87,20.68-5.16
		c0.61-0.65-0.45-4.19-1.66-5.01c-7.67-5.16-16.3-6.56-25.01-3.66C1828,1184.28,1822.4,1187.08,1820.57,1196.45z"/>
	<path class="st14" d="M393.23,1962.29c5.42-7.69,11.33-1.2,16.1,0.34c21.01,6.81,41.84,14.25,62.43,22.25
		c35.3,13.72,61.85-0.11,71.03-37.98c1.39-5.75-0.17-12.69,8.68-13.28c17.26,36.58,7.16,77.14-24.99,100.4
		c-17,12.3-32.17,12.03-51.45-3.69C447.53,2007.94,422.86,1982.14,393.23,1962.29z"/>
	<path class="st14" d="M1638.18,929.77c-17.5-12.64-37.3-18.17-58.55-16.88c-5.64,0.34-14.9-2.97-19.65-5.64
		c35.87-21.38,78.05-9.83,115.48-2.89c6.52,1.21,12.76,3.93,19.11,6.03c34.01,11.25,53.94,49.69,45,86.73
		c-5.17-2.69-8.3-7.25-11.08-12.12c-0.95-18.77-13.29-30.02-26.91-40.22C1682.69,930.6,1660.52,929.71,1638.18,929.77z"/>
	<path class="st14" d="M629.4,2232.9c-14.93-1.61-14.07-15.16-16.4-24.39c-3.08-12.25-5.59-12.4-14.96-4.9
		c-24.02,19.23-49.67,36.07-79.31,45.73c-6.72,2.19-13.67,7.02-20.22-0.5c32.79-17.62,60.43-39.74,80.94-72.4
		c9.94-15.82,34.99-13.31,53.02-19.56c5.9-2.05,4.61,4.84,3.64,8.3C629.91,2187.38,632.45,2210.41,629.4,2232.9z"/>
	<path class="st7" d="M1897.25,2163.97c-40.56,9.4-82.05,14.72-121.71,28.02c0.36-7.07,5.21-10.23,10.83-13.11
		c41.59-21.24,83.4-42,129.73-58.97C1911.58,2136.72,1907.41,2151.51,1897.25,2163.97z"/>
	<path class="st7" d="M2827.67,2231.2c21.08,29.87,31.98,64.56,46.08,97.72c1.56,3.67,1.9,7.91,5.72,10.29
		c-0.22,21.43-11.41,41.12-9.37,62.94c-12.58-52.23-25.22-104.16-40.84-155.31C2827.66,2241.59,2826.29,2236.62,2827.67,2231.2z"/>
	<path class="st14" d="M761,1727.62c5.55-0.4,10.19,1.03,14.86,4.6c30.5,23.37,63.03,30.71,98.78,11.79
		c4.58-2.42,10.12-3.03,15.22-4.48c-27.88,32.32-71.36,40.28-106.9,19.31C771.07,1751.82,761.15,1743.06,761,1727.62z"/>
	<path class="st10" d="M2465.59,1240.34c20.66,6.45,20.94,19.77,24.76,30.58c2,5.67-0.28,12.53,10.97,12.8
		c11.37,0.28,5.88,11.67,4.37,17.18c-2.67,9.69-7.82,20.02-20.29,18.77c-9.92-1-4.03-9.6-4.14-14.68
		C2480.83,1284.16,2477.34,1263.99,2465.59,1240.34z"/>
	<path class="st10" d="M1728.49,984.99c2.78,4.88,5.9,9.44,11.08,12.12c4.49,18.45-1.52,35.22-8.28,51.88
		c-7.94,1.13-15.88,2.25-23.82,3.38C1727.25,1033.9,1730.69,1010.32,1728.49,984.99z"/>
	<path class="st16" d="M1363.25,705.16c12.9,6.47,25.81,12.93,38.71,19.4c-0.71,1.59-1.42,3.18-2.14,4.78
		c-14.66-3.43-27.59-11.37-40.62-19.04C1360.55,708.58,1361.9,706.87,1363.25,705.16z"/>
	<path class="st7" d="M2834.91,2358.15c-5.41-12.99-9.16-26.32-8.18-40.6C2831.67,2330.64,2843.34,2342.37,2834.91,2358.15z"/>
	<path class="st18" d="M1020.6,866.16c-4.57,0.37-7.68-1.31-8.6-6.1C1015.46,861.27,1019.45,861.71,1020.6,866.16z"/>
	<path class="st12" d="M1349.95,702.39c-2.59-1.41-5.19-2.82-7.79-4.22c0.91-1.05,1.82-2.1,2.74-3.17c2.47,1.69,4.92,3.38,7.37,5.08
		C1351.5,700.85,1350.72,701.62,1349.95,702.39z"/>
	<path class="st12" d="M1363.25,705.16c-1.35,1.71-2.7,3.42-4.04,5.13c-1.54-1.49-3.07-2.99-4.61-4.49
		c0.64-0.63,1.27-1.26,1.91-1.88C1358.75,704.33,1361,704.75,1363.25,705.16z"/>
	<path class="st14" d="M474.83,2246.12c0.97-4.31,3.92-5.47,7.91-4.98C481.27,2244.65,478.28,2245.76,474.83,2246.12z"/>
	<path class="st12" d="M1354.59,705.8c-1.54-1.15-3.08-2.29-4.63-3.43c0.76-0.76,1.53-1.52,2.31-2.29c1.41,1.28,2.8,2.57,4.22,3.84
		C1355.87,704.55,1355.23,705.18,1354.59,705.8z"/>
	<path class="st12" d="M2376.68,310.14c-0.36-1.04-0.72-2.08-1.08-3.13c0.95,0.44,1.9,0.89,2.86,1.33
		C2377.88,308.96,2377.29,309.56,2376.68,310.14z"/>
	<path class="st14" d="M660.53,2470.42c1.59-0.88,3.17-1.76,4.76-2.63C664.91,2470.84,663.11,2471.34,660.53,2470.42z"/>
	<path class="st13" d="M906.61,1743.23c-1.73,1.42-3.46,2.84-5.2,4.27C902.45,1745.22,902.04,1741.2,906.61,1743.23z"/>
	<path class="st7" d="M1031.6,2296.77c6.62,38.18,13.25,76.35,20.46,117.89c-13.34-10.45-22.84-19.18-24.55-33.66
		c6.76-7.53-0.87-12.09-3.86-17.36c-24.43-43.06-47.77-86.53-56.29-141.89c22.47,26.57,41.59,49.17,60.71,71.78
		c0,0-0.13-0.27-0.13-0.27C1029.16,2294.43,1030.38,2295.6,1031.6,2296.77z"/>
	<path class="st9" d="M1835.27,2284.1c-0.53,23.92-23.55,45.8-47.72,45.34c-22.51-0.43-43.68-22.21-43.32-44.57
		c0.38-23.7,23.3-46.96,46.52-47.21C1812.55,2237.43,1835.76,2261.65,1835.27,2284.1z M1790.47,2260.93
		c-17.37-0.72-25.92,9.36-25.62,23.19c0.3,13.9,11.12,24.56,25.13,24.37c14.79-0.2,21.66-11.73,22.09-26.39
		C1812.52,2266.41,1804.03,2260.33,1790.47,2260.93z"/>
	<path class="st9" d="M1743.77,2213c-1.49,1.19-2.98,2.38-4.47,3.56l0.08,0.09c0.98-1.7,1.97-3.41,2.94-5.13
		C1742.81,2212,1743.29,2212.49,1743.77,2213z"/>
	<path class="st9" d="M1739.3,2216.56c-0.22,0.57-0.34,1.24-0.71,1.68c-0.21,0.25-0.85,0.15-1.29,0.2c0.7-0.6,1.39-1.2,2.09-1.8
		C1739.39,2216.65,1739.3,2216.56,1739.3,2216.56z"/>
	<path class="st12" d="M1031.6,2296.77c-1.22-1.17-2.44-2.35-3.67-3.52C1029.16,2294.43,1030.38,2295.6,1031.6,2296.77z"/>
	<path class="st9" d="M1904.85,905.18c-12.8,4.3-23.08,4.3-28.59-11.54c-7.13-20.52-4.39-34.22,11.69-43.59
		c41.46-24.15,86.83-35.57,134.15-40.01c49.15-4.61,96.75,0.95,141,24.4c31.37,16.63,54.27,40.45,64.64,81.38
		c-50.57-27.28-60.77-50.32-114.17-47.68C2054.47,864.54,1959.82,885.44,1904.85,905.18z"/>
	<path class="st9" d="M1937.28,995.6c-4.89,1.74-13.03,11.12-10.61-4.45c1.89-12.14,11.64-21.64,11.63-34.43c0,0-0.61-0.5-0.61-0.5
		c4.71,1.76,5.28-0.55,4.31-4.38l-0.23,0.39c4.14,1.12,4.62-1.25,4.23-4.44l-0.26,0.29c3.44,0.48,4.58-1.23,4.17-4.4l-0.19,0.24
		c3.19,0.32,4.78-0.92,4.22-4.29l0.38,0.76c4.12-1.16,8.69-1.8,8.66-7.65l-0.64-0.01c38.76-16.72,78.85-22.15,120.51-14.11
		c13.62,5.19,27.25,10.37,40.87,15.56c18.4,12.14,35.38,25.89,48.66,43.69c4.63,6.21,13.23,13.05,9.76,20.25
		c-3.47,7.19-14.05,5.34-21.99,5.32c-9.79-13.21-20.59-25.19-38.56-32.38c6.34,28.1-6.24,48.52-19.23,68.82c0,0,0.51-0.26,0.5-0.26
		c-4.9-2.28-6.85,0.85-8.46,4.6c0,0,0.66-0.35,0.65-0.36c-1.36,0.26-2.72,0.54-4.07,0.82c-14.64,5.63-29.9,4.68-45.11,4.27
		c-0.98-1.02-2.15-1.31-3.5-0.86c0,0,0.47,0.34,0.47,0.34c-32.7-19.37-41.25-48.6-34.34-84.13c2-5.34,6.7-9.8,5.45-16.7
		c-27.31,2.41-49.63,13.32-65.62,35.91C1944.64,987.52,1940.96,991.56,1937.28,995.6z M2058.16,973.54
		c-0.44-9.22-5.4-16.07-14.12-16.61c-9.54-0.6-16.53,5.19-16.85,15.71c-0.28,9.09,3.92,15.78,13.62,16.41
		C2051.28,989.73,2056.37,983.26,2058.16,973.54z"/>
	<path class="st14" d="M2123.7,934.17c-13.62-5.19-27.25-10.37-40.87-15.56c-1.36-2.14-2.33-5.72-4.15-6.22
		c-37.91-10.5-74.19-4.02-109.47,11.29c-3.75,1.63-6.84,4.32-6.89,9.04c0,0,0.64,0.01,0.63-0.01c-6.66-1.7-9.53,0.89-8.65,7.67
		c0,0-0.38-0.76-0.38-0.76c-1.41,1.43-2.81,2.86-4.22,4.29c0,0,0.19-0.24,0.2-0.24c-1.39,1.47-2.78,2.93-4.18,4.39
		c0,0,0.26-0.29,0.26-0.29c-1.41,1.48-2.82,2.96-4.23,4.44c0,0,0.23-0.39,0.23-0.38c-1.43,1.46-2.87,2.92-4.31,4.38
		c0,0,0.61,0.5,0.61,0.5c-3.03-1.33-7.58-1.82-8.84-4.11c-8.59-15.59-16.48-31.56-24.59-47.41c54.97-19.74,114.59-36.16,173.7-32.55
		c-11.79,11.46-33.7,11.68-50.32,24.78c29.64,0.21,53.22,8.42,76.46,17.74c6.83,2.74,13.61,5.68,20.15,9.03
		C2132.65,928.17,2126.79,931.13,2123.7,934.17z"/>
	<path class="st19" d="M1937.28,995.6c3.68-4.04,7.36-8.08,11.04-12.12c20.23-5.86,38.33-18.37,60.17-19.21
		c-6.91,35.54,1.64,64.76,34.34,84.13c-19.43,1.51-38.32-1.51-57.04-6.47C1961.04,1035.38,1947.11,1017.67,1937.28,995.6z"/>
	<path class="st10" d="M2102.34,1039.87c12.99-20.29,25.56-40.71,19.23-68.82c17.97,7.19,28.77,19.17,38.56,32.38
		C2146.29,1024.18,2127.81,1037.56,2102.34,1039.87z"/>
	<path class="st10" d="M2094.38,1044.21c1.61-3.75,3.57-6.88,8.46-4.6C2101.81,1044.42,2098,1044.15,2094.38,1044.21z"/>
	<path class="st10" d="M2090.96,1044.66c1.35-0.28,2.71-0.56,4.07-0.82C2093.95,1045.48,2092.74,1046.52,2090.96,1044.66z"/>
	<path class="st19" d="M2042.36,1048.07c1.35-0.44,2.51-0.16,3.5,0.86C2044.17,1050.75,2043.27,1049.36,2042.36,1048.07z"/>
	<path class="st13" d="M2059.4,1359.66c-13.27,51.7-43.65,89.99-90.52,115.28c-9.45,5.1-19.04,9.68-29.7,12.18
		c-41.15,9.66-58.09,0.26-67.39-39.97c-1.97-8.52-3.88-18.64,7.03-25.98c7.35-4.94,12.01-13.88,22.03-26.09
		c-55.23,7.33-104.98,6.79-154.9,5.41c-1.77,9.45,6.83,13.2,8.95,19.84c2.33,7.27,12.77,8.85,11.11,19.47
		c-2.66,16.98-8.63,32.51-22.04,42.5c-8.83,6.58-20.51,2.5-30.1-3.58c-20.41-12.93-31.88-32.1-38.81-54.61
		c-8.76-28.47-11.26-57.88-13.38-87.37c0.16-9.32,4.73-9.53,13.07-8.66c123.38,12.87,245.56,5.9,365.8-25.39
		c14.73-3.83,17.35,0.58,18.94,12.7C2061.43,1330.21,2059.99,1344.91,2059.4,1359.66z"/>
	<path class="st9" d="M2059.4,1359.66c0.58-14.75,2.03-29.45,0.09-44.28c-1.59-12.12-4.21-16.53-18.94-12.7
		c-120.24,31.29-242.42,38.26-365.8,25.39c-8.34-0.87-12.92-0.66-13.07,8.66c-9.17-4-18.59-7.53-27.41-12.21
		c-4.66-2.47-8.66-7.01-7.16-13.2c1.45-6.01,4.19-10.74,11.46-12.24c19.21-3.94,37.74-0.78,56.26,3.87
		c-8.73,1.73-17.47,3.46-28.04,5.56c13.6,9.69,27.21,9.43,40.44,9.78c69.11,1.83,138.1-1.49,206.87-7.7
		c36.58-3.31,73.24-7.91,108.67-18.5c4.66-1.39,14.57,0.77,11.72-10.21c18.22-11.63,50.17-0.93,52.2,17.51
		c0.22,1.99,0.94,4.74-0.04,5.91C2073.33,1321.33,2067.01,1340.81,2059.4,1359.66z"/>
	<path class="st13" d="M2034.49,1281.87c2.86,10.98-7.05,8.82-11.72,10.21c-35.43,10.59-72.09,15.19-108.67,18.5
		c-68.77,6.22-137.76,9.54-206.87,7.7c-13.23-0.35-26.84-0.09-40.44-9.78c10.58-2.1,19.31-3.83,28.04-5.56
		c31.52-0.17,63.1,0.12,92.67-13.56c2.27-1.05,5.33-2.2,7.45-1.52c57.71,18.3,115.87,4.56,173.75,1.89
		C1990.62,1288.75,2013.08,1288.72,2034.49,1281.87z"/>
	<path class="st9" d="M1024.43,994.82c-0.12,52.43-42.07,94.65-93.3,93.9c-54.41-0.8-93.53-41-93.12-95.7
		c0.39-52.83,40.58-91.43,94.82-91.07C984.23,902.29,1024.55,943.18,1024.43,994.82z M930.02,1060.35
		c37.8,0.37,66.08-26.76,66.26-63.56c0.19-38.97-26.94-66.83-65.23-67.02c-38.46-0.19-65.16,26.09-65.2,64.19
		C865.8,1030.96,893.87,1060,930.02,1060.35z"/>
	<path class="st9" d="M1728.49,984.99c2.2,25.33-1.23,48.91-21.02,67.38c-15.53,6.26-31.3,9.9-47.88,4.15
		c-35.1-23.83-36.49-57.28-25.02-94.47c-28.37,5.24-42.41,21.93-46.87,47.79c-14.4,5.68-18.29,0.2-17.99-14.37
		c0.81-39.47,18.9-57.42,68.47-65.7c22.33-0.07,44.51,0.83,63.4,14.99C1715.19,954.97,1727.53,966.22,1728.49,984.99z
		 M1677.76,986.55c-1.47-7.01-5.17-13.78-13.64-13.58c-7.85,0.18-13.65,5.34-13.79,14.08c-0.14,8.52,4.32,14.19,13,14.32
		C1672.06,1001.49,1675.83,995.18,1677.76,986.55z"/>
	<path class="st10" d="M1587.7,1009.84c4.46-25.85,18.49-42.54,46.87-47.79c-11.47,37.19-10.08,70.64,25.02,94.47
		C1617.28,1056.06,1601.08,1045.54,1587.7,1009.84z"/>
	<path class="st9" d="M1734.99,1202.25c6.09-1.34,7,2.51,7.15,7.13C1740.31,1206.45,1733.14,1208.87,1734.99,1202.25z"/>
	<path class="st9" d="M2481.88,1157.06c-16.58,9.68-34.29,17.7-48.63,38.04c-1.38-19.85,5.96-30.93,14.4-40.57
		c17.04-19.44,20.89-39.61,8.38-62.87c-9.3-17.28-7.26-34.78,0.61-52.36c9.22-20.59,21.71-38.66,38.69-53.44
		c22.24-19.35,49.14-24.36,66.49-12.84c18.86,12.52,23.87,39.82,12.63,69.65c-6.01-4.67-4.37-12.41-7.57-18.07
		c-3.85-16.14-8.5-33.57-29.31-31.77c-32.52,2.82-65.1,57.41-52.34,87.76C2496.42,1107.27,2498.45,1132.23,2481.88,1157.06z"/>
	<path class="st14" d="M2481.88,1157.06c16.57-24.83,14.54-49.79,3.34-76.46c-12.75-30.36,19.82-84.95,52.34-87.76
		c20.81-1.8,25.47,15.62,29.31,31.77c-24.8,18.11-37.59,40.67-36.17,73.23C2532.44,1137.7,2516.76,1154.03,2481.88,1157.06z"/>
	<path class="st16" d="M1820.57,1196.45c1.82-9.38,7.42-12.17,12.99-14.02c8.71-2.9,17.34-1.5,25.01,3.66
		c1.21,0.82,2.27,4.36,1.66,5.01c-5.65,6.03-13.67,3.98-20.68,5.16C1833.78,1197.23,1827.71,1196.45,1820.57,1196.45z"/>
	<path class="st6" d="M1790.47,2260.93c13.55-0.6,22.04,5.48,21.59,21.17c-0.42,14.66-7.29,26.19-22.09,26.39
		c-14.01,0.19-24.83-10.47-25.13-24.37C1764.55,2270.29,1773.11,2260.21,1790.47,2260.93z"/>
	<path class="st10" d="M2058.16,973.54c-1.78,9.72-6.88,16.19-17.35,15.51c-9.7-0.63-13.9-7.31-13.62-16.41
		c0.33-10.52,7.32-16.31,16.85-15.71C2052.76,957.48,2057.72,964.32,2058.16,973.54z"/>
	<path class="st10" d="M2008.48,964.27c-21.83,0.84-39.94,13.36-60.17,19.21c15.99-22.59,38.31-33.5,65.62-35.91
		C2015.18,954.47,2010.48,958.93,2008.48,964.27z"/>
	<path class="st13" d="M1962.32,932.72c0.04-4.73,3.14-7.42,6.89-9.04c35.28-15.31,71.57-21.79,109.47-11.29
		c1.82,0.5,2.78,4.08,4.15,6.22C2041.17,910.57,2001.08,916,1962.32,932.72z"/>
	<path class="st13" d="M1954.3,940.39c-0.88-6.79,1.99-9.37,8.65-7.67C1962.99,938.59,1958.41,939.23,1954.3,940.39z"/>
	<path class="st13" d="M1941.75,952.22c1.41-1.48,2.82-2.96,4.23-4.44C1946.37,950.96,1945.89,953.33,1941.75,952.22z"/>
	<path class="st13" d="M1937.68,956.21c1.44-1.46,2.87-2.92,4.31-4.38C1942.96,955.66,1942.39,957.97,1937.68,956.21z"/>
	<path class="st13" d="M1949.7,943.91c1.41-1.43,2.81-2.86,4.22-4.29C1954.48,942.99,1952.89,944.24,1949.7,943.91z"/>
	<path class="st13" d="M1945.72,948.07c1.39-1.46,2.79-2.93,4.18-4.39C1950.3,946.84,1949.16,948.55,1945.72,948.07z"/>
	<path class="st10" d="M1677.76,986.55c-1.93,8.63-5.7,14.95-14.43,14.82c-8.68-0.13-13.14-5.8-13-14.32
		c0.14-8.74,5.95-13.9,13.79-14.08C1672.58,972.77,1676.29,979.54,1677.76,986.55z"/>
</g>
</svg>
